<svg width="67" height="50" viewBox="0 0 67 50" fill="none" xmlns="http://www.w3.org/2000/svg">
<rect width="67" height="50" rx="25" fill="white"/>
<g clip-path="url(#clip0_234_5350)">
<path d="M35.0444 10.3043C34.8416 9.89858 34.1823 9.89858 33.9795 10.3043C32.2553 13.4484 30.6832 16.6433 29.7704 20.0917C29.669 20.5988 30.2268 21.1059 30.6832 20.8017C31.6974 20.0917 32.5595 19.2296 33.3202 18.2154C33.1174 25.315 32.1538 32.6683 33.8273 39.6666C33.9288 40.1737 34.7908 40.0723 34.7401 39.5651C33.8273 32.3132 34.5373 25.1121 34.6387 17.8603C35.5008 18.621 36.3629 19.3817 37.1743 20.1423C37.5292 20.4973 38.29 20.2945 38.2393 19.6859C37.8335 16.339 36.7178 13.1949 35.0444 10.3043ZM34.4866 16.339C34.1823 15.8826 33.3202 15.984 33.3202 16.694C33.3202 16.7447 33.3202 16.7954 33.3202 16.7954C32.7117 17.404 32.1538 18.0125 31.4946 18.6211C32.306 16.2883 33.3202 14.1077 34.4865 11.9271C35.5008 13.9048 36.2614 15.9333 36.6671 18.1139C36.1093 17.6068 35.5008 17.0997 34.9428 16.5419C34.8416 16.339 34.6387 16.2883 34.4866 16.339Z" fill="#FBB03B"/>
</g>
<defs>
<clipPath id="clip0_234_5350">
<rect width="30" height="30" fill="white" transform="translate(19 10)"/>
</clipPath>
</defs>
</svg>
