<svg width="40" height="27" viewBox="0 0 40 27" fill="none" xmlns="http://www.w3.org/2000/svg">
<path d="M15.4571 14.1172C15.4571 14.3582 15.3422 14.5897 15.1459 14.7247C14.3752 15.2695 13.5422 14.7198 13.5422 13.9822V6.26788H7.79752V15.9107C7.79752 18.5673 9.94699 20.7321 12.5847 20.7321C13.7241 20.7321 14.8299 20.3223 15.6964 19.575C15.6055 20.2886 15.2177 20.8768 14.5667 21.2866C13.9587 21.6723 13.164 21.8748 12.2736 21.8748C11.3544 21.8748 10.4209 21.6579 9.57358 21.248C9.57358 21.248 9.42039 21.1757 9.2289 21.0648V26.2045C10.5071 26.7252 11.9097 27 13.2645 27C15.4092 27 17.3672 26.325 18.7794 25.0955C20.364 23.7214 21.2017 21.7109 21.2017 19.2857V6.26788H15.4571V14.1172ZM6.36136 15.9107V0.482171H0.616699V14.9464C0.616699 18.9193 3.22095 20.7321 5.64328 20.7321C6.36615 20.7321 7.08902 20.5634 7.73529 20.2597C7.83104 20.2163 7.98423 20.1198 7.98423 20.1198C7.98423 20.1198 7.84061 19.9655 7.77838 19.898C6.85923 18.8422 6.36136 17.4729 6.36136 15.9107ZM39.8719 12.0536V6.26788H37.8229C36.966 1.72128 32.2219 -1.26801 27.4538 0.530385C24.7969 1.52842 22.6379 4.72502 22.6379 7.58413V20.7321H22.8868C24.3661 20.6695 25.7496 20.0379 26.7788 18.9579C27.8129 17.873 28.3826 16.4507 28.3826 14.9513H30.7762V9.16073H28.3826V7.56966C28.3826 6.95252 28.7081 6.37395 29.2443 6.07502C30.7139 5.25056 32.2123 6.31127 32.2123 7.71431V13.0179C32.2123 15.1152 32.9974 17.063 34.424 18.5047C35.7884 19.8788 37.6362 20.6695 39.6229 20.7321H39.8671V14.9464C38.7948 14.9416 37.9522 14.0738 37.9522 13.0179V12.0536H39.8719Z" fill="#BCBCBC"/>
</svg>
