<svg width="99" height="27" viewBox="0 0 99 27" fill="none" xmlns="http://www.w3.org/2000/svg">
<path d="M84.4564 25.2155C85.8431 25.3707 87.2297 25.5259 88.5393 25.681L91.5437 18.1552L94.394 26.3793C95.8577 26.5345 97.3214 26.7672 98.7851 27L93.7778 12.569L98.8621 0H94.6251L94.5481 0.0775862L91.8519 6.82759L89.4637 0H85.2268L89.5408 12.4138L84.4564 25.2155ZM81.2209 24.9052V0H76.984V24.5948C78.4476 24.6724 79.8343 24.8276 81.2209 24.9052ZM49.5592 23.5086H52.9488V14.431H58.0332V10.5517H52.9488V3.87931H58.8035V0H48.7889V23.5086H49.5592ZM36.5402 23.7414C37.9268 23.6638 39.3135 23.6638 40.7772 23.5862V3.87931H44.706V0H32.6114V3.87931H36.5402V23.7414ZM4.26221 26.3793V11.5603L9.26953 25.8362L13.8917 25.3707V0H9.88582V15.3621L4.49331 0H0.256348V26.9224C1.64299 26.7672 2.9526 26.6121 4.26221 26.3793ZM28.5285 3.87931V0H18.4368V24.9052C21.7493 24.5948 25.1389 24.3621 28.4514 24.2069V20.3276C26.5255 20.4052 24.5996 20.5603 22.5967 20.7155V14.431H27.6811V10.5517H22.5967V3.87931H28.5285ZM67.2004 20.0948V0H62.9635V23.819C66.353 23.9741 69.6656 24.1293 73.0551 24.3621V20.4828C71.0522 20.25 69.1263 20.1724 67.2004 20.0948Z" fill="#BCBCBC"/>
</svg>
