<svg width="43" height="40" viewBox="0 0 43 40" fill="none" xmlns="http://www.w3.org/2000/svg">
<g filter="url(#filter0_d_234_4999)">
<path fill-rule="evenodd" clip-rule="evenodd" d="M14.7661 34.0754C14.6312 34.6214 14.9625 35.1739 15.5078 35.3121L16.8321 35.6475C17.3819 35.7868 17.94 35.4521 18.0761 34.9015L25.2357 5.92464C25.3706 5.37858 25.0392 4.82606 24.494 4.68793L23.1697 4.35247C22.6199 4.2132 22.0618 4.54793 21.9257 5.09855L14.7661 34.0754ZM10.5006 28.6066C10.1002 29.0121 9.4457 29.0121 9.0453 28.6066L1.74985 21.2197C1.08338 20.5448 1.08338 19.4541 1.74985 18.7793L9.04531 11.3923C9.4457 10.9869 10.1002 10.9869 10.5006 11.3923L11.4734 12.3773C11.8668 12.7756 11.8668 13.4162 11.4734 13.8145L5.36511 19.9995L11.4734 26.1844C11.8668 26.5827 11.8668 27.2233 11.4734 27.6217L10.5006 28.6066ZM30.9547 28.6066C30.5543 29.0121 29.8998 29.0121 29.4994 28.6066L28.5266 27.6217C28.1332 27.2233 28.1332 26.5827 28.5266 26.1844L34.6349 19.9995L28.5266 13.8145C28.1332 13.4162 28.1332 12.7756 28.5266 12.3773L29.4994 11.3923C29.8998 10.9869 30.5543 10.9869 30.9547 11.3923L38.2502 18.7793C38.9166 19.4541 38.9166 20.5448 38.2502 21.2197L30.9547 28.6066Z" fill="#FF4842"/>
</g>
<defs>
<filter id="filter0_d_234_4999" x="0" y="0" width="44" height="44" filterUnits="userSpaceOnUse" color-interpolation-filters="sRGB">
<feFlood flood-opacity="0" result="BackgroundImageFix"/>
<feColorMatrix in="SourceAlpha" type="matrix" values="0 0 0 0 0 0 0 0 0 0 0 0 0 0 0 0 0 0 127 0" result="hardAlpha"/>
<feOffset dx="2" dy="2"/>
<feGaussianBlur stdDeviation="1"/>
<feColorMatrix type="matrix" values="0 0 0 0 1 0 0 0 0 0.282353 0 0 0 0 0.258824 0 0 0 0.24 0"/>
<feBlend mode="normal" in2="BackgroundImageFix" result="effect1_dropShadow_234_4999"/>
<feBlend mode="normal" in="SourceGraphic" in2="effect1_dropShadow_234_4999" result="shape"/>
</filter>
</defs>
</svg>
