<svg width="43" height="43" viewBox="0 0 43 43" fill="none" xmlns="http://www.w3.org/2000/svg">
<g filter="url(#filter0_d_234_5011)">
<path fill-rule="evenodd" clip-rule="evenodd" d="M1.6665 2.66667C1.6665 2.11438 2.11422 1.66666 2.6665 1.66666H9.83317C10.3855 1.66666 10.8332 2.11438 10.8332 2.66666V9.83333C10.8332 10.3856 10.3855 10.8333 9.83317 10.8333H2.66651C2.11422 10.8333 1.6665 10.3856 1.6665 9.83333V2.66667ZM32.2221 25.1111V12.3611C32.2221 9.8298 30.17 7.77778 27.6387 7.77778H14.8887C14.3364 7.77778 13.8887 7.33006 13.8887 6.77778V5.72222C13.8887 5.16994 14.3364 4.72222 14.8887 4.72222H27.6387C31.8555 4.72727 35.2726 8.14436 35.2776 12.3611V25.1111C35.2776 25.6634 34.8299 26.1111 34.2776 26.1111H33.2221C32.6698 26.1111 32.2221 25.6634 32.2221 25.1111ZM7.77762 14.8889V27.6389C7.77762 30.1702 9.82964 32.2222 12.3609 32.2222H25.1109C25.6632 32.2222 26.1109 32.6699 26.1109 33.2222V34.2778C26.1109 34.8301 25.6632 35.2778 25.1109 35.2778H12.3609C8.1442 35.2727 4.72711 31.8556 4.72206 27.6389V14.8889C4.72206 14.3366 5.16977 13.8889 5.72206 13.8889H6.77762C7.3299 13.8889 7.77762 14.3366 7.77762 14.8889ZM30.1665 29.1667C29.6142 29.1667 29.1665 29.6144 29.1665 30.1667V37.3333C29.1665 37.8856 29.6142 38.3333 30.1665 38.3333H37.3332C37.8855 38.3333 38.3332 37.8856 38.3332 37.3333V30.1667C38.3332 29.6144 37.8855 29.1667 37.3332 29.1667H30.1665Z" fill="#1890FF"/>
</g>
<defs>
<filter id="filter0_d_234_5011" x="0" y="0" width="44" height="44" filterUnits="userSpaceOnUse" color-interpolation-filters="sRGB">
<feFlood flood-opacity="0" result="BackgroundImageFix"/>
<feColorMatrix in="SourceAlpha" type="matrix" values="0 0 0 0 0 0 0 0 0 0 0 0 0 0 0 0 0 0 127 0" result="hardAlpha"/>
<feOffset dx="2" dy="2"/>
<feGaussianBlur stdDeviation="1"/>
<feColorMatrix type="matrix" values="0 0 0 0 0.0941176 0 0 0 0 0.564706 0 0 0 0 1 0 0 0 0.24 0"/>
<feBlend mode="normal" in2="BackgroundImageFix" result="effect1_dropShadow_234_5011"/>
<feBlend mode="normal" in="SourceGraphic" in2="effect1_dropShadow_234_5011" result="shape"/>
</filter>
</defs>
</svg>
