<svg width="100" height="28" viewBox="0 0 100 28" fill="none" xmlns="http://www.w3.org/2000/svg">
<path d="M9.48672 0.568748V15.7717L4.00215 0.568748H0V27.4336C1.40098 27.2342 2.80469 27.0432 4.21094 26.86V12.251L9.0877 26.2602C10.6215 26.0822 12.1582 25.9139 13.6977 25.7555V0.568748H9.48672Z" fill="#E50914"/>
<path d="M29.4443 4.75547V0.568945H17.7471V25.3639C21.6283 25.0111 25.5273 24.7205 29.4441 24.4949V20.3453C26.9416 20.49 24.4461 20.6611 21.958 20.8568V14.575C23.5906 14.5588 25.7402 14.509 27.6447 14.5326V10.383C26.1232 10.3793 23.6779 10.4043 21.958 10.4264V4.75547H29.4443Z" fill="#E50914"/>
<path d="M32.1436 0.568748V4.75527H36.551V24.158C37.9521 24.1051 39.3564 24.0615 40.7619 24.0248V4.75527H45.1691V0.568748H32.1436Z" fill="#E50914"/>
<path d="M59.6248 4.75547V0.568945H47.8691V23.9113L52.0803 23.9104V14.3305H57.7885V10.1812H52.0803V4.75527H59.6248V4.75547Z" fill="#E50914"/>
<path d="M66.5347 20.1375V0.566406H62.3237V24.1172C66.1507 24.2488 69.9618 24.442 73.7571 24.6949V20.5457C71.3563 20.3855 68.9487 20.2498 66.5347 20.1375Z" fill="#E50914"/>
<path d="M92.3256 7.63613L89.5859 0.568748H85.0301L89.926 13.1971L84.5811 25.5859C86.0598 25.7301 87.5346 25.884 89.0072 26.0467L92.1156 18.8434L95.1941 26.784C96.7977 26.9902 98.3973 27.2053 99.9936 27.4332L100 27.4305L94.5143 13.2824L100 0.568748H95.3748L92.3256 7.63613Z" fill="#E50914"/>
<path d="M77.229 0.568748V24.9447C78.6347 25.0523 80.0384 25.1678 81.4401 25.2926V0.568748H77.229Z" fill="#E50914"/>
</svg>
