
<svg width="500" height="500" viewBox="0 0 500 500" fill="none" xmlns="http://www.w3.org/2000/svg">
<path d="M500 382.4H0V382.65H500V382.4Z" fill="#EBEBEB"/>
<path d="M357.68 389.21H324.56V389.46H357.68V389.21Z" fill="#EBEBEB"/>
<path d="M437.26 391.4H428.57V391.65H437.26V391.4Z" fill="#EBEBEB"/>
<path d="M377.87 398.49H358.68V398.74H377.87V398.49Z" fill="#EBEBEB"/>
<path d="M250 395.11H206.81V395.36H250V395.11Z" fill="#EBEBEB"/>
<path d="M197.9 395.11H191.57V395.36H197.9V395.11Z" fill="#EBEBEB"/>
<path d="M170.99 390.89H77.3101V391.14H170.99V390.89Z" fill="#EBEBEB"/>
<path d="M237 337.8H43.91C42.3973 337.797 40.9475 337.195 39.8788 336.124C38.8102 335.053 38.21 333.603 38.21 332.09V60.66C38.2231 59.156 38.8292 57.718 39.8964 56.6582C40.9637 55.5985 42.4059 55.0026 43.91 55H237C238.514 55 239.967 55.6016 241.038 56.6724C242.108 57.7433 242.71 59.1956 242.71 60.71V332.09C242.71 333.604 242.108 335.057 241.038 336.128C239.967 337.198 238.514 337.8 237 337.8ZM43.91 55.2C42.4636 55.2026 41.0774 55.7791 40.0556 56.8027C39.0338 57.8264 38.46 59.2136 38.46 60.66V332.09C38.46 333.536 39.0338 334.924 40.0556 335.947C41.0774 336.971 42.4636 337.547 43.91 337.55H237C238.447 337.547 239.834 336.971 240.858 335.948C241.881 334.924 242.457 333.537 242.46 332.09V60.66C242.457 59.2127 241.881 57.8255 240.858 56.8021C239.834 55.7787 238.447 55.2026 237 55.2H43.91Z" fill="#EBEBEB"/>
<path d="M453.31 337.8H260.21C258.696 337.797 257.246 337.195 256.175 336.125C255.105 335.054 254.503 333.604 254.5 332.09V60.66C254.516 59.1551 255.124 57.7171 256.193 56.6576C257.262 55.5981 258.705 55.0025 260.21 55H453.31C454.812 55.0052 456.252 55.6022 457.317 56.6617C458.382 57.7212 458.987 59.1578 459 60.66V332.09C459 333.601 458.401 335.05 457.335 336.121C456.268 337.191 454.821 337.795 453.31 337.8ZM260.21 55.2C258.763 55.2026 257.375 55.7787 256.352 56.8021C255.329 57.8255 254.753 59.2127 254.75 60.66V332.09C254.753 333.537 255.329 334.924 256.352 335.948C257.375 336.971 258.763 337.547 260.21 337.55H453.31C454.757 337.547 456.145 336.971 457.168 335.948C458.191 334.924 458.767 333.537 458.77 332.09V60.66C458.767 59.2127 458.191 57.8255 457.168 56.8021C456.145 55.7787 454.757 55.2026 453.31 55.2H260.21Z" fill="#EBEBEB"/>
<path d="M159.44 292.62L436 292.62V80.68L159.44 80.68V292.62Z" fill="#E6E6E6"/>
<path d="M143.72 75.67H445.49C445.686 75.6633 445.881 75.6961 446.064 75.7664C446.247 75.8368 446.414 75.9433 446.555 76.0795C446.696 76.2158 446.808 76.379 446.884 76.5595C446.961 76.7399 447 76.934 447 77.13C447 77.3212 446.962 77.5106 446.888 77.6872C446.815 77.8638 446.707 78.0241 446.572 78.1588C446.436 78.2936 446.275 78.4002 446.098 78.4725C445.921 78.5448 445.731 78.5813 445.54 78.58H143.72C143.529 78.5813 143.339 78.5448 143.162 78.4725C142.985 78.4002 142.824 78.2936 142.688 78.1588C142.552 78.0241 142.445 77.8638 142.371 77.6872C142.298 77.5106 142.26 77.3212 142.26 77.13C142.26 76.7428 142.414 76.3714 142.687 76.0976C142.961 75.8238 143.333 75.67 143.72 75.67Z" fill="#F5F5F5"/>
<path d="M153.22 292.62L433.09 292.62V80.68L153.22 80.68V292.62Z" fill="#EBEBEB"/>
<path d="M424.37 283.91V89.4L161.93 89.4V283.91H424.37Z" fill="#FAFAFA"/>
<path d="M370.46 283.91L309.92 89.4H274.69L335.24 283.91H370.46Z" fill="white"/>
<path d="M310.68 283.91L250.13 89.4H236.4L296.94 283.91H310.68Z" fill="white"/>
<path d="M163.03 283.91V89.4H161.92V283.91H163.03Z" fill="#E6E6E6"/>
<g opacity="0.4">
<path d="M412.22 278.11H439.27V73.0601H412.22V278.11Z" fill="#F0F0F0"/>
<path d="M401.68 278.11H422.76V73.0601H401.68V278.11Z" fill="#E6E6E6"/>
<path d="M385.17 278.11H412.22V73.0601H385.17V278.11Z" fill="#F0F0F0"/>
<path d="M374.62 278.11H395.7V73.0601H374.62V278.11Z" fill="#E6E6E6"/>
<path d="M358.12 278.11H385.17V73.0601H358.12V278.11Z" fill="#F0F0F0"/>
</g>
<g opacity="0.4">
<path d="M167.52 278.11H176.16L176.16 73.06H167.52L167.52 278.11Z" fill="#F0F0F0"/>
<path d="M164.15 278.11H170.88L170.88 73.06H164.15L164.15 278.11Z" fill="#E6E6E6"/>
<path d="M158.87 278.11H167.51L167.51 73.06H158.87L158.87 278.11Z" fill="#F0F0F0"/>
<path d="M155.51 278.11H162.24L162.24 73.06H155.51L155.51 278.11Z" fill="#E6E6E6"/>
<path d="M150.23 278.11H158.87L158.87 73.06H150.23L150.23 278.11Z" fill="#F0F0F0"/>
</g>
<path d="M75.3901 185.6H137.35V107.71L75.3901 107.71V185.6Z" fill="#F0F0F0"/>
<path d="M61.7002 185.6H134.97V107.71L61.7002 107.71L61.7002 185.6Z" fill="#F5F5F5"/>
<path d="M67.8398 113.85V179.46H128.83V113.85H67.8398Z" fill="white"/>
<path d="M406.82 377.4H419.07V311.72H406.82V377.4Z" fill="#F0F0F0"/>
<path d="M229.52 383.5H414V377.4H229.52V383.5Z" fill="#F0F0F0"/>
<path d="M406.81 311.73H224.46V377.41H406.81V311.73Z" fill="#FAFAFA"/>
<path d="M396.45 319.72H234.84V339.93H396.45V319.72Z" fill="#F0F0F0"/>
<path d="M396.45 345.68H234.84V365.89H396.45V345.68Z" fill="#F0F0F0"/>
<path d="M270.21 321.54H361.07C362.086 321.54 362.91 320.716 362.91 319.7V319.05C362.91 318.034 362.086 317.21 361.07 317.21H270.21C269.194 317.21 268.37 318.034 268.37 319.05V319.7C268.37 320.716 269.194 321.54 270.21 321.54Z" fill="#FAFAFA"/>
<path d="M270.21 347.5H361.07C362.086 347.5 362.91 346.676 362.91 345.66V345.01C362.91 343.994 362.086 343.17 361.07 343.17H270.21C269.194 343.17 268.37 343.994 268.37 345.01V345.66C268.37 346.676 269.194 347.5 270.21 347.5Z" fill="#FAFAFA"/>
<path d="M220.94 311.73H406.81V305.84H220.94V311.73Z" fill="#F0F0F0"/>
<path d="M422.76 305.84H406.82V311.73H422.76V305.84Z" fill="#E6E6E6"/>
<path d="M100.27 352.56H106.21C106.21 347.25 106.21 320.13 106.63 289.26C106.99 260.65 107.63 249.19 108.21 244.81L103.44 253.13C101.78 259.64 99.02 270.77 98.78 277.61C98 299.13 101 330 100.27 352.56Z" fill="#E6E6E6"/>
<path d="M95.7599 249.19C87.8499 233.72 71.9999 225.64 55.8799 218C49.5399 215 67.3399 252 80.2899 268.83C90.2899 281.83 100.06 281.58 102.98 294.46C103.54 279.54 102.58 262.53 95.7599 249.19Z" fill="#E6E6E6"/>
<path d="M110.79 275.37C117.79 266.22 129.35 263.88 141.09 261.93C145.69 261.17 129.68 283.29 119.09 292.31C110.89 299.31 104.36 297.09 101 305.47C102.27 294.92 104.75 283.25 110.79 275.37Z" fill="#E6E6E6"/>
<path d="M96.6598 292.86C91.2098 285.75 82.2398 283.93 73.1198 282.42C69.5398 281.83 81.9998 299 90.1898 306C96.5598 311.45 101.63 309.72 104.19 316.23C103.29 308.05 101.36 299 96.6598 292.86Z" fill="#E6E6E6"/>
<path d="M107.88 320.72C111.64 315.92 117.76 314.72 123.98 313.72C126.42 313.34 117.84 324.96 112.21 329.72C107.84 333.38 104.4 332.17 102.58 336.59C103.28 331 104.65 324.86 107.88 320.72Z" fill="#E6E6E6"/>
<path d="M104.34 249.77C108.72 234.6 126 211 143.79 206.08C150.79 204.18 125.68 242.57 117.08 261.67C110.39 276.55 104.08 285.58 103.21 296.24C98.77 282.84 100 264.94 104.34 249.77Z" fill="#E6E6E6"/>
<path d="M105.82 382.4C93.4999 382.4 83.3199 380.57 82.6099 368.28L80.6099 347.28H131.12L129.12 368.28C128.31 380.57 118.13 382.4 105.82 382.4Z" fill="#F0F0F0"/>
<path d="M134.34 351.55H77.2902L75.6602 339.92H135.97L134.34 351.55Z" fill="#F0F0F0"/>
<path d="M250 427.56C357.082 427.56 443.89 422.492 443.89 416.24C443.89 409.988 357.082 404.92 250 404.92C142.917 404.92 56.1099 409.988 56.1099 416.24C56.1099 422.492 142.917 427.56 250 427.56Z" fill="#F5F5F5"/>
<path d="M379.24 138.43C379.194 138.44 379.146 138.44 379.1 138.43C378.973 138.393 378.865 138.307 378.801 138.19C378.738 138.074 378.723 137.937 378.76 137.81C387.71 108 381.28 81.81 361.56 67.62C343.48 54.67 318.82 54.87 300.19 68.14C247.48 105.67 207.19 112.94 165.43 92.47C165.371 92.4411 165.318 92.4009 165.274 92.3516C165.231 92.3023 165.197 92.2449 165.176 92.1827C165.155 92.1204 165.146 92.0546 165.15 91.989C165.154 91.9233 165.171 91.8591 165.2 91.8C165.229 91.7409 165.269 91.6881 165.318 91.6446C165.368 91.601 165.425 91.5676 165.487 91.5463C165.549 91.5249 165.615 91.516 165.681 91.5201C165.747 91.5242 165.811 91.5411 165.87 91.57C207.25 111.86 247.24 104.57 299.61 67.32C318.61 53.81 343.72 53.61 362.14 66.81C382.23 81.21 388.8 107.81 379.72 138.1C379.684 138.198 379.619 138.283 379.533 138.342C379.447 138.401 379.344 138.432 379.24 138.43Z" fill="#7E57C2"/>
<path d="M346.15 291.67C336.043 291.623 326.089 289.201 317.09 284.6C280.09 265.97 251.31 266.81 240.22 286.84C240.188 286.898 240.146 286.949 240.095 286.99C240.044 287.032 239.985 287.063 239.921 287.081C239.858 287.1 239.792 287.106 239.727 287.099C239.661 287.092 239.598 287.072 239.54 287.04C239.425 286.975 239.34 286.867 239.302 286.74C239.265 286.614 239.279 286.477 239.34 286.36C250.73 265.8 279.96 264.81 317.54 283.7C326.525 288.35 336.507 290.741 346.623 290.666C356.739 290.591 366.685 288.053 375.6 283.27C397.69 271.78 414.27 248.61 417.84 224.27C417.85 224.205 417.872 224.143 417.906 224.086C417.94 224.03 417.985 223.981 418.038 223.942C418.091 223.903 418.151 223.875 418.215 223.859C418.279 223.843 418.345 223.84 418.41 223.85C418.54 223.872 418.657 223.944 418.735 224.05C418.813 224.157 418.847 224.289 418.83 224.42C415.21 249.1 398.42 272.55 376.06 284.18C366.841 289.057 356.579 291.627 346.15 291.67Z" fill="#7E57C2"/>
<path d="M408.2 233.25H408.03C407.905 233.205 407.804 233.112 407.747 232.992C407.691 232.872 407.685 232.735 407.73 232.61C418.46 203.12 403.15 191.34 388.34 179.94C374.34 169.14 359.79 157.94 368.06 132C368.079 131.937 368.111 131.878 368.153 131.828C368.196 131.777 368.248 131.736 368.307 131.706C368.365 131.676 368.43 131.658 368.496 131.654C368.561 131.649 368.627 131.658 368.69 131.68C368.752 131.699 368.809 131.731 368.859 131.772C368.909 131.814 368.95 131.865 368.979 131.923C369.009 131.981 369.027 132.044 369.032 132.108C369.038 132.173 369.03 132.238 369.01 132.3C361 157.58 374.55 168 389 179.12C404.09 190.73 419.7 202.74 408.72 232.92C408.686 233.027 408.615 233.119 408.52 233.179C408.425 233.24 408.311 233.265 408.2 233.25Z" fill="#7E57C2"/>
<path opacity="0.1" d="M398.73 238.06C391.42 262.91 363.54 281.95 338.32 276.06C307.74 268.87 291.62 242.81 297.04 217.48C302.46 192.15 330.69 205.16 356.04 199.73C388.56 192.72 406 213.2 398.73 238.06Z" fill="#7E57C2"/>
<path d="M253.19 95.26C253.275 95.9389 253.156 96.6276 252.848 97.2388C252.541 97.8499 252.059 98.3559 251.463 98.6923C250.867 99.0287 250.185 99.1805 249.503 99.1282C248.821 99.076 248.17 98.8221 247.632 98.3989C247.095 97.9756 246.695 97.4022 246.484 96.7513C246.273 96.1005 246.261 95.4017 246.448 94.7437C246.636 94.0857 247.014 93.4982 247.536 93.056C248.058 92.6138 248.7 92.3367 249.38 92.26C250.282 92.1583 251.188 92.4161 251.901 92.9777C252.614 93.5393 253.077 94.3593 253.19 95.26Z" fill="white"/>
<path d="M249.76 99.58C248.999 99.5791 248.255 99.3583 247.618 98.9441C246.98 98.5299 246.476 97.9401 246.166 97.2458C245.856 96.5516 245.754 95.7824 245.872 95.0313C245.989 94.2801 246.321 93.579 246.828 93.0124C247.335 92.4459 247.995 92.0382 248.729 91.8384C249.463 91.6387 250.238 91.6554 250.963 91.8867C251.687 92.1179 252.329 92.5538 252.811 93.1417C253.293 93.7296 253.595 94.4445 253.68 95.2C253.782 96.2368 253.475 97.2725 252.825 98.0868C252.175 98.901 251.233 99.4296 250.2 99.56C250.054 99.5764 249.907 99.5831 249.76 99.58ZM249.76 92.69H249.44C248.862 92.7548 248.317 92.9893 247.872 93.364C247.428 93.7386 247.104 94.2365 246.943 94.7949C246.781 95.3532 246.789 95.9469 246.965 96.5009C247.141 97.0549 247.477 97.5444 247.931 97.9075C248.384 98.2705 248.936 98.491 249.515 98.5408C250.094 98.5907 250.675 98.4679 251.184 98.1878C251.693 97.9077 252.108 97.4829 252.376 96.9671C252.644 96.4514 252.753 95.8677 252.69 95.29C252.594 94.5774 252.245 93.923 251.708 93.4458C251.17 92.9686 250.478 92.7004 249.76 92.69Z" fill="#7E57C2"/>
<path d="M372 131.74C372.085 132.419 371.966 133.109 371.658 133.72C371.351 134.332 370.868 134.838 370.272 135.174C369.675 135.511 368.993 135.662 368.31 135.609C367.627 135.556 366.976 135.301 366.439 134.877C365.901 134.453 365.502 133.879 365.293 133.227C365.083 132.575 365.071 131.876 365.26 131.218C365.449 130.56 365.829 129.973 366.353 129.532C366.876 129.09 367.519 128.815 368.2 128.74C369.1 128.641 370.003 128.9 370.714 129.462C371.425 130.023 371.887 130.841 372 131.74Z" fill="white"/>
<path d="M368.53 136.07C367.895 136.076 367.268 135.93 366.701 135.642C366.135 135.354 365.647 134.935 365.277 134.418C364.908 133.901 364.668 133.303 364.579 132.675C364.49 132.046 364.554 131.405 364.765 130.806C364.976 130.207 365.329 129.668 365.793 129.234C366.257 128.801 366.819 128.485 367.431 128.315C368.042 128.145 368.686 128.124 369.308 128.256C369.929 128.387 370.509 128.667 371 129.07C371.815 129.728 372.339 130.68 372.46 131.72C372.569 132.759 372.268 133.8 371.62 134.62C370.961 135.406 370.02 135.901 369 136C368.845 136.035 368.688 136.058 368.53 136.07ZM368.53 129.18C368.42 129.17 368.31 129.17 368.2 129.18C367.811 129.216 367.433 129.33 367.09 129.516C366.746 129.702 366.443 129.955 366.2 130.26C365.957 130.562 365.776 130.91 365.668 131.282C365.56 131.655 365.526 132.045 365.57 132.43C365.67 133.2 366.065 133.9 366.671 134.385C367.277 134.87 368.047 135.101 368.82 135.03C369.604 134.944 370.322 134.552 370.82 133.94C371.062 133.639 371.241 133.293 371.347 132.923C371.454 132.552 371.485 132.163 371.44 131.78C371.365 131.059 371.025 130.391 370.485 129.907C369.946 129.422 369.245 129.156 368.52 129.16L368.53 129.18Z" fill="#7E57C2"/>
<path d="M406.35 260C406.432 260.677 406.312 261.363 406.005 261.971C405.697 262.58 405.215 263.083 404.621 263.417C404.027 263.751 403.347 263.901 402.667 263.848C401.987 263.795 401.339 263.541 400.804 263.118C400.268 262.696 399.871 262.124 399.661 261.475C399.452 260.826 399.44 260.13 399.627 259.474C399.814 258.819 400.192 258.234 400.712 257.793C401.233 257.352 401.872 257.076 402.55 257C403.45 256.901 404.353 257.16 405.064 257.722C405.775 258.283 406.237 259.101 406.35 260Z" fill="white"/>
<path d="M402.92 264.35C402.157 264.349 401.411 264.128 400.771 263.712C400.131 263.297 399.626 262.705 399.315 262.008C399.005 261.311 398.903 260.54 399.021 259.786C399.14 259.033 399.474 258.33 399.983 257.762C400.493 257.194 401.155 256.786 401.892 256.587C402.628 256.388 403.406 256.406 404.132 256.64C404.858 256.873 405.501 257.312 405.984 257.903C406.466 258.494 406.767 259.212 406.85 259.97C406.907 260.485 406.861 261.006 406.717 261.503C406.572 262.001 406.331 262.465 406.007 262.869C405.683 263.273 405.282 263.609 404.828 263.858C404.374 264.107 403.875 264.264 403.36 264.32C403.214 264.34 403.067 264.35 402.92 264.35ZM402.92 257.46C402.81 257.451 402.699 257.451 402.59 257.46C402.013 257.527 401.469 257.763 401.026 258.138C400.583 258.514 400.261 259.012 400.101 259.571C399.941 260.129 399.95 260.722 400.127 261.275C400.303 261.828 400.64 262.317 401.094 262.679C401.548 263.041 402.099 263.261 402.678 263.31C403.257 263.359 403.837 263.236 404.345 262.956C404.854 262.676 405.269 262.251 405.536 261.736C405.804 261.22 405.913 260.637 405.85 260.06C405.763 259.276 405.372 258.557 404.76 258.06C404.234 257.66 403.59 257.449 402.93 257.46H402.92Z" fill="#7E57C2"/>
<path d="M371.07 259.52C370.753 260.122 370.265 260.616 369.668 260.941C369.07 261.266 368.39 261.406 367.713 261.344C367.036 261.282 366.392 261.021 365.863 260.594C365.334 260.166 364.944 259.592 364.741 258.942C364.539 258.293 364.533 257.599 364.726 256.946C364.918 256.294 365.299 255.713 365.821 255.277C366.343 254.842 366.982 254.57 367.659 254.498C368.335 254.425 369.017 254.555 369.62 254.87C370.023 255.078 370.38 255.363 370.672 255.71C370.963 256.058 371.183 256.459 371.317 256.892C371.452 257.324 371.5 257.78 371.457 258.231C371.415 258.682 371.283 259.12 371.07 259.52Z" fill="white"/>
<path d="M368 261.87C367.363 261.868 366.735 261.714 366.17 261.42C365.253 260.923 364.566 260.088 364.256 259.092C363.946 258.097 364.037 257.02 364.51 256.09C365.004 255.178 365.837 254.498 366.83 254.195C367.822 253.892 368.893 253.992 369.812 254.473C370.731 254.953 371.424 255.776 371.742 256.764C372.06 257.751 371.976 258.824 371.51 259.75C371.17 260.387 370.665 260.921 370.047 261.294C369.429 261.667 368.722 261.866 368 261.87ZM368 254.98C367.479 254.98 366.967 255.118 366.517 255.381C366.067 255.643 365.695 256.02 365.439 256.474C365.182 256.928 365.051 257.441 365.059 257.962C365.066 258.483 365.212 258.993 365.481 259.439C365.75 259.885 366.133 260.251 366.59 260.501C367.048 260.75 367.563 260.874 368.084 260.859C368.604 260.844 369.112 260.69 369.554 260.415C369.996 260.139 370.357 259.751 370.6 259.29C370.955 258.593 371.025 257.785 370.793 257.038C370.561 256.291 370.047 255.663 369.36 255.29C368.935 255.088 368.469 254.989 368 255V254.98Z" fill="#7E57C2"/>
<path d="M380.91 245.87C380.817 245.867 380.729 245.832 380.66 245.77L360.48 227.55C360.423 227.48 360.392 227.392 360.394 227.301C360.396 227.211 360.43 227.124 360.491 227.056C360.551 226.989 360.633 226.945 360.723 226.933C360.813 226.921 360.904 226.941 360.98 226.99L380.63 244.73L383.34 223.32C383.346 223.271 383.362 223.224 383.386 223.182C383.411 223.139 383.444 223.102 383.483 223.072C383.522 223.042 383.567 223.02 383.614 223.008C383.662 222.996 383.711 222.993 383.76 223C383.809 223.006 383.856 223.022 383.898 223.046C383.941 223.071 383.978 223.104 384.008 223.143C384.038 223.182 384.06 223.227 384.072 223.274C384.084 223.322 384.087 223.371 384.08 223.42L381.28 245.54C381.272 245.608 381.246 245.672 381.203 245.725C381.161 245.778 381.104 245.818 381.04 245.84C381 245.86 380.955 245.871 380.91 245.87Z" fill="#263238"/>
<path d="M368 258.3C367.949 258.3 367.899 258.289 367.852 258.268C367.806 258.247 367.764 258.217 367.73 258.18C367.661 258.109 367.622 258.014 367.622 257.915C367.622 257.816 367.661 257.721 367.73 257.65L380.62 245.22C380.691 245.151 380.786 245.112 380.885 245.112C380.984 245.112 381.079 245.151 381.15 245.22C381.185 245.254 381.213 245.296 381.232 245.341C381.252 245.387 381.262 245.436 381.262 245.485C381.262 245.534 381.252 245.583 381.232 245.629C381.213 245.674 381.185 245.716 381.15 245.75L368.26 258.18C368.227 258.217 368.187 258.246 368.142 258.267C368.097 258.288 368.049 258.299 368 258.3Z" fill="#263238"/>
<path d="M363.39 228.66C363.121 229.192 362.7 229.632 362.181 229.924C361.661 230.216 361.066 230.347 360.472 230.299C359.878 230.252 359.311 230.028 358.845 229.657C358.378 229.286 358.032 228.785 357.852 228.217C357.672 227.649 357.665 227.04 357.832 226.467C357.999 225.895 358.333 225.386 358.791 225.004C359.249 224.623 359.81 224.386 360.403 224.325C360.996 224.263 361.594 224.38 362.12 224.66C362.813 225.028 363.333 225.653 363.571 226.401C363.808 227.149 363.743 227.96 363.39 228.66Z" fill="#7E57C2"/>
<path d="M385.59 224.35C385.396 224.722 385.096 225.028 384.728 225.229C384.361 225.431 383.942 225.519 383.524 225.482C383.106 225.445 382.709 225.285 382.382 225.023C382.055 224.76 381.813 224.406 381.688 224.006C381.562 223.606 381.557 223.178 381.675 222.776C381.792 222.373 382.027 222.015 382.348 221.745C382.669 221.476 383.063 221.308 383.48 221.262C383.897 221.217 384.318 221.296 384.69 221.49C384.937 221.619 385.156 221.795 385.335 222.008C385.513 222.222 385.649 222.468 385.732 222.734C385.816 222.999 385.846 223.279 385.822 223.556C385.797 223.833 385.718 224.103 385.59 224.35Z" fill="#263238"/>
<path d="M264.35 181.94C264.366 181.26 264.583 180.6 264.974 180.043C265.365 179.487 265.913 179.058 266.547 178.813C267.182 178.567 267.875 178.515 268.538 178.664C269.202 178.812 269.808 179.154 270.277 179.646C270.747 180.138 271.06 180.758 271.177 181.428C271.295 182.098 271.211 182.788 270.936 183.41C270.661 184.033 270.208 184.56 269.634 184.924C269.059 185.289 268.39 185.476 267.71 185.46C267.258 185.451 266.812 185.353 266.398 185.17C265.984 184.988 265.61 184.726 265.298 184.399C264.985 184.072 264.741 183.686 264.578 183.264C264.415 182.842 264.338 182.392 264.35 181.94Z" fill="white"/>
<path d="M267.79 186H267.69C266.651 185.976 265.664 185.542 264.944 184.793C264.224 184.043 263.831 183.039 263.85 182C263.873 180.96 264.307 179.972 265.056 179.251C265.806 178.53 266.81 178.134 267.85 178.15C268.862 178.212 269.812 178.662 270.502 179.405C271.192 180.148 271.57 181.128 271.557 182.143C271.544 183.157 271.142 184.127 270.433 184.853C269.724 185.578 268.763 186.003 267.75 186.04L267.79 186ZM267.79 179.11C267.022 179.11 266.285 179.41 265.735 179.946C265.186 180.483 264.868 181.212 264.85 181.98C264.834 182.758 265.127 183.511 265.665 184.073C266.203 184.636 266.942 184.962 267.72 184.98C268.107 184.995 268.492 184.931 268.853 184.792C269.215 184.653 269.543 184.441 269.82 184.17C270.244 183.766 270.538 183.245 270.664 182.674C270.79 182.102 270.743 181.506 270.528 180.961C270.313 180.416 269.941 179.948 269.458 179.617C268.976 179.285 268.405 179.105 267.82 179.1L267.79 179.11Z" fill="#7E57C2"/>
<path d="M255.08 182C254.987 182.001 254.897 181.968 254.827 181.907C254.757 181.846 254.712 181.762 254.7 181.67L253.55 171.27C253.54 171.221 253.54 171.17 253.55 171.12L257.55 157.22C257.584 157.134 257.649 157.063 257.732 157.022C257.815 156.982 257.911 156.974 258 157C258.097 157.028 258.178 157.093 258.227 157.181C258.276 157.269 258.288 157.373 258.26 157.47L254.32 171.3L255.47 181.62C255.479 181.719 255.449 181.817 255.388 181.895C255.327 181.973 255.238 182.025 255.14 182.04L255.08 182Z" fill="#263238"/>
<path d="M267.79 182.4C267.707 182.398 267.626 182.37 267.56 182.32L253.69 171.51C253.612 171.447 253.562 171.356 253.551 171.257C253.54 171.158 253.568 171.059 253.63 170.98C253.66 170.942 253.697 170.91 253.74 170.887C253.782 170.863 253.829 170.848 253.877 170.842C253.926 170.837 253.975 170.841 254.021 170.854C254.068 170.867 254.112 170.89 254.15 170.92L268 181.73C268.076 181.791 268.126 181.879 268.139 181.976C268.152 182.073 268.127 182.171 268.07 182.25C268.037 182.294 267.995 182.33 267.946 182.356C267.898 182.382 267.845 182.397 267.79 182.4Z" fill="#263238"/>
<path d="M254.88 157.24C254.894 156.647 255.083 156.071 255.424 155.586C255.766 155.1 256.243 154.727 256.796 154.513C257.349 154.299 257.954 154.254 258.533 154.383C259.112 154.512 259.64 154.81 260.049 155.24C260.459 155.669 260.732 156.21 260.834 156.794C260.936 157.379 260.863 157.98 260.623 158.523C260.383 159.066 259.988 159.525 259.487 159.843C258.987 160.161 258.403 160.324 257.81 160.31C257.416 160.301 257.027 160.214 256.667 160.055C256.306 159.896 255.981 159.667 255.709 159.382C255.437 159.097 255.223 158.761 255.081 158.393C254.939 158.026 254.87 157.634 254.88 157.24Z" fill="#7E57C2"/>
<path d="M253 181.56C253.008 181.138 253.141 180.728 253.383 180.382C253.624 180.036 253.963 179.769 254.357 179.616C254.75 179.463 255.18 179.43 255.592 179.522C256.004 179.613 256.379 179.825 256.671 180.131C256.962 180.436 257.156 180.821 257.228 181.237C257.3 181.653 257.247 182.081 257.076 182.466C256.904 182.852 256.622 183.178 256.265 183.403C255.908 183.628 255.492 183.742 255.07 183.73C254.508 183.714 253.976 183.477 253.588 183.071C253.201 182.665 252.989 182.122 253 181.56Z" fill="#263238"/>
<path d="M353.67 168.08L361.19 185.08C361.29 185.31 361.344 185.558 361.348 185.809C361.352 186.061 361.307 186.31 361.214 186.544C361.121 186.777 360.982 186.99 360.806 187.169C360.631 187.349 360.421 187.492 360.19 187.59C359.724 187.788 359.199 187.793 358.729 187.606C358.259 187.419 357.882 187.054 357.68 186.59L350.15 169.59C349.952 169.124 349.946 168.599 350.133 168.129C350.321 167.659 350.686 167.282 351.15 167.08C351.616 166.879 352.144 166.872 352.616 167.059C353.089 167.247 353.467 167.614 353.67 168.08Z" fill="#7E57C2"/>
<path d="M304.55 266.16L330.24 264.36C330.546 264.341 330.847 264.444 331.078 264.646C331.308 264.848 331.449 265.134 331.47 265.44C331.489 265.745 331.388 266.044 331.188 266.275C330.987 266.505 330.704 266.647 330.4 266.67L304.71 268.47C304.558 268.481 304.406 268.461 304.261 268.413C304.117 268.364 303.984 268.288 303.869 268.187C303.755 268.087 303.662 267.964 303.595 267.828C303.528 267.691 303.489 267.542 303.48 267.39C303.469 267.239 303.488 267.087 303.536 266.943C303.584 266.8 303.66 266.667 303.759 266.553C303.859 266.438 303.98 266.345 304.116 266.277C304.251 266.21 304.399 266.17 304.55 266.16Z" fill="#263238"/>
<path d="M260.1 125.19L284.89 132.19C285.036 132.231 285.172 132.301 285.291 132.396C285.41 132.49 285.509 132.607 285.583 132.74C285.656 132.873 285.703 133.02 285.719 133.171C285.736 133.322 285.722 133.474 285.68 133.62C285.596 133.913 285.4 134.162 285.134 134.311C284.868 134.461 284.554 134.5 284.26 134.42L259.47 127.42C259.324 127.379 259.187 127.309 259.068 127.214C258.949 127.12 258.85 127.003 258.777 126.87C258.703 126.737 258.657 126.591 258.64 126.44C258.624 126.289 258.637 126.136 258.68 125.99C258.764 125.697 258.96 125.448 259.226 125.299C259.491 125.149 259.805 125.11 260.1 125.19Z" fill="#263238"/>
<path d="M241.61 111L228.61 119.3C228.258 119.522 227.832 119.596 227.426 119.506C227.02 119.416 226.665 119.17 226.44 118.82C226.215 118.467 226.139 118.039 226.229 117.631C226.319 117.222 226.567 116.866 226.92 116.64L239.92 108.34C240.275 108.119 240.702 108.046 241.11 108.138C241.518 108.229 241.874 108.478 242.1 108.83C242.21 109.005 242.286 109.199 242.321 109.403C242.356 109.607 242.351 109.815 242.305 110.017C242.26 110.218 242.175 110.409 242.056 110.578C241.936 110.746 241.785 110.89 241.61 111Z" fill="#7E57C2"/>
<path d="M308.93 171.14C308.849 171.139 308.77 171.113 308.705 171.064C308.641 171.015 308.593 170.947 308.57 170.87C308.545 170.773 308.56 170.671 308.61 170.585C308.661 170.499 308.743 170.436 308.84 170.41L326.04 165.78C326.133 165.763 326.229 165.782 326.309 165.833C326.39 165.883 326.448 165.962 326.473 166.054C326.498 166.145 326.488 166.243 326.445 166.327C326.402 166.412 326.328 166.477 326.24 166.51L309 171.13L308.93 171.14Z" fill="#263238"/>
<path d="M325 166.77C324.877 166.551 324.822 166.301 324.841 166.052C324.86 165.802 324.953 165.563 325.108 165.366C325.262 165.168 325.472 165.021 325.71 164.943C325.948 164.864 326.204 164.858 326.445 164.924C326.687 164.991 326.903 165.128 327.067 165.317C327.231 165.507 327.336 165.74 327.367 165.989C327.399 166.238 327.356 166.49 327.244 166.714C327.133 166.939 326.957 167.125 326.74 167.25C326.595 167.335 326.434 167.39 326.267 167.412C326.1 167.434 325.931 167.422 325.769 167.377C325.606 167.332 325.455 167.256 325.323 167.151C325.191 167.047 325.081 166.917 325 166.77Z" fill="#7E57C2"/>
<path d="M307.82 171.4C307.655 171.104 307.613 170.755 307.705 170.429C307.797 170.103 308.014 169.826 308.31 169.66C308.455 169.577 308.615 169.523 308.78 169.502C308.946 169.481 309.114 169.493 309.275 169.538C309.436 169.583 309.587 169.659 309.718 169.762C309.849 169.866 309.959 169.994 310.04 170.14C310.138 170.286 310.205 170.451 310.237 170.625C310.269 170.798 310.264 170.976 310.224 171.148C310.183 171.319 310.108 171.481 310.002 171.622C309.896 171.763 309.763 171.881 309.609 171.968C309.456 172.055 309.287 172.109 309.111 172.127C308.936 172.146 308.759 172.128 308.591 172.074C308.423 172.021 308.268 171.934 308.135 171.818C308.002 171.702 307.895 171.559 307.82 171.4Z" fill="#7E57C2"/>
<path d="M337.39 211.38C337.553 210.979 337.587 210.538 337.488 210.118C337.39 209.697 337.163 209.317 336.84 209.03L306.62 184.84C306.483 184.718 306.317 184.632 306.138 184.59C305.96 184.548 305.773 184.551 305.596 184.598C305.418 184.646 305.256 184.737 305.122 184.863C304.988 184.989 304.888 185.146 304.83 185.32L295.2 207.32L276 221.75C275.841 221.845 275.709 221.978 275.614 222.137C275.52 222.296 275.467 222.476 275.46 222.661C275.453 222.846 275.493 223.029 275.575 223.195C275.657 223.361 275.779 223.503 275.93 223.61L306.15 247.8C306.5 248.049 306.92 248.183 307.35 248.183C307.78 248.183 308.199 248.049 308.55 247.8L327.8 233.34L337.39 211.38Z" fill="#7E57C2"/>
<path d="M326.83 232.6L294.27 206.54L303.91 184.54C303.967 184.366 304.066 184.209 304.198 184.082C304.331 183.956 304.493 183.865 304.67 183.817C304.847 183.77 305.033 183.767 305.211 183.809C305.389 183.852 305.554 183.938 305.69 184.06L335.92 208.25C336.242 208.538 336.466 208.918 336.563 209.339C336.66 209.76 336.624 210.2 336.46 210.6L326.83 232.6Z" fill="#7E57C2"/>
<path d="M326.08 229.73C326.024 229.73 325.97 229.708 325.93 229.67L296.71 206.29C296.615 206.193 296.55 206.071 296.522 205.938C296.493 205.805 296.503 205.667 296.55 205.54L305 186.19C305.016 186.155 305.04 186.123 305.069 186.097C305.098 186.071 305.133 186.052 305.17 186.04C305.208 186.033 305.247 186.033 305.285 186.042C305.323 186.05 305.359 186.067 305.39 186.09L334.6 209.47C334.698 209.565 334.765 209.687 334.794 209.821C334.822 209.954 334.81 210.093 334.76 210.22L326.27 229.58C326.255 229.615 326.231 229.646 326.202 229.671C326.172 229.695 326.137 229.712 326.1 229.72L326.08 229.73ZM297.08 205.91L326 229.08L334.35 210C334.364 209.944 334.364 209.886 334.35 209.83L305.4 186.67L297 205.74C296.981 205.795 296.981 205.855 297 205.91H297.08Z" fill="white"/>
<path d="M326.83 232.6L294.27 206.54L275 221C274.843 221.097 274.713 221.23 274.62 221.389C274.528 221.548 274.475 221.727 274.469 221.911C274.462 222.095 274.5 222.278 274.581 222.443C274.661 222.609 274.781 222.752 274.93 222.86L305.16 247.05C305.51 247.301 305.93 247.436 306.36 247.436C306.791 247.436 307.21 247.301 307.56 247.05L326.83 232.6Z" fill="#7E57C2"/>
<path opacity="0.3" d="M285 217L292.81 211.14C293.187 210.868 293.64 210.721 294.105 210.721C294.57 210.721 295.024 210.868 295.4 211.14L320.9 231.54C321.059 231.657 321.187 231.812 321.272 231.99C321.357 232.168 321.398 232.364 321.39 232.561C321.382 232.758 321.326 232.951 321.227 233.121C321.127 233.292 320.988 233.436 320.82 233.54L313.02 239.4C312.641 239.67 312.186 239.816 311.72 239.816C311.254 239.816 310.8 239.67 310.42 239.4L284.93 219C284.775 218.881 284.651 218.726 284.567 218.549C284.484 218.372 284.444 218.178 284.451 217.982C284.458 217.786 284.511 217.595 284.607 217.424C284.702 217.254 284.837 217.108 285 217Z" fill="white"/>
<path opacity="0.3" d="M286.4 228.71L290.34 225.71C290.51 225.587 290.715 225.521 290.925 225.521C291.135 225.521 291.34 225.587 291.51 225.71L302 234.14C302.074 234.19 302.135 234.258 302.177 234.338C302.219 234.417 302.241 234.505 302.241 234.595C302.241 234.685 302.219 234.773 302.177 234.852C302.135 234.932 302.074 235 302 235.05L298 238C297.83 238.123 297.625 238.189 297.415 238.189C297.205 238.189 297 238.123 296.83 238L286.36 229.62C286.288 229.566 286.23 229.496 286.191 229.415C286.153 229.334 286.135 229.244 286.139 229.154C286.143 229.065 286.169 228.977 286.214 228.9C286.26 228.822 286.324 228.757 286.4 228.71Z" fill="white"/>
<path opacity="0.4" d="M359 114.87C360.464 109.664 360.584 104.173 359.35 98.9081C358.117 93.6434 355.569 88.7771 351.945 84.7637C348.321 80.7503 343.739 77.7207 338.627 75.9577C333.515 74.1948 328.04 73.7559 322.713 74.6823C317.385 75.6086 312.379 77.8698 308.163 81.2548C303.946 84.6398 300.655 89.0382 298.599 94.0392C296.542 99.0403 295.787 104.481 296.402 109.853C297.018 115.225 298.985 120.354 302.12 124.76C303.245 126.298 304.013 128.068 304.37 129.94C304.779 132.215 305.817 134.33 307.367 136.045C308.917 137.759 310.917 139.005 313.14 139.64L323.33 142.53C325.555 143.164 327.913 143.16 330.136 142.518C332.358 141.876 334.356 140.622 335.9 138.9C337.168 137.5 338.738 136.406 340.49 135.7C344.946 133.848 348.926 131.013 352.131 127.406C355.337 123.798 357.685 119.513 359 114.87Z" fill="#7E57C2"/>
<path d="M324.65 150.46L307.91 145.7C307.304 145.525 306.792 145.118 306.484 144.568C306.177 144.017 306.1 143.367 306.27 142.76C306.357 142.454 306.504 142.168 306.703 141.92C306.902 141.671 307.148 141.465 307.427 141.312C307.706 141.16 308.013 141.064 308.329 141.031C308.645 140.998 308.965 141.028 309.27 141.12L326 145.88C326.606 146.055 327.118 146.462 327.425 147.012C327.733 147.563 327.81 148.213 327.64 148.82C327.554 149.126 327.408 149.411 327.21 149.659C327.012 149.908 326.767 150.114 326.489 150.267C326.211 150.42 325.905 150.515 325.589 150.549C325.273 150.582 324.954 150.552 324.65 150.46Z" fill="#7E57C2"/>
<path d="M321.13 156.65L307.65 152.82C307.043 152.643 306.531 152.234 306.224 151.682C305.917 151.13 305.84 150.479 306.01 149.87C306.185 149.264 306.591 148.752 307.142 148.445C307.693 148.137 308.343 148.06 308.95 148.23L322.43 152.07C323.036 152.245 323.548 152.652 323.855 153.202C324.163 153.753 324.24 154.403 324.07 155.01C323.895 155.616 323.488 156.128 322.938 156.435C322.387 156.743 321.737 156.82 321.13 156.65Z" fill="#7E57C2"/>
<path d="M323.37 143H323.28C323.15 142.976 323.034 142.901 322.957 142.793C322.881 142.685 322.849 142.551 322.87 142.42C323.03 141.42 325.64 126.06 330.6 114.47C329.22 114.21 327.73 113.86 326.13 113.41C324.53 112.96 323.07 112.47 321.76 111.96C319.89 124.42 314.01 138.87 313.64 139.8C313.59 139.923 313.492 140.022 313.369 140.073C313.247 140.125 313.108 140.125 312.985 140.075C312.862 140.025 312.763 139.927 312.712 139.804C312.66 139.682 312.66 139.543 312.71 139.42C312.8 139.19 318.92 124.14 320.8 111.57C311.09 107.57 309.65 102.33 309.52 100.06C309.412 98.8068 309.696 97.5509 310.331 96.4656C310.967 95.3802 311.924 94.5188 313.07 94C315.35 93.06 317.88 93.82 319.84 96C322.48 99 322.75 104.64 321.91 110.94C323.24 111.47 324.74 111.94 326.4 112.45C328.06 112.96 329.6 113.27 331.02 113.53C333.62 107.73 336.83 103.05 340.64 101.91C343.47 101.06 346.02 101.75 347.46 103.74C348.154 104.784 348.509 106.016 348.477 107.268C348.444 108.521 348.027 109.734 347.28 110.74C345.97 112.61 342.01 116.27 331.62 114.6C326.62 126.28 323.9 142.29 323.86 142.54C323.852 142.665 323.797 142.782 323.706 142.867C323.615 142.953 323.495 143 323.37 143ZM332.04 113.7C341.99 115.2 345.53 111.54 346.46 110.22C347.099 109.379 347.46 108.361 347.494 107.305C347.528 106.25 347.233 105.21 346.65 104.33C345.47 102.69 343.33 102.14 340.92 102.87C337.47 103.93 334.49 108.27 332 113.73L332.04 113.7ZM315 94.61C314.458 94.6095 313.921 94.7148 313.42 94.92C312.461 95.3626 311.663 96.0919 311.137 97.0072C310.61 97.9225 310.381 98.9787 310.48 100.03C310.58 101.65 311.66 106.62 320.92 110.57C321.7 104.64 321.45 99.39 319.06 96.69C318.569 96.0755 317.953 95.5722 317.254 95.2136C316.554 94.855 315.785 94.6493 315 94.61Z" fill="white"/>
<path opacity="0.3" d="M219.925 283.238C243.52 271.52 243.988 224.449 220.97 178.101C197.953 131.752 160.166 103.679 136.571 115.396C112.977 127.114 112.509 174.185 135.527 220.534C158.544 266.882 196.331 294.956 219.925 283.238Z" fill="#7E57C2"/>
<path d="M157.72 408.66L165.12 408.54L166.82 391.38L159.42 391.49L157.72 408.66Z" fill="#B55B52"/>
<path d="M108 395.15L115.05 397.39L123 381.94L115.95 379.7L108 395.15Z" fill="#B55B52"/>
<path opacity="0.2" d="M166.82 391.38L165.94 400.23L158.54 400.35L159.42 391.5L166.82 391.38Z" fill="black"/>
<path opacity="0.2" d="M115.94 379.7L123 381.94L118.9 389.9L111.84 387.67L115.94 379.7Z" fill="black"/>
<path d="M168.69 398.48L156.16 398.67C156.16 398.67 161.16 350 162.73 327C163.142 317.825 163.036 308.633 162.41 299.47C161.66 286.05 161.18 280.68 160.17 263.72C159.45 251.62 158.57 243.79 158.57 243.79L184.5 245.92C184.5 245.92 185.5 304.63 182.58 327.02C179.52 350.3 168.69 398.48 168.69 398.48Z" fill="#7E57C2"/>
<path opacity="0.2" d="M165.7 260.05C168.95 272.13 165.8 299.16 162.75 306.51C162.66 304.21 162.54 301.86 162.41 299.51C161.66 286.09 161.17 280.72 160.16 263.76C160.16 263.42 160.16 263.09 160.16 262.76C161.837 261.545 163.711 260.628 165.7 260.05Z" fill="black"/>
<path d="M170.51 244.77C170.51 244.77 158.51 305.09 152.51 325.92C145.95 348.74 122.68 389.31 122.68 389.31L109.76 385.22C109.76 385.22 124.64 350.87 130.13 328.39C136.39 302.77 145.05 242.68 145.05 242.68L170.51 244.77Z" fill="#7E57C2"/>
<path d="M116.55 396.9L108.39 393.06C108.256 392.997 108.105 392.982 107.962 393.016C107.818 393.051 107.691 393.133 107.6 393.25L103.49 398.58C103.39 398.711 103.32 398.862 103.287 399.024C103.253 399.185 103.257 399.352 103.297 399.512C103.338 399.672 103.414 399.82 103.52 399.946C103.626 400.072 103.76 400.173 103.91 400.24C106.56 401.42 108.54 402.17 111.85 403.72C113.85 404.72 118.61 407.1 121.42 408.42C124.23 409.74 125.86 407.2 124.87 406.34C120.46 402.52 118.4 400.08 117.45 397.82C117.275 397.412 116.954 397.084 116.55 396.9Z" fill="#263238"/>
<path d="M165.06 407.68L156.98 407.81C156.833 407.812 156.691 407.865 156.578 407.96C156.465 408.054 156.388 408.185 156.36 408.33L155 414.92C154.965 415.079 154.967 415.244 155.005 415.403C155.044 415.561 155.118 415.709 155.222 415.834C155.326 415.96 155.458 416.06 155.606 416.127C155.755 416.193 155.917 416.225 156.08 416.22C159 416.13 163.2 415.89 166.87 415.83C171.15 415.77 171.64 415.94 176.66 415.83C179.66 415.83 180.49 412.7 179.22 412.44C173.41 411.27 171.9 411.21 166.85 408.2C166.311 407.869 165.693 407.689 165.06 407.68Z" fill="#263238"/>
<path d="M151.74 177.43C161.036 176.749 170.378 177.084 179.6 178.43C182.346 178.867 184.861 180.224 186.733 182.28C188.605 184.335 189.722 186.966 189.9 189.74C190.53 199.49 190.31 218.65 185.72 254.59C180.02 257.09 155.14 254.68 142.92 250.84C143.58 246.73 147.45 213.57 144.61 185.84C144.513 184.817 144.622 183.785 144.929 182.805C145.237 181.824 145.738 180.916 146.403 180.132C147.067 179.348 147.882 178.705 148.798 178.241C149.715 177.777 150.715 177.501 151.74 177.43Z" fill="#263238"/>
<path d="M153.79 190.71L152.27 193.82C151.77 194.887 151.28 195.967 150.8 197.06C149.8 199.23 148.95 201.42 148.1 203.62C147.25 205.82 146.52 208.04 145.85 210.25C145.215 212.435 144.695 214.651 144.29 216.89L143.29 213.48C144.144 214.6 145.289 215.465 146.6 215.98C148.281 216.649 150.049 217.074 151.85 217.24C153.843 217.452 155.849 217.509 157.85 217.41C159.919 217.331 161.981 217.144 164.03 216.85H164.18C164.778 216.768 165.386 216.905 165.89 217.237C166.395 217.57 166.761 218.074 166.921 218.656C167.081 219.238 167.025 219.859 166.761 220.402C166.498 220.946 166.046 221.375 165.49 221.61C164.32 222.11 163.27 222.48 162.14 222.84C161.01 223.2 159.9 223.52 158.75 223.78C156.408 224.34 154.017 224.675 151.61 224.78C149.001 224.909 146.388 224.619 143.87 223.92C140.946 223.121 138.315 221.496 136.29 219.24C135.916 218.81 135.634 218.307 135.462 217.764C135.29 217.22 135.231 216.647 135.29 216.08V215.83C135.547 213.138 135.978 210.466 136.58 207.83C137.19 205.26 137.9 202.73 138.74 200.27C139.58 197.81 140.51 195.38 141.54 193.01C142.06 191.82 142.59 190.65 143.15 189.48C143.71 188.31 144.27 187.18 144.96 185.94C145.604 184.832 146.649 184.013 147.88 183.653C149.11 183.293 150.432 183.42 151.571 184.006C152.711 184.593 153.582 185.595 154.004 186.805C154.427 188.015 154.368 189.342 153.84 190.51L153.79 190.71Z" fill="#B55B52"/>
<path d="M161.59 217.35L165.59 212.86L172.14 218.86C172.14 218.86 167.69 223.8 162.97 221.21L161.59 217.35Z" fill="#B55B52"/>
<path d="M172.12 211.13L174.75 213.88C174.965 214.106 175.129 214.375 175.231 214.67C175.334 214.964 175.372 215.277 175.344 215.588C175.315 215.899 175.221 216.199 175.067 216.47C174.913 216.742 174.703 216.977 174.45 217.16L172.12 218.85L165.57 212.85L169.49 210.71C169.914 210.483 170.401 210.401 170.876 210.477C171.351 210.553 171.788 210.782 172.12 211.13Z" fill="#B55B52"/>
<path d="M148.18 178.59C142.18 182.27 136.18 201.8 136.18 201.8L151.98 207.6C154.906 202.963 157.102 197.904 158.49 192.6C160.88 183.55 154.81 174.54 148.18 178.59Z" fill="#263238"/>
<path d="M182.19 178.89C182.06 178.89 182.37 178.89 182.52 178.89L183.13 178.94C183.57 178.94 184.01 179 184.48 179C185.41 179 186.38 179 187.35 179C189.35 178.94 191.35 178.72 193.35 178.48C194.35 178.35 195.35 178.2 196.35 178.01C197.35 177.82 198.35 177.64 199.41 177.45L202.49 176.77L205.56 176.01L201.86 180.51C202.174 178.704 202.302 176.872 202.24 175.04C202.169 173.05 201.972 171.066 201.65 169.1C201.33 167.1 200.914 165.06 200.4 162.98C199.91 160.98 199.29 158.84 198.72 156.91L198.66 156.73C198.467 156.052 198.518 155.328 198.805 154.684C199.092 154.04 199.596 153.518 200.23 153.209C200.863 152.9 201.585 152.824 202.269 152.994C202.953 153.164 203.555 153.57 203.97 154.14C205.333 156.091 206.549 158.14 207.61 160.27C208.681 162.4 209.61 164.598 210.39 166.85C211.201 169.175 211.817 171.563 212.23 173.99C212.675 176.571 212.806 179.197 212.62 181.81C212.543 182.783 212.187 183.712 211.594 184.487C211.002 185.262 210.198 185.85 209.28 186.18L208.92 186.31L205.58 187.51C204.45 187.88 203.32 188.23 202.17 188.51C199.868 189.187 197.531 189.741 195.17 190.17C192.745 190.62 190.293 190.91 187.83 191.04C186.57 191.04 185.31 191.13 184 191.04C183.35 191.04 182.68 190.97 182 190.9L180.94 190.77C180.54 190.71 180.29 190.68 179.61 190.53C178.105 190.146 176.807 189.193 175.99 187.872C175.173 186.55 174.9 184.964 175.229 183.445C175.558 181.927 176.464 180.595 177.754 179.731C179.045 178.866 180.621 178.536 182.15 178.81L182.19 178.89Z" fill="#B55B52"/>
<path d="M197.73 156.73L194.82 151.85L203.32 149.34C203.32 149.34 205.06 153.26 204.32 155.95C204.167 156.465 203.865 156.924 203.452 157.269C203.04 157.614 202.535 157.83 202 157.89L200.48 158.08C199.94 158.145 199.393 158.052 198.905 157.813C198.417 157.573 198.009 157.197 197.73 156.73Z" fill="#B55B52"/>
<path d="M196.9 144.07L199.25 143.8C199.958 143.728 200.668 143.909 201.254 144.312C201.84 144.715 202.264 145.313 202.45 146L203.32 149.34L194.82 151.85L194.29 147.36C194.208 146.579 194.436 145.797 194.924 145.182C195.412 144.567 196.121 144.168 196.9 144.07Z" fill="#B55B52"/>
<path d="M173.09 177.1C180.09 177.71 195.31 175.96 195.31 175.96L196.19 195.08C191.013 196.767 185.462 196.941 180.19 195.58C171.07 193.26 165.36 176.43 173.09 177.1Z" fill="#263238"/>
<path d="M161.4 158.37C162.22 163.83 162.83 173.78 158.88 177.22C161.69 180.27 165.76 184.22 172.18 184.75C176.25 182.96 177.28 180.39 175.69 177.98C169.69 176.27 170.08 171.8 171.32 167.65L161.4 158.37Z" fill="#B55B52"/>
<path opacity="0.2" d="M165.45 162.16L171.32 167.64C171.015 168.619 170.794 169.623 170.66 170.64C168.38 170.21 165.33 167.53 165.19 165.11C165.088 164.119 165.176 163.118 165.45 162.16Z" fill="black"/>
<path d="M173.2 140C180.68 145 174.28 153 174.28 153C174.28 153 170.57 146.44 173.2 140Z" fill="white"/>
<path d="M157.45 152.54C159.23 159.66 159.91 163.92 164.23 166.94C170.74 171.49 179.02 166.54 179.41 159.03C179.75 152.27 176.78 141.75 169.2 140.19C167.528 139.833 165.792 139.911 164.158 140.417C162.525 140.922 161.048 141.838 159.869 143.077C158.691 144.316 157.849 145.836 157.426 147.493C157.002 149.15 157.011 150.887 157.45 152.54Z" fill="#B55B52"/>
<path opacity="0.2" d="M169.26 152.23C168.719 152.19 168.175 152.258 167.66 152.43C167.145 152.602 166.67 152.873 166.26 153.23C167.316 153.097 168.336 152.757 169.26 152.23Z" fill="black"/>
<path opacity="0.2" d="M169.45 153C168.964 153.067 168.498 153.24 168.085 153.506C167.672 153.772 167.322 154.125 167.06 154.54C167.958 154.204 168.773 153.679 169.45 153Z" fill="black"/>
<path opacity="0.2" d="M169.65 157.6C169.488 157.531 169.312 157.5 169.135 157.509C168.959 157.517 168.787 157.566 168.632 157.65C168.477 157.735 168.344 157.854 168.241 157.997C168.139 158.141 168.07 158.306 168.04 158.48C168.492 158.053 169.047 157.75 169.65 157.6Z" fill="black"/>
<path opacity="0.2" d="M173.89 144.62C171.302 144.886 168.745 145.392 166.25 146.13C170.54 145.42 173.89 144.62 173.89 144.62Z" fill="black"/>
<path opacity="0.2" d="M175.17 145.11C175.17 145.11 169.35 146.31 166.79 147.73C169.632 147.022 172.43 146.147 175.17 145.11Z" fill="black"/>
<path d="M159.47 157.51C162.47 157.21 161.13 152.62 159.97 151.58C162.3 150.58 164.26 146.67 162.63 144.58C171.26 145.25 176.19 144.33 176.85 136.58C174.38 137.08 171.78 134.58 168.46 136.91C168.702 136.429 168.842 135.904 168.871 135.367C168.9 134.83 168.819 134.293 168.631 133.789C168.443 133.285 168.154 132.825 167.78 132.438C167.406 132.051 166.957 131.745 166.46 131.54C166.46 131.54 165.92 136.54 162.13 137.29C158.34 138.04 154.33 140.7 154.08 143.5C153.18 141.19 152.25 141.04 152.25 141.04C152.676 141.905 152.898 142.856 152.898 143.82C152.898 144.784 152.676 145.735 152.25 146.6C150.83 149.79 153.25 150.84 153.25 150.84C153.25 150.84 150.15 150.84 152.1 155.02C153.54 157.94 158.8 161.69 159.47 157.51Z" fill="white"/>
<path d="M155.51 159.23C156.453 160.689 157.934 161.717 159.63 162.09C161.88 162.56 162.85 160.51 162.1 158.46C161.42 156.62 159.44 154.16 157.24 154.61C156.762 154.716 156.317 154.939 155.947 155.261C155.576 155.582 155.292 155.991 155.12 156.45C154.948 156.909 154.894 157.404 154.962 157.89C155.03 158.375 155.219 158.836 155.51 159.23Z" fill="#B55B52"/>
<path d="M124.15 390.08L108.94 385.26L110.38 380.72L127.47 384.53L124.15 390.08Z" fill="#7E57C2"/>
<path opacity="0.3" d="M124.15 390.08L108.94 385.26L110.38 380.72L127.47 384.53L124.15 390.08Z" fill="black"/>
<path d="M170.27 398.74L155.34 398.98L155.26 394.15L171.23 393.64L170.27 398.74Z" fill="#7E57C2"/>
<path opacity="0.3" d="M170.27 398.74L155.34 398.98L155.26 394.15L171.23 393.64L170.27 398.74Z" fill="black"/>
<path d="M169.87 152.31C169.96 152.9 170.34 153.31 170.73 153.31C171.12 153.31 171.36 152.73 171.27 152.14C171.18 151.55 170.8 151.14 170.41 151.14C170.02 151.14 169.78 151.72 169.87 152.31Z" fill="#263238"/>
<path d="M176.54 151.32C176.63 151.91 177.01 152.32 177.4 152.32C177.79 152.32 178.03 151.74 177.94 151.15C177.85 150.56 177.47 150.15 177.08 150.15C176.69 150.15 176.45 150.73 176.54 151.32Z" fill="#263238"/>
<path d="M174.47 151.92C175.439 153.622 176.64 155.181 178.04 156.55C177.68 156.898 177.248 157.164 176.775 157.328C176.302 157.492 175.799 157.551 175.3 157.5L174.47 151.92Z" fill="#A02724"/>
<path d="M173.13 159.77C172.467 159.872 171.79 159.836 171.141 159.664C170.492 159.492 169.886 159.187 169.36 158.77C169.343 158.755 169.329 158.737 169.319 158.716C169.309 158.696 169.303 158.673 169.302 158.651C169.301 158.628 169.304 158.605 169.311 158.583C169.319 158.562 169.33 158.542 169.345 158.525C169.36 158.508 169.379 158.494 169.399 158.484C169.42 158.474 169.442 158.468 169.465 158.467C169.487 158.465 169.51 158.468 169.532 158.476C169.553 158.483 169.573 158.495 169.59 158.51C170.186 158.953 170.878 159.248 171.609 159.373C172.341 159.499 173.091 159.449 173.8 159.23C173.822 159.224 173.845 159.222 173.867 159.225C173.889 159.228 173.911 159.235 173.93 159.246C173.95 159.257 173.967 159.272 173.981 159.29C173.994 159.308 174.005 159.328 174.01 159.35C174.018 159.372 174.021 159.396 174.019 159.419C174.017 159.443 174.01 159.466 173.999 159.486C173.987 159.507 173.972 159.525 173.953 159.54C173.935 159.554 173.913 159.564 173.89 159.57C173.642 159.655 173.388 159.722 173.13 159.77Z" fill="#263238"/>
<path d="M166.31 150.76C166.254 150.775 166.196 150.775 166.14 150.76C166.098 150.741 166.06 150.713 166.028 150.679C165.997 150.644 165.973 150.604 165.958 150.56C165.943 150.516 165.937 150.469 165.941 150.423C165.945 150.376 165.958 150.331 165.98 150.29C166.218 149.788 166.573 149.35 167.015 149.012C167.457 148.675 167.973 148.448 168.52 148.35C168.612 148.341 168.705 148.369 168.777 148.427C168.85 148.484 168.898 148.568 168.91 148.66C168.919 148.752 168.891 148.845 168.833 148.917C168.776 148.99 168.692 149.037 168.6 149.05C168.165 149.129 167.756 149.312 167.408 149.584C167.059 149.855 166.782 150.208 166.6 150.61C166.566 150.655 166.522 150.692 166.472 150.718C166.422 150.744 166.366 150.758 166.31 150.76Z" fill="white"/>
<path d="M177.82 148.48C177.763 148.483 177.705 148.472 177.653 148.448C177.6 148.423 177.555 148.386 177.52 148.34C177.27 147.978 176.938 147.68 176.55 147.471C176.162 147.263 175.731 147.149 175.29 147.14C175.198 147.14 175.109 147.103 175.043 147.037C174.977 146.972 174.94 146.883 174.94 146.79C174.94 146.697 174.977 146.608 175.043 146.543C175.109 146.477 175.198 146.44 175.29 146.44C175.846 146.443 176.393 146.579 176.885 146.836C177.378 147.094 177.801 147.465 178.12 147.92C178.148 147.957 178.168 147.999 178.179 148.043C178.191 148.088 178.193 148.134 178.187 148.18C178.18 148.225 178.165 148.269 178.142 148.308C178.118 148.348 178.087 148.382 178.05 148.41C177.984 148.458 177.903 148.483 177.82 148.48Z" fill="white"/>
<path d="M118.22 399.11C117.634 398.817 117.084 398.458 116.58 398.04C116.552 398.02 116.531 397.992 116.52 397.96C116.51 397.927 116.509 397.892 116.52 397.86C116.529 397.826 116.549 397.796 116.575 397.772C116.602 397.749 116.635 397.735 116.67 397.73C116.98 397.73 119.77 397.38 120.33 398.11C120.393 398.191 120.433 398.289 120.443 398.391C120.454 398.494 120.435 398.597 120.39 398.69C120.334 398.853 120.24 399.001 120.114 399.119C119.989 399.238 119.836 399.324 119.67 399.37C119.171 399.448 118.66 399.357 118.22 399.11ZM117.14 398C117.795 398.633 118.669 398.991 119.58 399C119.693 398.968 119.796 398.908 119.88 398.826C119.964 398.744 120.026 398.642 120.06 398.53C120.06 398.4 120.06 398.34 120.06 398.3C119.76 398 118.26 397.94 117.14 398Z" fill="#7E57C2"/>
<path d="M116.61 398.07C116.582 398.052 116.558 398.028 116.54 398C116.525 397.972 116.518 397.941 116.518 397.91C116.518 397.879 116.525 397.848 116.54 397.82C116.54 397.74 117.65 395.89 118.73 395.61C118.86 395.574 118.995 395.566 119.128 395.586C119.261 395.607 119.388 395.656 119.5 395.73C119.616 395.789 119.71 395.885 119.766 396.002C119.822 396.12 119.838 396.253 119.81 396.38C119.6 397.19 117.57 398.03 116.7 398.08L116.61 398.07ZM119.24 395.99C119.101 395.94 118.949 395.94 118.81 395.99C118.12 396.17 117.38 397.19 117.04 397.72C117.97 397.52 119.34 396.81 119.47 396.33C119.47 396.33 119.47 396.19 119.31 396.06L119.24 395.99Z" fill="#7E57C2"/>
<path d="M165.8 408.69C165.771 408.68 165.744 408.664 165.723 408.641C165.702 408.618 165.688 408.59 165.68 408.56C165.676 408.523 165.683 408.486 165.698 408.452C165.714 408.419 165.739 408.39 165.77 408.37C166.1 408.2 169.06 406.64 169.96 407.13C170.047 407.173 170.121 407.238 170.173 407.319C170.226 407.4 170.256 407.493 170.26 407.59C170.28 407.748 170.261 407.909 170.205 408.059C170.149 408.208 170.059 408.343 169.94 408.45C169.14 409.18 167.02 408.92 165.82 408.7L165.8 408.69ZM169.73 407.41C169.17 407.22 167.57 407.86 166.4 408.41C168.04 408.66 169.26 408.57 169.71 408.16C169.786 408.087 169.844 407.998 169.878 407.899C169.913 407.8 169.924 407.694 169.91 407.59C169.912 407.552 169.902 407.515 169.883 407.483C169.863 407.451 169.835 407.426 169.8 407.41H169.73Z" fill="#7E57C2"/>
<path d="M165.8 408.69H165.75C165.724 408.673 165.704 408.649 165.692 408.62C165.679 408.592 165.675 408.561 165.68 408.53C165.68 408.45 165.85 406.45 166.78 405.67C166.916 405.55 167.074 405.46 167.247 405.405C167.419 405.349 167.601 405.331 167.78 405.35C168.26 405.35 168.41 405.63 168.44 405.83C168.59 406.67 166.85 408.29 165.96 408.71C165.935 408.722 165.906 408.727 165.877 408.723C165.849 408.72 165.822 408.708 165.8 408.69ZM167.9 405.69H167.72C167.593 405.678 167.464 405.692 167.342 405.732C167.219 405.771 167.107 405.835 167.01 405.92C166.467 406.571 166.138 407.375 166.07 408.22C166.97 407.66 168.15 406.38 168.07 405.88C168.06 405.84 168.05 405.76 167.9 405.71V405.69Z" fill="#7E57C2"/>
<path d="M101.65 161.26C100.466 150.653 101.009 139.923 103.26 129.49L104.26 129.72C102.036 140.049 101.499 150.67 102.67 161.17L101.65 161.26ZM106.65 121.64L105.72 121.3C106.643 118.793 107.739 116.354 109 114L109.89 114.47C108.641 116.783 107.552 119.178 106.63 121.64H106.65Z" fill="#7E57C2"/>
<path d="M136.91 96.4C170.19 89.75 215.12 127.94 237.28 181.69C259.44 235.44 250.43 284.41 217.17 291.05C183.91 297.69 139 259.51 116.8 205.76C94.6 152.01 103.65 103 136.91 96.4ZM134.29 202.27C153.87 249.78 191.29 284 217.75 278.7C244.21 273.4 249.87 230.6 230.29 183.09C210.71 135.58 173.29 101.35 146.82 106.65C120.35 111.95 114.7 154.75 134.29 202.27ZM107.6 176.4C109.68 172.75 121.99 167.89 124.71 170.6L107.6 176.4ZM231.71 270.67C234.84 270.29 237.92 277.83 235.83 280.62L231.71 270.67ZM185.3 120.07C187.4 119.5 189.24 116.61 189.49 114.92L185.3 120.07Z" fill="white"/>
<path d="M209.45 292.3C177.08 292.3 136.86 255.73 116.34 205.95C102.06 171.33 100.25 136.64 111.6 115.42C117.27 104.82 125.99 98.07 136.81 95.91C170.25 89.23 215.53 127.62 237.74 181.5C252.01 216.13 253.83 250.82 242.47 272.03C240.778 275.238 238.681 278.216 236.23 280.89C231.219 286.365 224.584 290.087 217.3 291.51C214.716 292.033 212.087 292.298 209.45 292.3ZM108.16 176.45C110.311 186.411 113.357 196.157 117.26 205.57C139.26 259.02 184.07 297.15 217.07 290.57C224.144 289.185 230.588 285.572 235.46 280.26C236.46 278.73 235.87 275.57 234.65 273.47C233.81 272.01 232.8 271.17 231.9 271.17C228.21 275.292 223.278 278.1 217.85 279.17C191.16 284.52 153.47 250.08 133.85 202.44C129.609 192.254 126.403 181.667 124.28 170.84C123.64 170.32 122.35 170.17 120.61 170.4C116 171 109.76 174.08 108.16 176.45ZM134.75 202.08C154.22 249.3 191.41 283.46 217.66 278.21C225.38 276.67 231.4 271.95 235.56 264.21C245.18 246.21 242.98 215.21 229.82 183.32C210.35 136.09 173.17 101.94 146.92 107.18C139.19 108.72 133.16 113.45 129 121.18C119.39 139.16 121.59 170.15 134.75 202.08ZM232.67 270.28C233.919 270.791 234.934 271.745 235.52 272.96C236.511 274.637 237.023 276.553 237 278.5C238.765 276.347 240.309 274.022 241.61 271.56C252.83 250.61 251 216.24 236.84 181.88C225.57 154.54 208.34 131.21 189.84 115.82C189.197 117.656 187.944 119.216 186.29 120.24C203.38 133.99 219.88 156.4 230.81 182.9C244.08 215.09 246.26 246.41 236.51 264.64C235.424 266.645 234.137 268.534 232.67 270.28ZM137 96.89C126.48 98.99 118 105.56 112.47 115.89C104.6 130.6 103.15 151.89 107.89 175.18C110.33 172.58 116.34 169.97 120.44 169.42C121.628 169.2 122.851 169.262 124.01 169.6C120.47 150 121.76 132.6 128.11 120.7C132.36 112.76 138.79 107.7 146.71 106.15C158.3 103.84 171.97 109.02 185.33 119.53C187.01 118.94 188.56 116.62 188.93 115.12C171.46 100.89 152.87 93.72 137 96.89Z" fill="#7E57C2"/>
<path d="M182.08 153.25L213.25 150.03L212.51 144.37L181.56 149.25L182.08 153.25Z" fill="#7E57C2"/>
<path opacity="0.2" d="M199.56 146.41L200.21 151.37L213.24 150.03L212.5 144.37L199.56 146.41Z" fill="black"/>
<path d="M201.89 151.08C201.93 151.315 202.053 151.527 202.237 151.68C202.42 151.832 202.652 151.913 202.89 151.91L239.04 148.57C240.48 148.38 239.25 138.97 237.82 139.16L202.01 145.16C201.77 145.21 201.557 145.347 201.411 145.545C201.266 145.742 201.198 145.986 201.22 146.23L201.89 151.08Z" fill="#7E57C2"/>
<path d="M182.19 154.07C182.353 154.05 182.502 153.966 182.603 153.837C182.704 153.707 182.75 153.543 182.73 153.38L182.15 148.96C182.128 148.796 182.042 148.648 181.911 148.547C181.78 148.446 181.614 148.4 181.45 148.42C181.288 148.445 181.142 148.532 181.043 148.662C180.944 148.793 180.9 148.957 180.92 149.12L181.5 153.54C181.51 153.62 181.536 153.698 181.576 153.768C181.616 153.839 181.67 153.9 181.734 153.95C181.798 153.999 181.872 154.035 181.95 154.056C182.028 154.076 182.11 154.081 182.19 154.07Z" fill="#7E57C2"/>
<path d="M312.61 305.21C312.675 304.951 312.84 304.729 313.069 304.592C313.298 304.455 313.571 304.415 313.83 304.48C314.089 304.545 314.311 304.71 314.448 304.939C314.585 305.168 314.625 305.441 314.56 305.7C314.714 308.825 314.023 311.934 312.56 314.7C309.4 320.13 302.83 322.06 302.83 322.06L312.61 305.21Z" fill="#7E57C2"/>
<path d="M304.51 333.81C298.95 333.889 293.52 332.131 289.06 328.81C285.429 325.769 282.522 321.956 280.55 317.65C280.465 317.546 280.402 317.427 280.364 317.299C280.325 317.17 280.312 317.036 280.325 316.902C280.339 316.769 280.379 316.64 280.442 316.522C280.505 316.404 280.591 316.3 280.695 316.215C280.799 316.13 280.918 316.067 281.047 316.028C281.175 315.99 281.309 315.977 281.443 315.99C281.576 316.004 281.705 316.043 281.823 316.107C281.941 316.17 282.045 316.256 282.13 316.36L304.51 333.81Z" fill="#7E57C2"/>
<path d="M323.41 346.4C317.62 354.92 306.61 357.31 306.61 357.31L325.87 329C325.963 328.77 326.138 328.582 326.362 328.474C326.585 328.366 326.841 328.344 327.079 328.414C327.317 328.484 327.521 328.64 327.651 328.852C327.78 329.064 327.827 329.316 327.78 329.56C327.85 333.49 327.34 340.61 323.41 346.4Z" fill="#7E57C2"/>
<path d="M306.37 392.17H306.31C306.251 392.163 306.194 392.144 306.143 392.114C306.092 392.084 306.047 392.044 306.011 391.996C305.976 391.948 305.95 391.894 305.936 391.836C305.923 391.779 305.92 391.719 305.93 391.66C308.93 370.42 303.44 313.76 297 299.8C296.975 299.746 296.961 299.688 296.959 299.629C296.956 299.569 296.966 299.51 296.986 299.454C297.007 299.399 297.038 299.348 297.078 299.304C297.118 299.26 297.167 299.225 297.22 299.2C297.274 299.175 297.332 299.161 297.392 299.158C297.451 299.156 297.51 299.165 297.566 299.186C297.622 299.206 297.673 299.237 297.716 299.278C297.76 299.318 297.795 299.366 297.82 299.42C304.31 313.42 309.82 370.42 306.82 391.79C306.804 391.897 306.749 391.994 306.666 392.064C306.584 392.134 306.479 392.171 306.37 392.17Z" fill="#263238"/>
<path d="M293.82 367H318.92C319.234 366.999 319.544 367.063 319.831 367.188C320.119 367.314 320.377 367.497 320.589 367.728C320.802 367.958 320.964 368.23 321.066 368.527C321.168 368.823 321.206 369.138 321.18 369.45L317.63 414.3C317.585 414.868 317.327 415.397 316.908 415.783C316.489 416.169 315.94 416.382 315.37 416.38H297.37C296.801 416.382 296.252 416.169 295.832 415.783C295.413 415.397 295.155 414.868 295.11 414.3L291.55 369.45C291.525 369.137 291.565 368.822 291.668 368.526C291.771 368.229 291.935 367.957 292.148 367.727C292.361 367.497 292.62 367.313 292.908 367.188C293.196 367.063 293.506 366.999 293.82 367Z" fill="#7E57C2"/>
<path d="M293.68 302.11C294.177 302.849 294.881 303.424 295.705 303.763C296.528 304.102 297.434 304.188 298.306 304.012C299.179 303.836 299.98 303.405 300.608 302.773C301.235 302.142 301.662 301.338 301.832 300.465C302.003 299.591 301.911 298.686 301.567 297.865C301.224 297.043 300.644 296.342 299.902 295.85C299.16 295.358 298.289 295.098 297.398 295.101C296.508 295.105 295.639 295.372 294.9 295.87C293.912 296.536 293.228 297.568 293 298.738C292.771 299.908 293.016 301.12 293.68 302.11Z" fill="white"/>
<path d="M297.42 304.7C296.198 304.702 295.015 304.265 294.088 303.468C293.16 302.672 292.55 301.569 292.368 300.36C292.186 299.151 292.444 297.917 293.095 296.882C293.747 295.848 294.748 295.082 295.917 294.724C297.086 294.366 298.345 294.439 299.464 294.931C300.583 295.423 301.488 296.301 302.014 297.405C302.541 298.508 302.653 299.764 302.331 300.943C302.009 302.123 301.274 303.147 300.26 303.83C299.421 304.395 298.432 304.698 297.42 304.7ZM297.42 295.7C296.553 295.703 295.711 295.995 295.029 296.53C294.347 297.066 293.864 297.814 293.655 298.656C293.447 299.498 293.526 300.385 293.88 301.177C294.234 301.968 294.842 302.619 295.608 303.026C296.374 303.432 297.253 303.571 298.107 303.421C298.961 303.27 299.741 302.838 300.321 302.194C300.902 301.55 301.25 300.73 301.312 299.865C301.373 299 301.144 298.14 300.66 297.42C300.299 296.889 299.813 296.456 299.244 296.157C298.675 295.859 298.042 295.705 297.4 295.71L297.42 295.7Z" fill="#7E57C2"/>
<path d="M297.73 314.88C297.767 315.254 297.914 315.608 298.153 315.898C298.391 316.188 298.71 316.401 299.07 316.51C299.429 316.619 299.812 316.619 300.172 316.51C300.531 316.401 300.85 316.188 301.088 315.898C301.327 315.608 301.474 315.254 301.511 314.88C301.549 314.507 301.474 314.13 301.298 313.799C301.122 313.467 300.851 313.196 300.52 313.018C300.19 312.84 299.814 312.764 299.44 312.8C299.191 312.824 298.949 312.897 298.728 313.014C298.507 313.132 298.312 313.292 298.153 313.485C297.994 313.678 297.875 313.901 297.802 314.14C297.73 314.38 297.705 314.631 297.73 314.88Z" fill="#263238"/>
<path d="M302.63 353.47C302.63 353.846 302.742 354.213 302.951 354.526C303.159 354.838 303.456 355.082 303.803 355.225C304.15 355.369 304.532 355.407 304.901 355.333C305.27 355.26 305.608 355.079 305.874 354.814C306.14 354.548 306.321 354.209 306.394 353.841C306.467 353.472 306.43 353.09 306.286 352.743C306.142 352.396 305.898 352.099 305.586 351.89C305.273 351.681 304.906 351.57 304.53 351.57C304.026 351.57 303.543 351.77 303.187 352.126C302.831 352.483 302.63 352.966 302.63 353.47Z" fill="#263238"/>
<path d="M308.22 341.15C308.772 341.07 309.287 340.828 309.7 340.455C310.114 340.082 310.409 339.595 310.546 339.055C310.683 338.516 310.658 337.947 310.473 337.422C310.287 336.896 309.951 336.438 309.505 336.104C309.06 335.769 308.525 335.575 307.969 335.544C307.413 335.513 306.86 335.648 306.38 335.931C305.9 336.214 305.515 336.633 305.273 337.134C305.031 337.636 304.943 338.198 305.02 338.75C305.127 339.492 305.524 340.162 306.124 340.612C306.724 341.062 307.478 341.256 308.22 341.15Z" fill="#263238"/>
</svg>
