<svg width="54" height="23" viewBox="0 0 54 23" fill="none" xmlns="http://www.w3.org/2000/svg">
<path d="M0 0.699951V2.17268H10.4187V0.699951H0ZM11.9419 0.699951V2.17268H26.8084C26.8084 2.17268 25.2852 0.699951 23.2746 0.699951H11.9419ZM29.733 0.699951V2.17268H38.7504L38.1411 0.699951H29.733ZM45.1479 0.699951L44.5995 2.17268H53.495V0.699951H45.1479ZM0 3.58404V5.05677H10.4187V3.58404H0ZM11.9419 3.58404V5.05677H28.5144C28.5144 5.05677 28.3317 3.89086 27.9661 3.58404H11.9419ZM29.733 3.58404V5.05677H39.7252L39.2378 3.58404H29.733ZM44.1121 3.58404L43.6246 5.05677H53.556V3.58404H44.1121ZM2.98549 6.46813V7.94086H7.49418V6.46813H2.98549ZM14.9274 6.46813V7.94086H19.4361V6.46813H14.9274ZM23.823 6.46813V7.94086H28.3316C28.3316 7.94086 28.6363 7.14313 28.6363 6.46813H23.823ZM32.7185 6.46813V7.94086H40.761L40.2127 6.46813H32.7185ZM43.0763 6.46813L42.5279 7.94086H50.5705V6.46813H43.0763ZM2.98549 9.35222V10.825H7.49418V9.35222H2.98549ZM14.9274 9.35222V10.825H26.4429C26.4429 10.825 27.4177 10.0886 27.7224 9.35222H14.9274ZM32.7185 9.35222V10.825H37.2272V10.0272L37.5318 10.825H45.8181L46.1227 10.0272V10.825H50.6314V9.35222H42.1624L41.7359 10.5795L41.3094 9.35222H32.7185ZM2.98549 12.175V13.6477H7.49418V12.175H2.98549ZM14.9274 12.175V13.6477H27.7224C27.4177 12.9113 26.4429 12.175 26.4429 12.175H14.9274ZM32.7185 12.175V13.6477H37.2272V12.175H32.7185ZM38.0192 12.175L38.5676 13.6477H44.7823L45.3306 12.175H38.0192ZM46.1227 12.175V13.6477H50.6314V12.175H46.1227ZM2.98549 15.059V16.5318H7.49418V15.059H2.98549ZM14.9274 15.059V16.5318H19.4361V15.059H14.9274ZM23.823 15.059V16.5318H28.6363C28.6363 15.8568 28.3316 15.059 28.3316 15.059H23.823ZM32.7185 15.059V16.5318H37.2272V15.059H32.7185ZM39.055 15.059L39.6034 16.5318H43.7465L44.2949 15.059H39.055ZM46.1227 15.059V16.5318H50.6314V15.059H46.1227ZM0.0609283 17.9431V19.4159H10.4797V17.9431H0.0609283ZM11.9419 17.9431V19.4159H28.027C28.3926 19.0477 28.5754 17.9431 28.5754 17.9431H11.9419ZM29.7939 17.9431V19.4159H37.2272V17.9431H29.7939ZM40.0908 17.9431L40.6392 19.4159H42.7717L43.2591 17.9431H40.0908ZM46.1227 17.9431V19.4159H53.6169V17.9431H46.1227ZM0.0609283 20.8272V22.3H10.4797V20.8272H0.0609283ZM11.9419 20.8272V22.3H23.2746C25.2852 22.3 26.8084 20.8272 26.8084 20.8272H11.9419ZM29.7939 20.8272V22.3H37.2272V20.8272H29.7939ZM41.1266 20.8272L41.6749 22.3H41.7359L42.2842 20.8272H41.1266ZM46.1227 20.8272V22.3H53.6169V20.8272H46.1227Z" fill="#BCBCBC"/>
</svg>
