<svg width="91" height="27" viewBox="0 0 91 27" fill="none" xmlns="http://www.w3.org/2000/svg">
<path d="M14.2763 0C6.8731 0 0.87207 6.04391 0.87207 13.5C0.87207 20.9561 6.8731 27 14.2763 27C21.6795 27 27.6805 20.9561 27.6805 13.5C27.6805 6.04483 21.6795 0.000921187 14.2763 0ZM20.4237 19.4702C20.1831 19.8682 19.6682 19.9925 19.2749 19.7503C16.1275 17.813 12.1653 17.3754 7.49964 18.4486C7.04963 18.5527 6.60145 18.269 6.49901 17.8158C6.39565 17.3625 6.67645 16.9112 7.12737 16.808C12.233 15.6335 16.6132 16.1392 20.1465 18.3132C20.5398 18.5573 20.6651 19.0741 20.4237 19.4702ZM22.0636 15.7956C21.7609 16.2912 21.117 16.446 20.6258 16.142C17.0239 13.9118 11.5305 13.266 7.26914 14.5686C6.71669 14.7372 6.13315 14.423 5.96485 13.8676C5.79838 13.3112 6.11028 12.7244 6.66182 12.5549C11.5296 11.0671 17.5818 11.7875 21.7188 14.3484C22.2109 14.6533 22.3664 15.3009 22.0636 15.7956ZM22.2045 11.9671C17.8837 9.38321 10.7567 9.14555 6.63163 10.4057C5.96942 10.6084 5.2688 10.2316 5.06849 9.56469C4.86818 8.89775 5.24136 8.19212 5.90448 7.98946C10.6396 6.54227 18.5102 6.82139 23.4841 9.79498C24.0795 10.1515 24.2753 10.9262 23.9222 11.525C23.5701 12.1256 22.799 12.3236 22.2045 11.9671ZM37.3401 12.4627C35.0261 11.9073 34.6136 11.5167 34.6136 10.6968C34.6136 9.92211 35.338 9.40164 36.4145 9.40164C37.4581 9.40164 38.4926 9.79775 39.5783 10.6121C39.6112 10.6369 39.6524 10.6462 39.6926 10.6397C39.7329 10.6333 39.7686 10.6112 39.7923 10.5771L40.9219 8.97236C40.9686 8.90604 40.9558 8.81484 40.8936 8.7651C39.6021 7.72139 38.1487 7.21382 36.4484 7.21382C33.9495 7.21382 32.2044 8.72456 32.2044 10.8847C32.2044 13.2025 33.7099 14.0223 36.3121 14.6561C38.5265 15.1701 38.9005 15.6003 38.9005 16.3695C38.9005 17.2225 38.145 17.7522 36.9286 17.7522C35.5776 17.7522 34.4755 17.2934 33.2434 16.2184C33.2132 16.1917 33.1712 16.1797 33.1318 16.1816C33.0907 16.1853 33.0541 16.2037 33.0276 16.235L31.7608 17.754C31.7077 17.8167 31.7141 17.9116 31.7754 17.9659C33.2096 19.2556 34.973 19.9363 36.8773 19.9363C39.5701 19.9363 41.3098 18.4541 41.3098 16.1613C41.3143 14.225 40.1637 13.1527 37.3447 12.4627H37.3401ZM47.4022 10.1644C46.2351 10.1644 45.2775 10.6277 44.4882 11.5756V10.508C44.4882 10.4232 44.4205 10.3551 44.3363 10.3551H42.2637C42.1796 10.3551 42.1119 10.4242 42.1119 10.508V22.3729C42.1119 22.4576 42.1796 22.5258 42.2637 22.5258H44.3363C44.4196 22.5258 44.4882 22.4567 44.4882 22.3729V18.6273C45.2775 19.52 46.2351 19.9557 47.4022 19.9557C49.5709 19.9557 51.766 18.2745 51.766 15.0605C51.7697 11.8455 49.5727 10.1635 47.4041 10.1635L47.4022 10.1644ZM49.3568 15.0605C49.3568 16.6974 48.3562 17.8397 46.922 17.8397C45.5052 17.8397 44.436 16.6459 44.436 15.0605C44.436 13.476 45.5052 12.2813 46.922 12.2813C48.3324 12.2813 49.3568 13.4503 49.3568 15.0605ZM57.393 10.1644C54.5996 10.1644 52.4118 12.3301 52.4118 15.0964C52.4118 17.8323 54.585 19.975 57.3582 19.975C60.1607 19.975 62.3559 17.8167 62.3559 15.0614C62.3568 12.3154 60.1763 10.1644 57.393 10.1644ZM57.393 17.8554C55.9076 17.8554 54.7871 16.6532 54.7871 15.0596C54.7871 13.4585 55.8683 12.2978 57.3582 12.2978C58.8537 12.2978 59.9805 13.5 59.9805 15.0946C59.9814 16.6947 58.893 17.8554 57.393 17.8554ZM68.3212 10.3551H66.041V8.00696C66.041 7.92313 65.9733 7.85404 65.8901 7.85404H63.8184C63.7343 7.85404 63.6666 7.92313 63.6666 8.00696V10.3551H62.6705C62.5873 10.3551 62.5196 10.4242 62.5196 10.508V12.3015C62.5196 12.3854 62.5873 12.4545 62.6705 12.4545H63.6666V17.0954C63.6666 18.9709 64.5931 19.9216 66.4215 19.9216C67.1651 19.9216 67.7816 19.7668 68.3624 19.4352C68.41 19.4085 68.4392 19.3569 68.4392 19.3026V17.5947C68.4392 17.5422 68.4118 17.4924 68.367 17.4648C68.3221 17.4362 68.2654 17.4344 68.2197 17.4574C67.8209 17.6601 67.4349 17.7531 67.0032 17.7531C66.3383 17.7531 66.0419 17.4491 66.0419 16.7675V12.4545H68.3221C68.4063 12.4545 68.4731 12.3854 68.4731 12.3015V10.508C68.4767 10.4232 68.409 10.3551 68.324 10.3551H68.3212ZM76.2668 10.3643V10.0759C76.2668 9.22753 76.5897 8.84892 77.3141 8.84892C77.7458 8.84892 78.0934 8.93552 78.4821 9.06633C78.5297 9.08106 78.58 9.0737 78.6184 9.04514C78.6586 9.01658 78.6806 8.9696 78.6806 8.92078V7.16131C78.6806 7.09406 78.6376 7.03419 78.5736 7.01484C78.1629 6.8914 77.6379 6.7652 76.8513 6.7652C74.9369 6.7652 73.9253 7.85036 73.9253 9.90368V10.3449H72.9292C72.846 10.3449 72.7774 10.414 72.7774 10.4978V12.3006C72.7774 12.3844 72.846 12.4535 72.9292 12.4535H73.9253V19.613C73.9253 19.6977 73.993 19.7659 74.0762 19.7659H76.1488C76.233 19.7659 76.3007 19.6968 76.3007 19.613V12.4545H78.2351L81.1986 19.6121C80.862 20.3638 80.5309 20.5139 80.08 20.5139C79.715 20.5139 79.33 20.4043 78.9376 20.1878C78.901 20.1676 78.8571 20.1639 78.8169 20.1768C78.7775 20.1906 78.7437 20.2201 78.7272 20.2588L78.0248 21.811C77.9909 21.8846 78.0202 21.9703 78.0897 22.0081C78.8233 22.4079 79.4846 22.5783 80.3032 22.5783C81.8334 22.5783 82.6794 21.8607 83.4249 19.929L87.0204 10.5725C87.0387 10.5255 87.0332 10.4721 87.0039 10.4306C86.9756 10.3892 86.9298 10.3643 86.8795 10.3643H84.7219C84.6569 10.3643 84.5993 10.4057 84.5783 10.4665L82.3684 16.8246L79.9474 10.4628C79.9254 10.4039 79.8687 10.3643 79.8056 10.3643H76.2668ZM71.6597 10.3551H69.5871C69.503 10.3551 69.4353 10.4242 69.4353 10.508V19.6139C69.4353 19.6987 69.5039 19.7668 69.5871 19.7668H71.6597C71.7429 19.7668 71.8115 19.6977 71.8115 19.6139V10.5089C71.8115 10.4242 71.7439 10.356 71.6597 10.3551C71.6606 10.3551 71.6597 10.3551 71.6597 10.3551ZM70.6353 6.2088C69.8139 6.2088 69.1481 6.87851 69.1481 7.70481C69.1481 8.53204 69.8149 9.20266 70.6353 9.20266C71.4557 9.20266 72.1216 8.53296 72.1216 7.70481C72.1216 6.87851 71.4557 6.2088 70.6353 6.2088ZM88.7902 13.2826C87.9698 13.2826 87.3323 12.6193 87.3323 11.8133C87.3323 11.0073 87.9789 10.3366 88.7985 10.3366C89.6189 10.3366 90.2564 10.9999 90.2564 11.805C90.2555 12.6111 89.6088 13.2826 88.7902 13.2826ZM88.7975 10.4831C88.0503 10.4831 87.485 11.081 87.485 11.8133C87.485 12.5456 88.0466 13.1352 88.7893 13.1352C89.5366 13.1352 90.1018 12.5374 90.1018 11.805C90.1028 11.0736 89.5412 10.4831 88.7975 10.4831ZM89.1213 11.9561L89.5338 12.5374H89.1863L88.8149 12.004H88.4957V12.5374H88.2048V10.9953H88.8872C89.243 10.9953 89.4771 11.1786 89.4771 11.4872C89.479 11.7396 89.3326 11.8944 89.1232 11.9552L89.1213 11.9561ZM88.8744 11.2606H88.4948V11.7479H88.8744C89.0637 11.7479 89.1771 11.6549 89.1771 11.5038C89.1771 11.3453 89.0637 11.2606 88.8744 11.2606Z" fill="#BCBCBC"/>
</svg>
