<svg width="66" height="27" viewBox="0 0 66 27" fill="none" xmlns="http://www.w3.org/2000/svg">
<path d="M12.7258 0.27931H19.9672V26.6897H12.7258V16.9138H8.10367V26.6897H0.862305V0.27931H8.10367V10.2414H12.7258V0.27931ZM65.8805 13.5C65.8805 20.9483 59.8717 27 52.4763 27C46.791 27 41.9224 23.4155 39.9811 18.3879C39.9965 18.5586 39.9965 18.7448 39.9965 18.931C39.9965 27 33.0633 26.6897 33.0633 26.6897H21.5079V0.27931H32.601C34.604 0.27931 40.3046 1.38103 40.3046 7.02931C40.3046 7.33965 40.2892 7.63448 40.2738 7.91379C42.3846 3.2431 47.0683 0 52.4763 0C59.8717 0 65.8805 6.05172 65.8805 13.5ZM33.3714 18.3103C33.3714 16.4483 31.8307 16.4483 31.8307 16.4483H27.9789V20.4828H31.8307C31.8307 20.4828 33.3714 20.3276 33.3714 18.3103ZM33.3714 8.61207C33.3714 6.70345 31.8307 6.71896 31.8307 6.71896H27.9789V10.7069H31.8307C31.8307 10.7069 33.3714 10.5207 33.3714 8.61207ZM39.2415 15.6103C39.1337 14.9276 39.072 14.2138 39.072 13.5C39.072 12.7862 39.1337 12.1034 39.2261 11.4207C38.4558 12.5845 37.3773 13.0655 36.4528 13.2362C35.5284 13.4069 37.9473 13.3293 39.2415 15.6103ZM59.1013 13.5C59.1013 9.82241 56.1278 6.82759 52.4763 6.82759C48.8248 6.82759 45.8512 9.82241 45.8512 13.5C45.8512 17.1776 48.8248 20.1724 52.4763 20.1724C56.1278 20.1724 59.1013 17.1776 59.1013 13.5ZM52.4763 8.06896C49.5027 8.06896 47.0838 10.5052 47.0838 13.5C47.0838 16.4948 49.5027 18.931 52.4763 18.931C55.4498 18.931 57.8688 16.4948 57.8688 13.5C57.8688 10.5052 55.4498 8.06896 52.4763 8.06896Z" fill="#BCBCBC"/>
</svg>
