<svg
  width="90"
  height="27"
  viewBox="0 0 90 27"
  fill="none"
  xmlns="http://www.w3.org/2000/svg"
>
  <path
    fill-rule="evenodd"
    clip-rule="evenodd"
    d="M52.3998 0.924205V2.97066C52.3998 3.23472 52.662 3.43276 52.9241 3.49878H57.6435L52.2031 11.3545C51.8754 11.8826 51.8754 12.4108 51.8754 12.7408V14.7873C51.8754 15.1174 52.2031 15.3814 52.5309 15.2494C55.6115 13.599 59.3477 13.7971 62.1006 15.2494C62.4284 15.4474 62.7561 15.1174 62.7561 14.7873V12.6088C62.7561 12.3447 62.625 12.0147 62.2973 11.8166C60.7242 10.8924 58.8889 10.6944 57.1191 10.6944L61.8384 3.96088C61.8902 3.87408 61.9396 3.79185 61.9865 3.71388C62.2961 3.19886 62.4939 2.86993 62.4939 2.64059V0.924205C62.4939 0.660147 62.2317 0.396088 61.9695 0.396088H52.9241C52.5964 0.396088 52.3998 0.594132 52.3998 0.924205ZM16.6115 15.6455H19.3644C19.6266 15.6455 19.8888 15.4474 19.7577 15.1834V7.59169C19.7577 7.53847 19.7576 7.48475 19.7576 7.43061C19.7556 5.73829 19.7531 3.63081 21.6586 3.63081C23.4239 3.63081 23.3931 5.54624 23.3683 7.08429C23.3655 7.25945 23.3628 7.42971 23.3628 7.59169V15.1834C23.3628 15.4474 23.6249 15.7115 23.8871 15.7115H26.6401C26.9023 15.7115 27.1644 15.4474 27.1644 15.1834V7.59169C27.1644 6.7335 27.1644 5.54523 27.4266 4.81907C27.6888 4.09291 28.4098 3.63081 29.0653 3.63081C29.9174 3.63081 30.5073 3.96088 30.7039 4.88509C30.8069 5.3519 30.7886 6.38928 30.7759 7.10062C30.7725 7.29462 30.7695 7.46437 30.7695 7.59169V15.1834C30.7695 15.4474 31.0317 15.7115 31.2939 15.7115H34.0468C34.309 15.7115 34.5712 15.4474 34.5712 15.1834V6.13936C34.5712 5.88989 34.576 5.63714 34.5809 5.3837C34.6071 4.02758 34.6336 2.65153 33.9157 1.65037C33.1292 0.528117 31.8838 0.0660147 30.7039 0.0660147C29.0653 0.0660147 27.5577 0.924205 26.9023 2.7066C26.1812 0.924205 25.067 0.0660147 23.3628 0.0660147C21.7241 0.0660147 20.4132 0.924205 19.7577 2.7066H19.6922V0.858191C19.6266 0.594132 19.43 0.396088 19.1678 0.396088H16.6115C16.3493 0.396088 16.0871 0.660147 16.0871 0.924205V15.1834C16.1527 15.4474 16.3493 15.6455 16.6115 15.6455ZM64.1326 8.05379C64.067 3.56479 66.2956 0.132029 70.2939 0.132029C74.4233 0.132029 76.6519 3.63081 76.5864 8.18582C76.5864 12.5428 74.1611 15.9755 70.2939 15.9755C66.2956 15.9755 64.1326 12.4768 64.1326 8.05379ZM68.1963 7.74471C68.1945 9.57684 68.191 13.0709 70.2939 13.0709C72.3914 13.0709 72.5225 10.0342 72.588 8.18582C72.588 6.99756 72.5225 5.54523 72.1948 4.42298C71.867 3.43276 71.2116 3.03667 70.3595 3.03667C68.3275 3.03667 68.1964 5.87531 68.1964 7.59169C68.1964 7.64125 68.1964 7.6923 68.1963 7.74471ZM79.1427 15.6455H81.8956C82.2233 15.6455 82.4855 15.4474 82.4855 15.1834V7.45966C82.4855 6.46944 82.5511 5.61125 82.9444 4.75306C83.2065 4.09291 83.862 3.63081 84.5175 3.63081C86.2589 3.63081 86.2399 5.51453 86.2245 7.04871C86.2231 7.18919 86.2217 7.32675 86.2217 7.45966V15.1834C86.2872 15.4474 86.4839 15.6455 86.746 15.6455H89.4334C89.6956 15.6455 89.9578 15.4474 89.9578 15.1834V6.20538C89.9578 4.81907 89.9578 2.90465 89.2368 1.7824C88.4502 0.594132 87.2704 0.132029 86.025 0.132029C84.1242 0.132029 83.0754 0.99022 82.2889 2.97066H82.2233V0.792176C82.1578 0.594132 81.9612 0.396088 81.699 0.396088H79.1427C78.8805 0.396088 78.6183 0.594132 78.6183 0.858191V15.1174C78.6183 15.3814 78.8805 15.6455 79.1427 15.6455ZM49.9682 12.8825C50.0138 12.9447 50.0597 13.0073 50.1057 13.0709C50.3023 13.335 50.3023 13.665 50.0401 13.7311C49.7451 13.9621 49.3519 14.3087 48.9586 14.6553C48.5653 15.0018 48.172 15.3484 47.8771 15.5795C47.6804 15.7115 47.4183 15.7775 47.2216 15.6455C46.519 15.0894 46.2775 14.7269 45.9675 14.2616C45.8726 14.1192 45.7714 13.9672 45.6485 13.7971C44.1409 15.3814 43.0922 15.8435 41.1258 15.8435C38.8317 15.8435 36.9964 14.3912 36.9964 11.5526C36.9964 9.24205 38.2418 7.72372 39.946 6.99756C41.1919 6.45199 42.8407 6.26712 44.2634 6.1076C44.5622 6.0741 44.8511 6.04171 45.1241 6.00733V5.67726C45.1241 5.59612 45.1251 5.51298 45.1261 5.42846C45.1333 4.82536 45.1413 4.15191 44.7964 3.63081C44.4687 3.10269 43.8787 2.90465 43.2888 2.90465C42.2401 2.90465 41.2569 3.43276 41.0603 4.55501C40.9947 4.81907 40.8636 5.08313 40.6014 5.08313L37.914 4.81907C37.7174 4.75306 37.4552 4.55501 37.5208 4.22494C38.1762 0.99022 41.0603 0 43.6821 0C45.0586 0 46.8283 0.330073 47.8115 1.38631C49.0769 2.6 49.0682 4.09263 49.0586 5.76161C49.0578 5.9082 49.0569 6.05614 49.0569 6.20538V10.4963C49.0569 11.6407 49.4934 12.2356 49.9682 12.8825ZM42.7645 13.0709C43.551 13.0709 44.2065 12.6088 44.6653 11.8166C45.1897 10.8264 45.1897 9.9022 45.1897 8.84597V8.25183C43.1577 8.25183 41.0603 8.64792 41.0603 11.0245C41.0603 12.2787 41.7157 13.0709 42.7645 13.0709ZM13.7866 12.8825C13.8322 12.9447 13.8781 13.0073 13.9241 13.0709C14.1207 13.335 14.1863 13.665 13.9241 13.7311C13.6291 13.9621 13.2359 14.3087 12.8426 14.6553C12.4493 15.0018 12.056 15.3484 11.7611 15.5795C11.5644 15.7115 11.3022 15.7775 11.1056 15.6455C10.4029 15.0894 10.1615 14.7269 9.85146 14.2616C9.75661 14.1192 9.65534 13.9672 9.53248 13.7971C8.02492 15.3814 6.97618 15.8435 5.00979 15.8435C2.71567 15.8435 0.880371 14.3912 0.880371 11.5526C0.880371 9.24205 2.12575 7.72372 3.82996 6.99756C5.07585 6.45199 6.72466 6.26712 8.14741 6.1076C8.44623 6.0741 8.73507 6.04171 9.00811 6.00733V5.67726C9.00811 5.59611 9.0091 5.51297 9.01011 5.42845C9.0173 4.82535 9.02532 4.15191 8.68038 3.63081C8.35265 3.10269 7.76273 2.90465 7.17282 2.90465C6.12408 2.90465 5.14088 3.43276 4.94424 4.55501C4.8787 4.81907 4.7476 5.08313 4.48542 5.08313L1.79802 4.81907C1.53583 4.75306 1.3392 4.62103 1.40474 4.22494C2.0602 0.99022 4.94424 0 7.56609 0C8.87702 0 10.6468 0.330073 11.63 1.38631C12.8953 2.60001 12.8867 4.09263 12.877 5.76162C12.8762 5.9082 12.8753 6.05615 12.8753 6.20538V10.4963C12.8753 11.6407 13.3118 12.2356 13.7866 12.8825ZM6.64845 13.0709C7.435 13.0709 8.09047 12.6088 8.54929 11.8166C9.07366 10.8264 9.07366 9.9022 9.07366 8.84597V8.25183C7.04172 8.25183 4.94424 8.64792 4.94424 11.0245C4.94424 12.2787 5.59971 13.0709 6.64845 13.0709ZM37.0632 27C43.5523 27 51.0246 24.9536 56.2027 21.1247C57.0548 20.5306 56.3338 19.5403 55.4162 19.8704C49.6481 22.379 43.2901 23.5672 37.5876 23.5672C29.0665 23.5672 20.8077 21.2567 14.1875 17.3619C13.5976 16.9658 13.2043 17.5599 13.6632 18.022C19.8901 23.6333 28.0178 27 37.0632 27ZM52.3897 18.4115C54.055 18.2102 57.7174 17.7673 58.3657 18.6161C58.9784 19.4799 57.7588 22.5927 57.1151 24.2356C57.0701 24.3505 57.0278 24.4582 56.9893 24.5575C56.7926 25.0196 57.1859 25.2176 57.6447 24.8875C60.4632 22.577 61.1842 17.6259 60.5943 16.9658C60.0044 16.3056 55.154 15.6455 52.2044 17.7579C51.7456 18.022 51.8111 18.4841 52.3355 18.4181L52.3897 18.4115Z"
    fill="#BCBCBC"
  />
</svg>
