<svg width="169" height="78" viewBox="0 0 169 78" fill="none" xmlns="http://www.w3.org/2000/svg">
<g opacity="0.21">
<path opacity="0.21" d="M58.3861 54.7851C58.6726 54.8989 58.7611 55.0843 58.6474 55.3455C56.7205 59.8399 54.8527 62.8568 53.0439 64.3961C52.7838 64.6263 52.5109 64.8416 52.2265 65.0408C51.925 65.2986 51.5906 65.5154 51.2322 65.6855C51.0637 65.7445 50.9162 65.7866 50.8109 65.8161L50.7266 65.8582H50.3053C50.2369 65.8605 50.1689 65.846 50.1073 65.8161C49.9742 65.7974 49.8439 65.762 49.7197 65.7107C49.6586 65.6823 49.6019 65.6455 49.5512 65.6012C49.4862 65.5684 49.4276 65.5242 49.3784 65.4706L49.2478 65.3442L49.1172 65.2136C49.0517 65.1216 48.9799 65.0344 48.9023 64.9523C48.7279 64.6897 48.5864 64.4067 48.481 64.1096C48.3212 63.7473 48.1915 63.3725 48.0934 62.9888C47.9207 62.2725 47.7901 61.6658 47.7058 61.177C47.6763 60.8905 47.6384 60.5829 47.5963 60.2543C47.5541 59.9256 47.5162 59.6222 47.4909 59.3484C47.4656 59.0745 47.4235 58.7669 47.3814 58.4214C47.3392 58.0759 47.3013 57.7725 47.2718 57.5155C47.2466 57.1405 47.1707 56.5843 47.057 55.8301C47.0022 55.6278 46.9432 55.3834 46.8842 55.0969C46.8252 54.8104 46.7705 54.5955 46.7115 54.3638C46.5135 53.8202 46.3534 53.4326 46.2396 53.2009C46.0443 52.8259 45.7815 52.4903 45.4644 52.2107C45.3211 52.0674 45.161 51.9242 44.9883 51.7893C44.6036 51.9979 44.2002 52.17 43.7833 52.3034C43.1997 52.5136 42.5903 52.644 41.9717 52.691C41.8077 52.6971 41.6435 52.6829 41.483 52.6489C41.3204 52.6502 41.1591 52.6216 41.0069 52.5646C40.855 52.5404 40.7107 52.4813 40.5856 52.3919C40.4549 52.2988 40.3634 52.1608 40.3286 52.0042C40.2699 51.959 40.2234 51.8999 40.1932 51.8322C40.163 51.7646 40.1502 51.6905 40.1558 51.6166C40.1731 51.3773 40.2568 51.1477 40.3975 50.9534C40.5382 50.7591 40.7302 50.6079 40.9521 50.5169C41.526 50.2026 42.1728 50.0456 42.827 50.0618C43.1429 50.0618 43.5432 50.0618 44.0319 50.0197L44.508 49.4593C45.0515 48.7977 45.5697 48.1109 46.0584 47.3904C46.2312 47.1629 46.7031 46.4003 47.4825 45.1067C48.5198 43.3751 49.4404 41.5762 50.2379 39.7219C50.6548 38.8254 51.015 37.9036 51.3165 36.962C51.3507 36.8929 51.3789 36.821 51.4007 36.7471L51.4892 36.4859C51.5145 36.4016 51.5398 36.33 51.5524 36.271C51.565 36.212 51.5903 36.1446 51.6156 36.0561C51.6422 35.9787 51.6647 35.9 51.683 35.8202C51.6898 35.7417 51.6898 35.6627 51.683 35.5842C51.8126 35.1629 51.8987 34.7295 51.94 34.2907C52.0861 33.579 52.0861 32.845 51.94 32.1333C51.8714 31.7641 51.728 31.4128 51.5187 31.101L51.4766 31.0126L51.3881 30.9283C51.3497 30.8681 51.3074 30.8104 51.2617 30.7555C51.2238 30.7196 51.1795 30.691 51.1311 30.6713L51.0468 30.5406C50.5299 30.1377 49.9448 29.8309 49.3194 29.6347C48.9782 29.521 48.7464 29.4493 48.6327 29.4198C48.5048 29.3957 48.3752 29.3816 48.2451 29.3777C48.1461 29.3482 48.0407 29.3482 47.9417 29.3777C47.4671 29.3975 47.0062 29.5429 46.6062 29.7991C45.4599 30.576 44.4239 31.5043 43.5263 32.5589C42.3139 33.9207 41.2109 35.3761 40.2274 36.9115C39.2816 38.4077 38.4601 39.979 37.7712 41.6095C37.5689 42.8441 37.3499 44.0365 37.1687 45.1868C36.5086 49.2963 36.0494 52.5997 35.791 55.0969C35.6435 56.5632 35.5593 57.7262 35.5298 58.5899C35.5258 58.9486 35.5412 59.3073 35.5761 59.6644C35.5681 59.8243 35.5823 59.9845 35.6182 60.1405L35.5298 60.2248C35.5133 60.2264 35.4974 60.2313 35.4829 60.2393C35.4684 60.2473 35.4557 60.2581 35.4455 60.2711C35.4327 60.2811 35.4222 60.2939 35.4149 60.3085C35.4076 60.3231 35.4037 60.3391 35.4034 60.3554V60.9158H35.2475C35.2007 60.8931 35.1568 60.8648 35.1169 60.8315C35.0526 60.7977 34.9942 60.7536 34.9441 60.7009C34.8469 60.5679 34.7609 60.4269 34.6871 60.2795C34.6574 60.1596 34.6135 60.0437 34.5565 59.934C34.4914 59.694 34.4477 59.4486 34.4259 59.2009C34.3307 58.7598 34.2589 58.3139 34.211 57.8652C34.1268 57.0618 34.0552 56.1559 33.9962 55.1475C33.9372 53.5407 33.9512 51.7598 34.0383 49.8048C34.1282 46.816 34.3726 43.6123 34.7714 40.1938C35.0326 37.823 35.3486 35.5027 35.7194 33.2331L36.1407 30.6038C36.1908 30.3172 36.3268 30.0525 36.5307 29.8448C36.7346 29.6372 36.9968 29.4963 37.2824 29.4409C37.5767 29.3674 37.8835 29.3584 38.1816 29.4144C38.4797 29.4704 38.7622 29.5901 39.0098 29.7654C39.2578 29.9154 39.4517 30.1402 39.5638 30.4075C39.6758 30.6748 39.7002 30.9707 39.6334 31.2527C39.6334 31.337 39.375 32.7878 38.8582 35.6053C38.684 36.5547 38.5113 37.4747 38.3399 38.3651C39.4289 36.3845 40.6983 34.5086 42.1318 32.7612C43.5671 31.0083 44.9181 29.7724 46.1848 29.0533C46.6848 28.7301 47.2301 28.483 47.8027 28.3201C47.9569 28.2626 48.1163 28.2203 48.2788 28.1937L48.7001 28.1474C48.7844 28.1474 48.936 28.1474 49.1509 28.1263H49.5722C50.468 28.0606 51.3668 28.2049 52.197 28.5477C52.3786 28.5976 52.5529 28.6712 52.7152 28.7668C52.8254 28.8461 52.9408 28.9179 53.0607 28.9816C53.145 29.0659 53.204 29.1081 53.2335 29.1081C53.2665 29.1416 53.3033 29.1713 53.343 29.1965C53.3851 29.226 53.4062 29.2555 53.4062 29.2808L53.6 29.4325L53.7938 29.6263C53.8781 29.7148 53.9371 29.7696 53.9665 29.7991C54.0119 29.8797 54.0703 29.9523 54.1393 30.014L54.312 30.2288C54.3453 30.2688 54.3736 30.3127 54.3963 30.3595C54.4186 30.4074 54.4485 30.4515 54.4848 30.4901C54.5395 30.5743 54.6407 30.7471 54.7839 31.0041C55.1088 31.64 55.328 32.3245 55.4327 33.0308C55.513 33.5014 55.5552 33.9776 55.5591 34.455C55.5865 35.0588 55.5583 35.6639 55.4749 36.2626C55.4454 36.4353 55.3864 36.7261 55.3021 37.1053C55.2179 37.4845 55.1589 37.8384 55.1294 38.0112C54.8325 39.1463 54.4436 40.2553 53.9665 41.3272C53.0577 43.4052 51.8684 45.3489 50.4317 47.1039C49.7851 47.9015 49.081 48.6506 48.3251 49.3455C47.9038 49.7163 47.5078 50.0492 47.1623 50.3357C47.2079 50.3582 47.2504 50.3865 47.2887 50.4199C47.6871 50.6074 48.063 50.8392 48.4094 51.111C49.0072 51.5615 49.5183 52.1169 49.9177 52.75C50.1138 53.0819 50.287 53.4268 50.4359 53.7823C50.5966 54.1336 50.7373 54.4938 50.8572 54.861C51.0515 55.5671 51.1924 56.2868 51.2785 57.0141C51.4222 58.3614 51.4222 59.7202 51.2785 61.0675C51.2727 61.1977 51.2573 61.3272 51.2322 61.4551C51.2069 61.6279 51.1774 61.8343 51.1479 62.0787C51.1185 62.3231 51.089 62.5338 51.0637 62.7065C51.0342 63.0225 51.0131 63.2922 50.9963 63.5239C50.9794 63.7557 50.9963 63.8821 50.9963 63.9116L50.9541 63.9537L50.912 63.9958L50.8235 64.0843H50.7519L50.9246 64.1686C51.1819 64.2271 51.4504 64.2125 51.6999 64.1265C51.9808 64.0321 52.2431 63.8895 52.4751 63.7051C54.1603 62.3006 55.9271 59.3989 57.7752 55C57.7968 54.9421 57.8308 54.8896 57.8749 54.8463C57.919 54.803 57.972 54.7699 58.0303 54.7494C58.0886 54.7289 58.1507 54.7215 58.2122 54.7276C58.2737 54.7338 58.3331 54.7534 58.3861 54.7851ZM43.0882 50.9635H42.8312C42.4175 50.9495 42.0055 51.0227 41.622 51.1784C41.306 51.3258 41.1206 51.4691 41.0659 51.5997C41.1185 51.6253 41.1759 51.6397 41.2344 51.6419C41.4514 51.669 41.6715 51.6547 41.8832 51.5997C42.3264 51.4779 42.7376 51.2608 43.0882 50.9635Z" fill="#401B60"/>
<path opacity="0.21" d="M72.9297 54.0057C72.9887 54.0251 73.0423 54.0582 73.0862 54.1022C73.1301 54.1462 73.163 54.1999 73.1822 54.259C73.2015 54.318 73.2066 54.3808 73.1972 54.4422C73.1877 54.5036 73.1639 54.5619 73.1278 54.6124C72.3459 56.0414 71.4364 57.3966 70.4103 58.6616C68.1633 61.5071 65.9949 63.1743 63.9052 63.663C63.5229 63.7675 63.1325 63.8394 62.7381 63.8779C62.1356 63.9622 61.748 64.0212 61.5753 64.0507C61.2888 64.0507 60.9854 64.0507 60.6694 64.0043C60.3323 63.93 60.0013 63.83 59.6794 63.7052C59.3814 63.595 59.1048 63.4339 58.862 63.2291C58.4469 62.9314 58.0827 62.5685 57.7834 62.1546C57.3009 61.4793 56.9507 60.7187 56.7512 59.913C56.5458 59.1105 56.4438 58.285 56.4479 57.4566C56.4508 56.6286 56.5526 55.8039 56.7512 55.0001C56.9194 54.2014 57.1649 53.4211 57.4843 52.67C57.7769 51.9403 58.1515 51.2463 58.6008 50.6012C59.0085 49.986 59.4864 49.4204 60.0248 48.9158C60.3703 48.625 60.6989 48.3512 61.0149 48.0731C61.2448 47.9088 61.4904 47.7677 61.748 47.6517C62.025 47.4994 62.3138 47.3698 62.6117 47.2641C62.8856 47.1675 63.1676 47.0956 63.4543 47.0492C63.883 46.9927 64.3161 46.9772 64.7478 47.0028L64.8784 47.0492H65.0764C65.1731 47.0797 65.2742 47.094 65.3756 47.0913C65.566 47.1175 65.7535 47.1612 65.9359 47.2219C66.3141 47.3201 66.669 47.4925 66.98 47.729C67.291 47.9656 67.5519 48.2615 67.7476 48.5998C68.1583 49.3486 68.2954 50.2172 68.1352 51.0562C67.8839 52.7575 67.0266 54.3107 65.721 55.4299C64.2273 56.7747 62.3383 57.5996 60.3366 57.781C60.2809 58.296 60.2514 58.8135 60.2481 59.3316C60.2571 59.7817 60.315 60.2296 60.4209 60.6672C60.4731 60.9087 60.5596 61.1414 60.6779 61.3583C60.7457 61.4994 60.8337 61.63 60.9391 61.7459C61.0646 61.9005 61.2058 62.0417 61.3604 62.1672C61.5102 62.2942 61.6693 62.4097 61.8365 62.5128C62.1134 62.6731 62.4203 62.7749 62.7381 62.8119C63.0531 62.8717 63.3776 62.8572 63.6861 62.7698C64.6542 62.5177 65.5576 62.0624 66.3362 61.4341C67.1753 60.8043 67.9552 60.0991 68.666 59.3273C69.3495 58.5589 69.9895 57.7529 70.583 56.913C71.215 56.0226 71.6363 55.3905 71.847 55.0169C72.0134 54.7378 72.1639 54.4494 72.2978 54.1532C72.3254 54.0977 72.365 54.049 72.4136 54.0106C72.4622 53.9721 72.5187 53.9449 72.5791 53.9308C72.6394 53.9168 72.7022 53.9162 72.7628 53.9291C72.8234 53.942 72.8804 53.9682 72.9297 54.0057ZM60.6694 55.8596C60.5852 56.2051 60.5136 56.5506 60.4546 56.8962C61.7561 56.7245 63.002 56.2607 64.099 55.5394C65.0129 54.9657 65.7919 54.201 66.3825 53.2978C66.8229 52.5925 67.122 51.8083 67.263 50.9888C67.3688 50.3515 67.2716 49.697 66.985 49.118C66.8539 48.8721 66.6743 48.6553 66.4571 48.4807C66.2398 48.3062 65.9894 48.1775 65.721 48.1026L65.8938 47.3694L65.721 48.1026C65.425 48.0181 65.1112 48.0181 64.8152 48.1026C64.5278 48.1631 64.2608 48.2966 64.04 48.4902C63.8867 48.6172 63.7457 48.7583 63.6187 48.9116C63.4459 49.1096 63.3027 49.2824 63.1973 49.4256C63.092 49.5689 62.9825 49.8006 62.894 49.9439C62.7194 50.206 62.5618 50.479 62.4221 50.7613C62.3336 50.934 62.1188 51.4523 61.7733 52.3161C61.6301 52.6869 61.4278 53.2641 61.1708 54.0394C60.9138 54.8147 60.7579 55.4299 60.6694 55.8596Z" fill="#401B60"/>
<path opacity="0.21" d="M87.4063 55.257C86.9382 55.7177 86.4179 56.1222 85.8559 56.462C85.3601 56.78 84.8419 57.0616 84.3054 57.3047C83.8841 57.4901 83.2564 57.7261 82.4516 58.0168C81.7902 58.2738 81.3015 58.4761 80.9855 58.6194C81.1067 58.767 81.2361 58.9076 81.3731 59.0407C81.6006 59.3019 81.7944 59.5463 81.9756 59.7739C82.1626 60.037 82.3356 60.3099 82.4938 60.5913C82.6287 60.9155 82.7441 61.2476 82.8393 61.5857C82.8985 61.8268 82.9407 62.0718 82.9657 62.3188C82.9978 62.6492 82.9836 62.9825 82.9235 63.309C82.8127 64.0292 82.5229 64.7101 82.0809 65.2893C81.7418 65.7762 81.3346 66.2118 80.8717 66.5829L80.6147 66.8441L80.3998 67.0126C80.273 67.0654 80.1561 67.1395 80.0544 67.2318C79.4492 67.6592 78.7994 68.0194 78.1163 68.3062C77.6417 68.528 77.1517 68.7152 76.6501 68.8666C76.1154 69.0042 75.561 69.0484 75.0112 68.9972C74.5716 68.9089 74.167 68.6952 73.8463 68.3819C73.5256 68.0686 73.3024 67.6691 73.2038 67.2318C72.9122 66.2831 72.9122 65.2688 73.2038 64.3202C73.4425 63.3299 73.9314 62.4173 74.6236 61.6699C75.214 61.1078 75.8328 60.5762 76.4774 60.0772C76.2471 59.9031 76.1066 59.8019 76.0561 59.7739C75.2185 59.1698 74.4128 58.5228 73.6419 57.8356C73.2364 57.4332 72.8618 57.0008 72.5212 56.5421C72.1363 56.0539 71.8175 55.5169 71.5733 54.9452C71.4006 54.4595 71.2984 53.9515 71.2699 53.4368C71.2414 53.2666 71.2414 53.0929 71.2699 52.9227V52.6615C71.2714 52.5738 71.287 52.487 71.3163 52.4044C71.3106 52.3167 71.325 52.2288 71.3584 52.1474C71.3579 52.0586 71.3722 51.9703 71.4005 51.8862C71.4264 51.7245 71.4702 51.5662 71.5311 51.4143C71.712 50.82 71.9728 50.253 72.3064 49.7289C72.3844 49.6324 72.4561 49.5311 72.5212 49.4255C72.6002 49.3462 72.6721 49.2602 72.7361 49.1685C72.7951 49.1095 72.892 48.9957 73.0394 48.823C73.6065 48.2437 74.2981 47.8013 75.0618 47.5294L75.2809 47.4452L75.4494 47.403L75.837 47.2724L76.2288 47.1839H76.3131C76.354 47.1628 76.3981 47.1486 76.4437 47.1418H76.6164C76.6838 47.1084 76.7565 47.087 76.8313 47.0786C76.8887 47.0733 76.9466 47.0733 77.004 47.0786H77.3916C77.4276 47.0765 77.463 47.0694 77.497 47.0575C77.5318 47.0429 77.5688 47.0343 77.6065 47.0322H78.1374C79.7468 47.1193 81.2692 47.8819 82.7044 49.3202C82.7514 49.3597 82.7892 49.4091 82.8151 49.4647C82.841 49.5204 82.8544 49.5811 82.8544 49.6425C82.8544 49.7039 82.841 49.7646 82.8151 49.8203C82.7892 49.8759 82.7514 49.9253 82.7044 49.9648C82.618 50.0485 82.5024 50.0953 82.3821 50.0953C82.2618 50.0953 82.1463 50.0485 82.0598 49.9648C80.7959 48.6727 79.4743 47.9971 78.0952 47.9381H77.7919L77.6192 47.9803H77.4885L77.1473 48.0687C77.0441 48.0888 76.9427 48.117 76.8439 48.153L76.7133 48.2415L76.5869 48.2836L76.3257 48.4564C76.2355 48.507 76.1496 48.5647 76.0687 48.6291L75.9381 48.7598L75.8538 48.844C75.4431 49.2572 75.1079 49.7392 74.8637 50.2682C74.8328 50.3597 74.7888 50.4463 74.7331 50.5252C74.7076 50.5941 74.6934 50.6667 74.691 50.7401C74.6501 50.8065 74.6202 50.8791 74.6025 50.955C74.4829 51.3018 74.4244 51.6668 74.4298 52.0337V52.4213C74.4366 52.4668 74.4508 52.511 74.4719 52.5519V52.8089C74.5014 52.8089 74.5183 52.8384 74.5183 52.8974C74.5426 52.919 74.5577 52.9492 74.5604 52.9817L74.8174 53.5C75.2163 54.0436 75.6966 54.5226 76.2415 54.9199C76.7583 55.3553 77.4759 55.8876 78.3944 56.5168C79.1977 57.1208 79.8156 57.5941 80.2482 57.9368L82.102 57.2036C82.9081 56.889 83.5106 56.6446 83.9094 56.4705C84.4019 56.2543 84.8779 56.0022 85.3334 55.7163C85.8433 55.4154 86.3205 55.0623 86.7575 54.6629C86.79 54.6104 86.8349 54.5668 86.8883 54.5358C86.9417 54.5049 87.002 54.4876 87.0636 54.4855C87.1253 54.4834 87.1866 54.4966 87.2419 54.5239C87.2973 54.5511 87.3451 54.5916 87.381 54.6418C87.4298 54.676 87.47 54.721 87.4985 54.7733C87.527 54.8255 87.5432 54.8837 87.5456 54.9432C87.548 55.0026 87.5368 55.0619 87.5126 55.1163C87.4884 55.1708 87.4521 55.2189 87.4063 55.257ZM79.4772 63.8357C79.5851 63.5686 79.6298 63.2802 79.6078 62.993C79.5598 62.8732 79.502 62.7577 79.435 62.6475C79.3971 62.5501 79.3381 62.4623 79.2623 62.3904C79.2033 62.3062 79.119 62.1882 79.0011 62.0449L78.6598 61.6994C78.512 61.595 78.3713 61.481 78.2385 61.3581C77.9815 61.1559 77.6486 60.9115 77.2484 60.625C76.5485 61.1198 75.8866 61.6663 75.2682 62.2598C74.6406 62.922 74.2038 63.7417 74.0043 64.632C73.7697 65.3896 73.7697 66.2003 74.0043 66.9579C74.0645 67.2322 74.2021 67.4836 74.4007 67.6822C74.5993 67.8808 74.8506 68.0184 75.125 68.0787C75.5119 68.1299 75.9051 68.0546 76.2457 67.8638C76.6141 67.6415 76.9477 67.366 77.2358 67.0464C77.6622 66.5785 78.0644 66.0891 78.4407 65.5801C78.5029 65.4715 78.5764 65.3699 78.6598 65.2767C78.8325 65.0197 78.9294 64.8553 78.9589 64.8553C79.1601 64.5333 79.3281 64.1916 79.4603 63.8357H79.4772Z" fill="#401B60"/>
<path opacity="0.21" d="M102.064 54.0057C102.122 54.0256 102.176 54.059 102.219 54.1032C102.262 54.1474 102.295 54.2012 102.314 54.2602C102.333 54.3192 102.337 54.3818 102.328 54.443C102.318 54.5042 102.294 54.5622 102.258 54.6124C101.476 56.0414 100.566 57.3966 99.5401 58.6616C97.2931 61.5071 95.1248 63.1743 93.035 63.663C92.6541 63.7672 92.2652 63.839 91.8722 63.8779C91.2655 63.9622 90.8779 64.0212 90.7052 64.0507C90.4187 64.0507 90.1195 64.0507 89.8035 64.0043C89.4649 63.9306 89.1324 63.8306 88.8092 63.7052C88.5113 63.595 88.2347 63.4339 87.9919 63.2291C87.5768 62.9314 87.2126 62.5685 86.9133 62.1546C86.4325 61.4783 86.0824 60.7181 85.8811 59.913C85.6756 59.1105 85.5737 58.285 85.5778 57.4566C85.5807 56.6286 85.6825 55.8039 85.8811 55.0001C86.0532 54.2025 86.2986 53.4225 86.6142 52.67C86.9066 51.9394 87.2827 51.2452 87.7349 50.6012C88.1397 49.9851 88.6163 49.4193 89.1547 48.9158C89.5002 48.625 89.8288 48.3512 90.1448 48.0731C90.3753 47.9097 90.6207 47.7686 90.8779 47.6517C91.1485 47.5012 91.4302 47.3716 91.7205 47.2641C91.9944 47.1675 92.2764 47.0956 92.5632 47.0492C92.9919 46.9927 93.425 46.9772 93.8566 47.0028L93.9872 47.0492H94.1599C94.2566 47.0797 94.3577 47.094 94.4591 47.0913C94.6509 47.1175 94.8398 47.1613 95.0236 47.2219C95.4011 47.3206 95.7551 47.4932 96.0654 47.7297C96.3757 47.9663 96.6359 48.262 96.8311 48.5998C97.2439 49.3479 97.3811 50.2173 97.2187 51.0562C96.9674 52.7575 96.1101 54.3107 94.8046 55.4299C93.3108 56.7747 91.4218 57.5996 89.4201 57.781C89.3644 58.296 89.3349 58.8135 89.3317 59.3316C89.3406 59.7817 89.3986 60.2296 89.5044 60.6672C89.5561 60.9094 89.6442 61.1424 89.7656 61.3583C89.8322 61.4992 89.9187 61.6297 90.0226 61.7459C90.1493 61.8995 90.2904 62.0406 90.4439 62.1672C90.5945 62.2933 90.7536 62.4087 90.92 62.5128C91.1982 62.6738 91.5065 62.7756 91.8259 62.8119C92.1408 62.8717 92.4654 62.8572 92.7738 62.7698C93.7413 62.5159 94.6443 62.0607 95.4239 61.4341C96.2608 60.8032 97.0392 60.0981 97.7496 59.3273C98.433 58.5589 99.073 57.7529 99.6665 56.913C100.299 56.0226 100.72 55.3905 100.93 55.0169C101.097 54.7378 101.247 54.4494 101.381 54.1532C101.407 54.0892 101.448 54.0325 101.501 53.988C101.553 53.9435 101.616 53.9127 101.683 53.8981C101.751 53.8835 101.821 53.8857 101.887 53.9045C101.953 53.9233 102.014 53.958 102.064 54.0057ZM89.8035 55.8596C89.7151 56.2051 89.6434 56.5506 89.5845 56.8962C90.886 56.7245 92.1319 56.2607 93.2288 55.5394C94.1437 54.9669 94.923 54.202 95.5124 53.2978C95.9528 52.5925 96.2519 51.8083 96.3929 50.9888C96.4987 50.3515 96.4014 49.697 96.1149 49.118C95.9844 48.8716 95.805 48.6545 95.5877 48.4799C95.3703 48.3052 95.1196 48.1769 94.8509 48.1026L95.0236 47.3694L94.8509 48.1026C94.5563 48.0183 94.2439 48.0183 93.9493 48.1026C93.66 48.1613 93.3912 48.295 93.1699 48.4902C93.0166 48.6172 92.8755 48.7583 92.7485 48.9116C92.5758 49.1096 92.4326 49.2824 92.3272 49.4256C92.2219 49.5689 92.1124 49.8006 92.0239 49.9439C91.8493 50.206 91.6917 50.479 91.552 50.7613C91.4635 50.934 91.2487 51.4523 90.9032 52.3161C90.7599 52.6869 90.5577 53.2641 90.3007 54.0394C90.0437 54.8147 89.8878 55.4299 89.8035 55.8596Z" fill="#401B60"/>
<path opacity="0.21" d="M116.153 54.6544C116.211 54.6678 116.264 54.6947 116.31 54.7329C116.355 54.7711 116.391 54.8196 116.414 54.8743C116.437 54.929 116.447 54.9884 116.442 55.0476C116.438 55.1068 116.42 55.1641 116.389 55.2148C116.22 55.6741 115.967 56.2556 115.66 56.9592C115.352 57.6629 114.847 58.7205 114.173 60.1278C113.545 61.4486 112.824 62.7229 112.015 63.941C111.471 64.8401 110.755 65.6233 109.909 66.2458C109.762 66.3953 109.585 66.5129 109.391 66.5913C109.286 66.648 109.169 66.6783 109.049 66.6798C109.012 66.7093 108.966 66.7243 108.919 66.7219H108.83C108.743 66.725 108.655 66.7107 108.573 66.6798C108.376 66.6522 108.194 66.5604 108.055 66.4185C107.948 66.3098 107.848 66.1944 107.756 66.073C107.631 65.8848 107.53 65.6826 107.453 65.4705C107.358 65.1017 107.286 64.7274 107.238 64.3497C107.183 63.9941 107.155 63.635 107.153 63.2753C107.138 61.9336 107.224 60.5928 107.41 59.264C107.44 58.8932 107.49 58.4677 107.562 58C107.634 57.5323 107.705 57.0561 107.777 56.5969C107.849 56.1376 107.899 55.7542 107.929 55.3918C108.013 54.646 108.072 54.0688 108.101 53.6685C107.86 53.8095 107.629 53.9672 107.41 54.1404L106.96 54.4859C106.77 54.6292 106.576 54.7724 106.374 54.9073C106.172 55.0421 105.986 55.198 105.814 55.3286C105.509 55.5339 105.192 55.721 104.866 55.889C104.479 56.0691 104.075 56.2102 103.661 56.3104C103.432 56.3391 103.201 56.3532 102.97 56.3525H102.582C102.42 56.3266 102.262 56.2828 102.11 56.2219C101.819 56.1054 101.556 55.9305 101.335 55.7078C101.157 55.5187 101.014 55.2989 100.914 55.0589C100.733 54.6793 100.618 54.2719 100.572 53.8539C100.512 53.4834 100.482 53.1085 100.484 52.7331C100.512 51.9994 100.642 51.2733 100.872 50.5758C101.091 49.8486 101.459 49.1745 101.95 48.5954C102.218 48.2941 102.539 48.0454 102.898 47.8623C103.276 47.693 103.69 47.6192 104.103 47.6474C104.34 47.6209 104.578 47.6741 104.781 47.7985C104.984 47.9228 105.14 48.1114 105.224 48.3342C105.485 48.9409 105.316 49.83 104.731 51.0098C104.164 52.1471 103.493 53.2291 102.725 54.2415C102.726 54.2578 102.73 54.2738 102.737 54.2884C102.744 54.303 102.755 54.3158 102.768 54.3258H102.898C103.001 54.303 103.102 54.2748 103.201 54.2415C103.698 54.1046 104.155 53.8535 104.537 53.5084L105.291 52.8637C105.62 52.573 105.856 52.3749 105.999 52.257C106.344 51.9704 106.648 51.7429 106.905 51.5702C107.302 51.3224 107.74 51.1469 108.198 51.0519C108.325 51.0217 108.455 51.0076 108.586 51.0098H108.974C109.076 51.0075 109.179 51.0217 109.277 51.0519C109.448 51.1096 109.607 51.1966 109.749 51.3089C109.877 51.41 109.993 51.5259 110.094 51.6544C110.214 51.8085 110.303 51.9846 110.355 52.1727C110.443 52.4232 110.5 52.6836 110.524 52.948C110.556 53.1472 110.572 53.3487 110.57 53.5505C110.57 53.837 110.57 54.1994 110.524 54.6292C110.494 54.9452 110.469 55.2907 110.44 55.6615C110.381 56.1797 110.296 56.8413 110.183 57.646C110.065 58.3076 109.964 58.9522 109.879 59.5842C109.791 59.9592 109.677 60.5702 109.534 61.4171C109.391 62.264 109.277 62.9171 109.188 63.3764C109.1 63.8357 109.087 64.139 109.062 64.2823C109.032 64.5983 109.016 64.8722 109.016 65.0997C109.011 65.1892 109.027 65.2785 109.062 65.361V65.4452H108.974V65.4874H109.104C109.221 65.5146 109.343 65.4997 109.45 65.4452C110.34 64.8834 111.388 63.4621 112.593 61.1812C113.7 59.131 114.693 57.021 115.567 54.8609C115.586 54.8039 115.617 54.752 115.659 54.7091C115.701 54.6662 115.753 54.6335 115.809 54.6136C115.866 54.5936 115.926 54.5869 115.986 54.594C116.045 54.6011 116.102 54.6218 116.153 54.6544ZM102.342 53.3188C102.944 52.4563 103.476 51.5476 103.935 50.6011C104.395 49.6544 104.554 49.0224 104.411 48.705C104.38 48.6207 104.279 48.5786 104.107 48.5786C103.856 48.6087 103.618 48.7047 103.416 48.8567C103.223 49.0234 103.049 49.2114 102.898 49.4171C102.609 49.9063 102.419 50.4474 102.338 51.0098C102.224 51.5782 102.195 52.1605 102.254 52.7373C102.256 52.9343 102.286 53.1299 102.342 53.3188Z" fill="#401B60"/>
<path opacity="0.21" d="M128.35 54.566C128.59 54.7387 128.615 54.9536 128.413 55.2149C128.26 55.4395 128.094 55.6547 127.916 55.8595C127.534 56.2631 127.11 56.6247 126.652 56.9382C126.108 57.3611 125.485 57.6693 124.819 57.8441C124.564 57.8992 124.304 57.9274 124.044 57.9284C123.97 57.9263 123.898 57.9121 123.829 57.8862C122.86 60.8553 121.802 62.809 120.656 63.7472C120.635 63.7728 120.609 63.7938 120.579 63.809C120.549 63.8242 120.517 63.8333 120.484 63.8357C120.303 64.0465 120.085 64.221 119.839 64.3497C119.693 64.4369 119.531 64.4955 119.363 64.5225C119.261 64.5298 119.16 64.5439 119.06 64.5646C118.973 64.5562 118.887 64.5421 118.803 64.5225C118.431 64.4849 118.075 64.3513 117.77 64.1348C117.49 63.9458 117.243 63.7124 117.037 63.4438C116.691 62.9937 116.401 62.5026 116.174 61.9817C115.96 61.5181 115.773 61.0426 115.613 60.5576C115.309 59.6465 115.093 58.7082 114.969 57.7556C114.821 56.9191 114.72 56.0751 114.665 55.2275C114.581 53.9508 114.581 52.6699 114.665 51.3932L114.754 49.9269C114.808 49.6657 115.023 49.4803 115.398 49.3665C115.809 49.2482 116.237 49.2039 116.662 49.2359C117.074 49.2495 117.478 49.353 117.846 49.5393C118.162 49.712 118.322 49.9101 118.322 50.1418C118.293 50.2476 118.278 50.3566 118.276 50.4662C118.276 50.5743 118.261 50.682 118.234 50.7865C118.175 51.3637 118.12 51.9241 118.061 52.4719C117.918 54.3679 117.846 56.0632 117.846 57.5576C117.838 58.4664 117.896 59.3747 118.019 60.2753C118.085 61.0282 118.26 61.7675 118.537 62.4705C118.542 62.5166 118.556 62.5611 118.579 62.6011C118.592 62.6117 118.602 62.6246 118.609 62.639C118.616 62.6535 118.62 62.6693 118.621 62.6854C118.659 62.7475 118.702 62.8054 118.752 62.8582C118.807 62.9466 118.866 63.0309 118.925 63.1194L119.14 63.2458C119.208 63.2728 119.281 63.2884 119.355 63.2921C119.474 63.284 119.591 63.254 119.7 63.2037C119.792 63.201 119.881 63.1717 119.957 63.1194L120.045 63.0309L120.088 63.073C121.096 62.2303 122.079 60.3919 123.037 57.5576C122.146 56.8722 121.701 55.4677 121.701 53.3441C121.676 51.9803 121.895 50.623 122.35 49.337C122.894 47.9297 123.614 47.2303 124.503 47.2303C124.709 47.2282 124.911 47.295 125.075 47.4202C125.239 47.5453 125.356 47.7217 125.409 47.9213C125.616 49.0348 125.623 50.1761 125.43 51.2921C125.216 52.8324 124.907 54.3578 124.503 55.8595C124.389 56.2809 124.276 56.6643 124.158 57.0646C124.334 57.0654 124.509 57.037 124.676 56.9803C125.234 56.8325 125.756 56.5683 126.205 56.205C126.592 55.9289 126.953 55.6186 127.284 55.2781C127.446 55.0939 127.597 54.8997 127.735 54.6966C127.764 54.645 127.804 54.6003 127.852 54.5653C127.9 54.5303 127.955 54.5058 128.013 54.4935C128.071 54.4811 128.131 54.4812 128.189 54.4937C128.247 54.5062 128.302 54.5308 128.35 54.566ZM123.328 56.5927C124.193 53.7191 124.638 51.3314 124.663 49.4297C124.705 48.9772 124.646 48.521 124.49 48.094C124.002 48.1249 123.57 48.6278 123.197 49.6025C122.775 50.7922 122.571 52.0482 122.594 53.3104C122.594 54.8665 122.839 55.9607 123.328 56.5927Z" fill="#401B60"/>
<path opacity="0.21" d="M143.302 54.0056C143.361 54.0255 143.414 54.0589 143.458 54.1031C143.501 54.1473 143.533 54.2011 143.552 54.2601C143.571 54.3191 143.576 54.3817 143.566 54.4429C143.556 54.5041 143.532 54.5621 143.496 54.6124C142.716 56.0412 141.808 57.3965 140.783 58.6615C138.536 61.5071 136.366 63.1742 134.274 63.663C133.893 63.7678 133.504 63.8397 133.111 63.8779C132.508 63.9621 132.121 64.0211 131.948 64.0506C131.661 64.0506 131.358 64.0506 131.042 64.0043C130.705 63.9305 130.374 63.8305 130.052 63.7051C129.745 63.5983 129.459 63.437 129.209 63.229C128.797 62.93 128.434 62.5673 128.135 62.1545C127.653 61.4785 127.301 60.7182 127.099 59.913C126.897 59.1099 126.796 58.2846 126.799 57.4565C126.803 56.6288 126.903 55.8044 127.099 55C127.271 54.2024 127.516 53.4224 127.832 52.6699C128.126 51.9401 128.502 51.2461 128.952 50.6011C129.359 49.985 129.837 49.4192 130.376 48.9157C130.718 48.625 131.05 48.3511 131.366 48.073C131.596 47.9087 131.842 47.7676 132.1 47.6517C132.37 47.5001 132.651 47.3705 132.942 47.264C133.223 47.1658 133.512 47.0939 133.806 47.0491C134.235 46.9926 134.668 46.977 135.099 47.0028L135.226 47.0491H135.436C135.535 47.0793 135.637 47.0935 135.74 47.0913C135.93 47.1174 136.118 47.1612 136.3 47.2219C136.678 47.319 137.033 47.491 137.343 47.7277C137.654 47.9643 137.914 48.2609 138.108 48.5997C138.522 49.3471 138.66 50.2172 138.495 51.0562C138.247 52.7575 137.391 54.3114 136.085 55.4298C134.59 56.7747 132.699 57.5995 130.697 57.7809C130.642 58.296 130.614 58.8135 130.612 59.3315C130.617 59.782 130.675 60.2303 130.785 60.6672C130.835 60.9092 130.922 61.1421 131.042 61.3582C131.109 61.4991 131.195 61.6297 131.299 61.7458C131.426 61.8991 131.567 62.0402 131.72 62.1672C131.87 62.2931 132.027 62.4085 132.192 62.5127C132.471 62.673 132.779 62.7748 133.098 62.8118C133.413 62.8716 133.738 62.8572 134.046 62.7697C135.014 62.5166 135.917 62.0614 136.696 61.434C137.535 60.8053 138.313 60.1 139.022 59.3273C139.707 58.5589 140.348 57.7529 140.943 56.9129C141.571 56.0239 141.996 55.3919 142.207 55.0169C142.418 54.6419 142.573 54.3553 142.662 54.1531C142.689 54.0963 142.729 54.0464 142.779 54.007C142.828 53.9677 142.885 53.9399 142.947 53.9258C143.008 53.9116 143.072 53.9114 143.134 53.9253C143.195 53.9391 143.253 53.9665 143.302 54.0056ZM131.042 55.8596C130.958 56.2051 130.882 56.5506 130.827 56.8961C132.127 56.7237 133.372 56.2599 134.467 55.5393C135.383 54.968 136.163 54.2028 136.751 53.2977C137.194 52.5935 137.495 51.809 137.636 50.9887C137.738 50.351 137.639 49.6972 137.353 49.118C137.223 48.8714 137.044 48.6541 136.826 48.4795C136.609 48.3049 136.358 48.1766 136.089 48.1025L136.262 47.3693L136.089 48.1025C135.793 48.0181 135.48 48.0181 135.184 48.1025C134.896 48.1619 134.629 48.2955 134.408 48.4901C134.253 48.615 134.112 48.7563 133.987 48.9115C133.814 49.1095 133.667 49.2823 133.566 49.4255C133.465 49.5688 133.351 49.8005 133.267 49.9438C133.091 50.2058 132.932 50.4789 132.791 50.7612C132.706 50.9326 132.491 51.4508 132.146 52.316C132.003 52.6868 131.8 53.264 131.539 54.0393C131.278 54.8146 131.126 55.4298 131.042 55.8596Z" fill="#401B60"/>
</g>
<g opacity="0.82">
<path opacity="0.82" d="M58.6092 55.0763L59.0305 55.249C59.3213 55.367 59.4055 55.5524 59.2918 55.8094C57.3734 60.3235 55.5098 63.3431 53.7009 64.8684C53.4426 65.1019 53.1696 65.3187 52.8836 65.5173C52.5835 65.775 52.2505 65.9918 51.8935 66.162C51.7207 66.221 51.5733 66.2631 51.4721 66.2926L51.3879 66.3347H50.9666C50.8995 66.3363 50.8331 66.3219 50.7728 66.2926C50.6391 66.2741 50.5087 66.2372 50.3851 66.183C50.3228 66.1565 50.2646 66.121 50.2124 66.0777C50.1474 66.045 50.0889 66.0007 50.0397 65.9471L49.9091 65.8165L49.7785 65.6901C49.714 65.5974 49.6421 65.51 49.5636 65.4288C49.3899 65.1658 49.2485 64.8829 49.1423 64.5861C48.9824 64.2238 48.8528 63.849 48.7547 63.4653C48.5819 62.7448 48.4513 62.1423 48.367 61.6535C48.3376 61.367 48.2996 61.0594 48.2575 60.7266C48.2154 60.3937 48.1775 60.0945 48.1522 59.8207C48.1269 59.5468 48.0848 59.2392 48.0426 58.8937C48.0005 58.5482 47.9626 58.249 47.9373 57.992C47.9078 57.617 47.8362 57.0566 47.7182 56.3066C47.6635 56.1044 47.6045 55.86 47.5455 55.5735C47.4865 55.2869 47.4317 55.072 47.377 54.8403C47.1747 54.2968 47.0146 53.9049 46.9009 53.6774C46.707 53.2882 46.4411 52.9393 46.1172 52.6493C45.974 52.506 45.8139 52.3628 45.6411 52.2279C45.2577 52.4402 44.854 52.6138 44.4362 52.7462C43.8519 52.9545 43.2428 53.0848 42.6245 53.1338C42.4661 53.1385 42.3077 53.1244 42.1526 53.0917C41.9897 53.0932 41.8281 53.0631 41.6766 53.0032C41.5238 52.9819 41.379 52.9225 41.2552 52.8305C41.1237 52.7383 41.0319 52.5998 40.9982 52.4428C40.9393 52.3979 40.8925 52.3388 40.8624 52.2711C40.8322 52.2033 40.8195 52.1291 40.8255 52.0552C40.8432 51.8188 40.9257 51.5919 41.064 51.3994C41.2022 51.2069 41.3908 51.0562 41.6091 50.9639C42.1831 50.6496 42.8299 50.4926 43.484 50.5088C43.8 50.5088 44.2002 50.5088 44.689 50.4667L45.165 49.9063C45.7085 49.2448 46.2268 48.558 46.7155 47.8375C46.8868 47.6099 47.3615 46.8487 48.1395 45.5538C49.1769 43.8207 50.0975 42.0204 50.8949 40.1647C51.3125 39.2699 51.6728 38.3495 51.9735 37.4091C52.0077 37.34 52.0359 37.2681 52.0578 37.1942L52.1462 36.9329C52.1717 36.8626 52.1928 36.7909 52.2094 36.718C52.2094 36.6591 52.2474 36.5874 52.2769 36.5032C52.3064 36.4189 52.3232 36.3388 52.3401 36.2672C52.347 36.1873 52.347 36.1069 52.3401 36.027C52.4716 35.6077 52.5577 35.1754 52.5971 34.7377C52.7431 34.026 52.7431 33.2921 52.5971 32.5804C52.5284 32.2112 52.385 31.8599 52.1757 31.5481L52.1336 31.4596L52.0451 31.3753C52.0078 31.3144 51.9655 31.2566 51.9187 31.2026C51.8802 31.1663 51.8361 31.1364 51.7881 31.1141L51.7039 30.9877C51.1878 30.5858 50.6043 30.279 49.9807 30.0818C49.6352 29.968 49.4035 29.8964 49.2897 29.8669C49.1618 29.8427 49.0322 29.8286 48.9021 29.8248C48.8032 29.7952 48.6977 29.7952 48.5988 29.8248C48.1242 29.8451 47.6635 29.9905 47.2632 30.2461C46.1159 31.0201 45.0797 31.9472 44.1834 33.0017C42.9743 34.3662 41.8714 35.8213 40.8845 37.3543C39.9403 38.8515 39.1189 40.4226 38.4282 42.0523C38.2316 43.2911 38.0308 44.4835 37.8257 45.6296C37.1741 49.7476 36.7191 53.0552 36.4607 55.5524C36.3174 57.0187 36.2304 58.1816 36.1995 59.0412C36.1954 59.4013 36.2108 59.7614 36.2458 60.1198C36.2378 60.2797 36.252 60.4399 36.2879 60.5959L36.1995 60.6802C36.1674 60.6844 36.1377 60.6992 36.1152 60.7224C36.1024 60.7334 36.0921 60.747 36.0849 60.7622C36.0776 60.7774 36.0736 60.794 36.0731 60.8108V61.3712H35.9003C35.8524 61.3489 35.8083 61.319 35.7697 61.2827C35.7055 61.2505 35.6471 61.2078 35.597 61.1563C35.5 61.0231 35.414 60.8822 35.34 60.735C35.3094 60.6167 35.2656 60.5022 35.2094 60.3937C35.1443 60.1536 35.1006 59.9083 35.0788 59.6605C34.9838 59.2194 34.9121 58.7735 34.8639 58.3249C34.7796 57.5215 34.708 56.6156 34.649 55.6072C34.59 53.9976 34.6041 52.2167 34.6911 50.2644C34.781 47.2757 35.0254 44.072 35.4242 40.6534C35.6855 38.2967 36.0014 35.9835 36.3722 33.7138L36.7935 31.0846C36.838 30.7909 36.9732 30.5184 37.1802 30.3053C37.3872 30.0923 37.6556 29.9493 37.9479 29.8964C38.2416 29.8235 38.5475 29.8148 38.8449 29.8708C39.1422 29.9268 39.424 30.0462 39.6711 30.2208C39.919 30.3709 40.113 30.5957 40.225 30.863C40.3371 31.1302 40.3615 31.4262 40.2946 31.7082C40.2946 31.7925 40.0362 33.2433 39.5194 36.0607C39.3481 37.0074 39.1753 37.9301 39.0012 38.829C40.0912 36.8504 41.3605 34.9759 42.793 33.2293C44.2283 31.4764 45.5793 30.2405 46.8461 29.5214C47.3364 29.197 47.8735 28.9498 48.4387 28.7882C48.5921 28.7273 48.7517 28.6835 48.9148 28.6576L49.3361 28.6155L49.7869 28.5944H50.2082C51.1055 28.5245 52.0066 28.669 52.8372 29.0158C53.0173 29.0643 53.1901 29.1366 53.3512 29.2306C53.4602 29.3117 53.5758 29.3836 53.6967 29.4455C53.7852 29.534 53.8399 29.5762 53.8694 29.5762C53.9025 29.6097 53.9392 29.6394 53.979 29.6646C54.0211 29.6899 54.0422 29.7194 54.0422 29.7489L54.236 29.9006L54.4298 30.0944C54.5183 30.1787 54.573 30.2377 54.6025 30.2672C54.6487 30.3472 54.707 30.4197 54.7753 30.4821L54.948 30.6969C54.9813 30.7369 55.0096 30.7808 55.0323 30.8276C55.0546 30.8743 55.0844 30.917 55.1207 30.954C55.1755 31.0425 55.2766 31.2152 55.4199 31.4722C55.7453 32.1078 55.9645 32.7925 56.0687 33.4989C56.1487 33.9681 56.191 34.4429 56.1951 34.9189C56.2226 35.5241 56.1944 36.1306 56.1108 36.7307C56.0813 36.9034 56.0224 37.19 55.9381 37.5734C55.8538 37.9568 55.8075 38.3234 55.7653 38.4835C55.4712 39.6208 55.0822 40.7314 54.6025 41.8037C53.6963 43.887 52.5068 45.8352 51.0677 47.5931C50.4199 48.3896 49.7159 49.1388 48.9611 49.8347C48.5398 50.2055 48.1438 50.5383 47.7983 50.8248C47.8445 50.8485 47.8882 50.8768 47.9289 50.9091C48.3254 51.0976 48.6998 51.3293 49.0454 51.6001C49.6441 52.0496 50.1554 52.6052 50.5537 53.2392C50.7506 53.5706 50.9238 53.9156 51.0719 54.2715C51.2306 54.6236 51.3713 54.9836 51.4932 55.3501C51.6877 56.0562 51.8285 56.7759 51.9145 57.5032C52.0582 58.8505 52.0582 60.2093 51.9145 61.5566C51.9085 61.6866 51.8944 61.816 51.8724 61.9443C51.8429 62.117 51.8134 62.3235 51.7839 62.5679C51.7544 62.8122 51.7249 63.0187 51.6997 63.1915C51.6702 63.5075 51.6491 63.7814 51.6322 64.0131C51.6154 64.2448 51.6322 64.3712 51.6322 64.4007L51.5901 64.4429L51.548 64.485L51.4595 64.5735H51.4174L51.5901 64.6578C51.8476 64.7141 52.1155 64.6995 52.3653 64.6156C52.6448 64.5179 52.9065 64.3756 53.1406 64.1943C54.8258 62.7898 56.5925 59.8867 58.4407 55.485L58.6092 55.0763ZM43.741 51.4147H43.484C43.0717 51.4005 42.661 51.4738 42.279 51.6296C41.9631 51.7729 41.7735 51.9161 41.7187 52.051C41.7716 52.0804 41.8309 52.0964 41.8914 52.0973C42.1073 52.1228 42.326 52.107 42.536 52.051C42.9805 51.9323 43.3924 51.7148 43.741 51.4147Z" fill="black"/>
<path opacity="0.82" d="M73.1742 54.2589L73.5956 54.4738C73.6541 54.4931 73.7073 54.5261 73.7507 54.5699C73.7941 54.6136 73.8266 54.6671 73.8455 54.7258C73.8644 54.7845 73.8692 54.8469 73.8594 54.9078C73.8496 54.9687 73.8256 55.0264 73.7894 55.0763C73.0076 56.5066 72.0981 57.8633 71.0719 59.1297C68.8249 61.9752 66.6565 63.6409 64.5668 64.1269C64.1868 64.2351 63.7975 64.307 63.4039 64.3418L62.2369 64.5145C61.9504 64.5145 61.6471 64.5145 61.3353 64.4724C60.9966 64.3986 60.6641 64.2986 60.341 64.1732C60.043 64.0631 59.7665 63.902 59.5236 63.6971C59.1075 63.399 58.7431 63.0346 58.4451 62.6185C57.9643 61.9437 57.6141 61.1848 57.4128 60.3811C57.2074 59.5771 57.1054 58.7502 57.1095 57.9204C57.1127 57.0924 57.2145 56.2678 57.4128 55.4639C57.5855 54.6678 57.8309 53.8893 58.1459 53.1381C58.4384 52.4075 58.8144 51.7133 59.2666 51.0693C59.6727 50.4541 60.1492 49.8885 60.6865 49.3839L61.6765 48.5664C61.906 48.4015 62.1516 48.2603 62.4096 48.1451C62.6802 47.9945 62.9619 47.8649 63.2523 47.7574C63.5256 47.6578 63.8077 47.5845 64.0949 47.5383C64.5237 47.4832 64.9568 47.469 65.3883 47.4962L65.5189 47.5383H65.6917C65.7881 47.5704 65.8892 47.586 65.9908 47.5847C66.1807 47.6115 66.3681 47.6538 66.5512 47.7111C66.9297 47.8098 67.2848 47.9828 67.5958 48.2201C67.9069 48.4573 68.1676 48.7541 68.3628 49.0931C68.776 49.8412 68.9132 50.7106 68.7504 51.5496C68.4992 53.2508 67.6418 54.804 66.3363 55.9232C64.8434 57.2686 62.9536 58.0923 60.9519 58.2701C60.8964 58.7852 60.8669 59.3027 60.8634 59.8207C60.8721 60.2723 60.9301 60.7216 61.0362 61.1606C61.0871 61.4017 61.1752 61.6334 61.2974 61.8474C61.3618 61.9895 61.4486 62.1204 61.5544 62.235C61.6788 62.3906 61.8201 62.532 61.9757 62.6564C62.1251 62.7825 62.2843 62.8967 62.4518 62.9977C62.7296 63.1602 63.038 63.2635 63.3576 63.3011C63.6727 63.3593 63.9969 63.3449 64.3056 63.2589C65.2725 63.0036 66.1752 62.5486 66.9556 61.9232C67.7935 61.2934 68.572 60.5882 69.2813 59.8165C69.9658 59.0504 70.6058 58.2457 71.1983 57.4064C71.8303 56.5131 72.2516 55.8811 72.4622 55.5103C72.6287 55.2311 72.7792 54.9427 72.913 54.6465L73.1742 54.2589ZM61.3269 56.3277C61.2384 56.6732 61.1668 57.0187 61.1078 57.36C62.4103 57.1921 63.657 56.728 64.7522 56.0033C65.668 55.4319 66.4474 54.6668 67.0357 53.7617C67.4767 53.0582 67.7758 52.2752 67.9162 51.4569C68.0215 50.8182 67.9243 50.1625 67.6382 49.5819C67.5069 49.3366 67.3271 49.1205 67.1099 48.9466C66.8926 48.7728 66.6424 48.6449 66.3742 48.5706L66.547 47.8375L66.3742 48.5706C66.0802 48.4821 65.7666 48.4821 65.4726 48.5706C65.1833 48.6294 64.9146 48.763 64.6932 48.9583C64.5396 49.0849 64.3985 49.226 64.2719 49.3796C64.0977 49.5819 63.9573 49.7546 63.8505 49.8979C63.7354 50.1001 63.6343 50.2729 63.5472 50.4162C63.3726 50.6783 63.215 50.9513 63.0753 51.2336C62.9868 51.4063 62.772 51.9246 62.4265 52.7841C62.2832 53.1591 62.081 53.7322 61.824 54.5075C61.567 55.2828 61.4111 55.8979 61.3269 56.3277Z" fill="black"/>
<path opacity="0.82" d="M88.0425 55.7252C87.5744 56.1859 87.0541 56.5903 86.4921 56.9302C85.9953 57.2465 85.4772 57.528 84.9417 57.7729C84.5203 57.9583 83.8926 58.1943 83.0879 58.4808C82.4278 58.742 81.9391 58.9443 81.6217 59.0875C81.7429 59.2351 81.8723 59.3758 82.0093 59.5089C82.241 59.7659 82.4306 60.0103 82.6118 60.242C82.7988 60.5052 82.9718 60.778 83.13 61.0594C83.2649 61.3823 83.3803 61.7129 83.4755 62.0496C83.5334 62.2912 83.577 62.536 83.6061 62.7828C83.6348 63.1148 83.6193 63.4492 83.5597 63.7772C83.4489 64.4974 83.1592 65.1782 82.7171 65.7575C82.3774 66.2463 81.9703 66.6846 81.5079 67.0595C81.4827 67.089 81.3942 67.1732 81.2509 67.3165L81.0361 67.4892C80.9101 67.5417 80.7934 67.6143 80.6906 67.7041C80.0861 68.1337 79.4361 68.4954 78.7525 68.7828C78.2771 69.0027 77.7873 69.19 77.2864 69.3432C76.7513 69.4787 76.1972 69.5228 75.6474 69.4738C75.2073 69.3852 74.8023 69.1709 74.4815 68.8568C74.1607 68.5427 73.9379 68.1423 73.84 67.7041C73.5483 66.757 73.5483 65.744 73.84 64.7968C74.0779 63.8061 74.5668 62.8934 75.2598 62.1465C75.8502 61.5831 76.469 61.0501 77.1136 60.5496C76.8819 60.3811 76.7386 60.2799 76.6923 60.2505C75.8548 59.6464 75.049 58.9994 74.2782 58.3122C73.8736 57.9089 73.499 57.4766 73.1575 57.0187C72.774 56.5295 72.4554 55.9927 72.2095 55.4218C72.0372 54.9359 71.9351 54.428 71.9062 53.9133C71.8776 53.7432 71.8776 53.5695 71.9062 53.3993V53.1381C71.9072 53.0504 71.9229 52.9635 71.9525 52.881C71.9473 52.7919 71.9617 52.7028 71.9946 52.6198C71.9942 52.5324 72.0085 52.4455 72.0368 52.3628C72.0632 52.1999 72.107 52.0403 72.1674 51.8867C72.3505 51.2932 72.6112 50.7265 72.9426 50.2012C73.0206 50.1048 73.0923 50.0035 73.1575 49.8979C73.2376 49.8197 73.3096 49.7336 73.3723 49.6409C73.4313 49.5819 73.5324 49.4681 73.6757 49.2953C74.2365 48.7215 74.921 48.2834 75.6769 48.0144L75.8918 47.9302L76.0645 47.8838L76.4521 47.7574L76.8398 47.6689H76.924C76.964 47.6456 77.0086 47.6312 77.0546 47.6268H77.2274C77.2948 47.5934 77.3675 47.572 77.4422 47.5636C77.4991 47.5506 77.5568 47.5421 77.615 47.5383H78.0026C78.0374 47.5451 78.0731 47.5451 78.1079 47.5383C78.1443 47.5338 78.1811 47.5338 78.2175 47.5383H78.7778C80.3872 47.6254 81.9096 48.3866 83.3449 49.822C83.3926 49.8616 83.431 49.9111 83.4573 49.9672C83.4837 50.0233 83.4974 50.0845 83.4974 50.1465C83.4974 50.2084 83.4837 50.2696 83.4573 50.3257C83.431 50.3818 83.3926 50.4314 83.3449 50.4709C83.257 50.5517 83.142 50.5966 83.0226 50.5966C82.9032 50.5966 82.7881 50.5517 82.7003 50.4709C81.4363 49.1788 80.1148 48.5032 78.7357 48.4442H78.4323L78.2596 48.4864H78.1374L77.7919 48.5748C77.6887 48.5949 77.5873 48.623 77.4886 48.6591L77.358 48.7476L77.2316 48.7897L76.9704 48.9625C76.8802 49.013 76.7942 49.0708 76.7134 49.1352L76.5828 49.2616L76.4985 49.3501C76.0878 49.7617 75.7526 50.2424 75.5084 50.7701C75.4781 50.8632 75.4341 50.9512 75.3778 51.0313C75.3519 51.1001 75.3377 51.1727 75.3357 51.2462C75.2947 51.3126 75.2649 51.3851 75.2472 51.4611C75.1275 51.8079 75.0691 52.1729 75.0744 52.5397V52.9274C75.0805 52.9724 75.0963 53.0155 75.1208 53.0538V53.315C75.1461 53.315 75.1629 53.3445 75.1629 53.3993C75.1757 53.4103 75.186 53.4239 75.1932 53.4391C75.2005 53.4544 75.2045 53.4709 75.2051 53.4878L75.4621 54.0018C75.8595 54.548 76.34 55.0285 76.8861 55.426C77.4043 55.8473 78.1206 56.3909 79.039 57.0187C79.8437 57.6254 80.4631 58.0974 80.8928 58.4429L82.7466 57.7097C83.5527 57.3951 84.1566 57.1507 84.5583 56.9766C85.0481 56.7576 85.5225 56.5056 85.9781 56.2223C86.487 55.9201 86.9641 55.5671 87.4021 55.169C87.4343 55.1162 87.4789 55.0723 87.5321 55.0409C87.5853 55.0096 87.6455 54.9919 87.7071 54.9894C87.7688 54.9869 87.8302 54.9997 87.8858 55.0266C87.9413 55.0535 87.9894 55.0937 88.0257 55.1437C88.0674 55.1792 88.1012 55.2231 88.1249 55.2726C88.1487 55.322 88.1617 55.3759 88.1633 55.4307C88.1649 55.4855 88.155 55.54 88.1342 55.5907C88.1134 55.6415 88.0821 55.6872 88.0425 55.7252ZM80.1134 64.2996C80.2181 64.0405 80.2628 63.7611 80.244 63.4822C80.1969 63.3621 80.1391 63.2465 80.0712 63.1367C80.0333 63.0393 79.9743 62.9515 79.8985 62.8797C79.8395 62.7912 79.7553 62.6774 79.6415 62.5342L79.296 62.1887C79.147 62.0844 79.0061 61.9689 78.8747 61.8432C78.6177 61.6451 78.2891 61.4218 77.8846 61.11C77.1863 61.6084 76.5246 62.1562 75.9044 62.7491C75.2797 63.4133 74.8434 64.2322 74.6405 65.1213C74.4059 65.8788 74.4059 66.6896 74.6405 67.4471C74.7022 67.7208 74.8402 67.9714 75.0386 68.1698C75.2369 68.3682 75.4875 68.5062 75.7612 68.5679C76.148 68.615 76.5399 68.5399 76.8819 68.353C77.2528 68.124 77.5866 67.8399 77.872 67.5103C78.2998 67.044 78.7034 66.556 79.0812 66.0482C79.1408 65.9391 79.2129 65.8373 79.296 65.7449C79.4688 65.4878 79.5657 65.3446 79.5952 65.3235C79.8022 65.0007 79.9759 64.6576 80.1134 64.2996Z" fill="black"/>
<path opacity="0.82" d="M102.308 54.2589L102.729 54.4738C102.788 54.4932 102.841 54.5261 102.885 54.5699C102.928 54.6137 102.96 54.6671 102.979 54.7258C102.998 54.7845 103.003 54.8469 102.993 54.9078C102.983 54.9687 102.959 55.0264 102.923 55.0763C102.141 56.5067 101.232 57.8633 100.206 59.1297C97.9587 61.9752 95.7903 63.641 93.7006 64.1269C93.3208 64.2358 92.9314 64.3078 92.5377 64.3418L91.3707 64.5146C91.0842 64.5146 90.7851 64.5146 90.4691 64.4724C90.1305 64.3981 89.7981 64.2981 89.4748 64.1733C89.1768 64.0631 88.9002 63.902 88.6574 63.6971C88.2423 63.3979 87.8781 63.0337 87.5789 62.6185C87.0998 61.9427 86.7498 61.1842 86.5466 60.3811C86.3412 59.5771 86.2392 58.7502 86.2433 57.9204C86.2464 57.0925 86.3483 56.2678 86.5466 55.464C86.7193 54.6679 86.9647 53.8893 87.2797 53.1381C87.5738 52.4083 87.9498 51.7143 88.4004 51.0693C88.8065 50.4541 89.283 49.8885 89.8202 49.3839C90.1657 49.0974 90.4944 48.8235 90.8146 48.5665C91.0426 48.4017 91.2868 48.2605 91.5434 48.1451C91.8208 47.9936 92.1096 47.864 92.4071 47.7575C92.6803 47.6576 92.9625 47.5842 93.2498 47.5384C93.6772 47.4831 94.1089 47.469 94.539 47.4962L94.6696 47.5384H94.8423C94.9401 47.5707 95.0427 47.5864 95.1457 47.5847C95.3355 47.612 95.5229 47.6543 95.706 47.7111C96.0838 47.8103 96.4381 47.9836 96.7484 48.2208C97.0587 48.4581 97.3187 48.7546 97.5135 49.0931C97.9267 49.8412 98.0638 50.7107 97.9011 51.5496C97.6517 53.2515 96.794 54.8053 95.4869 55.9232C93.994 57.2686 92.1043 58.0923 90.1025 58.2702C90.047 58.7852 90.0175 59.3027 90.0141 59.8207C90.0228 60.2723 90.0807 60.7216 90.1868 61.1606C90.2377 61.4017 90.3259 61.6334 90.448 61.8474C90.5124 61.9895 90.5992 62.1204 90.705 62.2351C90.8316 62.3887 90.9727 62.5298 91.1263 62.6564C91.2758 62.7826 91.435 62.8967 91.6024 62.9977C91.8802 63.1602 92.1886 63.2635 92.5082 63.3011C92.8233 63.3593 93.1475 63.3449 93.4562 63.2589C94.4231 63.0036 95.3258 62.5486 96.1063 61.9233C96.946 61.2957 97.7246 60.5903 98.4319 59.8165C99.1177 59.0514 99.7578 58.2467 100.349 57.4064C100.981 56.5131 101.402 55.8811 101.613 55.5103C101.779 55.2311 101.93 54.9428 102.064 54.6465L102.308 54.2589ZM90.4564 56.3277C90.368 56.6732 90.2963 57.0187 90.2416 57.36C91.5426 57.1915 92.7878 56.7274 93.8817 56.0033C94.7976 55.432 95.577 54.6668 96.1653 53.7617C96.6074 53.0584 96.908 52.2755 97.05 51.4569C97.152 50.8178 97.0534 50.1627 96.7677 49.5819C96.6364 49.3366 96.4567 49.1205 96.2395 48.9467C96.0222 48.7728 95.7719 48.6449 95.5038 48.5707L95.6765 47.8375L95.5038 48.5707C95.2098 48.4821 94.8962 48.4821 94.6022 48.5707C94.3135 48.6276 94.0457 48.7615 93.827 48.9583C93.6724 49.0838 93.5312 49.2251 93.4056 49.3797C93.2315 49.5819 93.0911 49.7547 92.9843 49.8979C92.872 50.1002 92.7709 50.2729 92.681 50.4162C92.5064 50.6783 92.3488 50.9513 92.2091 51.2336C92.1206 51.4064 91.9058 51.9246 91.5603 52.7842C91.417 53.1592 91.219 53.7322 90.9578 54.5075C90.6966 55.2828 90.5407 55.898 90.4564 56.3277Z" fill="black"/>
<path opacity="0.82" d="M116.397 54.9499L116.818 55.1226C116.876 55.1354 116.931 55.1619 116.976 55.1999C117.022 55.2379 117.059 55.2863 117.082 55.3411C117.106 55.3959 117.116 55.4555 117.111 55.515C117.107 55.5744 117.089 55.632 117.058 55.683C116.884 56.1437 116.64 56.7251 116.325 57.4274C116.011 58.1296 115.515 59.1858 114.838 60.596C114.211 61.9104 113.49 63.1777 112.681 64.3881C112.137 65.2872 111.421 66.0704 110.574 66.6929C110.426 66.8388 110.251 66.956 110.06 67.0384C109.953 67.0935 109.835 67.1224 109.715 67.1227C109.697 67.1388 109.677 67.1512 109.654 67.1592C109.632 67.1671 109.608 67.1705 109.584 67.169H109.5C109.41 67.1736 109.321 67.1578 109.239 67.1227C109.042 67.0978 108.859 67.0072 108.72 66.8656C108.636 66.7772 108.535 66.6634 108.421 66.5201C108.298 66.331 108.197 66.1289 108.118 65.9176C108.024 65.5487 107.952 65.1744 107.903 64.7968C107.849 64.4398 107.821 64.0793 107.819 63.7182C107.804 62.3779 107.89 61.0384 108.076 59.7111C108.105 59.3403 108.156 58.9148 108.227 58.4471C108.299 57.9794 108.371 57.5075 108.442 57.0482C108.514 56.5889 108.564 56.2055 108.594 55.8389C108.678 55.0931 108.737 54.5201 108.767 54.1156C108.526 54.2582 108.295 54.4173 108.076 54.5917L107.625 54.9372L107.044 55.3586C106.841 55.5018 106.652 55.6451 106.483 55.7799C106.179 55.9865 105.863 56.1737 105.535 56.3403C104.961 56.676 104.304 56.8412 103.639 56.8164H103.247C103.086 56.79 102.928 56.7462 102.776 56.6858C102.484 56.5694 102.22 56.3929 102 56.1676C101.822 55.9804 101.679 55.7618 101.579 55.5229C101.396 55.1422 101.28 54.7333 101.234 54.3136C101.173 53.9446 101.143 53.5711 101.145 53.197C101.173 52.4633 101.303 51.7371 101.533 51.0397C101.751 50.3119 102.118 49.6375 102.611 49.0594C102.879 48.758 103.2 48.5094 103.559 48.3262C103.937 48.157 104.351 48.0832 104.764 48.1114C105.001 48.0834 105.24 48.1359 105.444 48.2605C105.647 48.3851 105.802 48.5744 105.885 48.7981C106.146 49.4007 105.978 50.2939 105.392 51.4695C104.827 52.6088 104.155 53.6922 103.387 54.7055C103.391 54.7375 103.406 54.7672 103.429 54.7897H103.559L103.863 54.7055C104.358 54.5662 104.815 54.3155 105.198 53.9723C105.371 53.8291 105.619 53.61 105.952 53.3234C106.285 53.0369 106.517 52.8347 106.66 52.7209C107.006 52.4344 107.309 52.2027 107.566 52.0299C107.965 51.7859 108.402 51.612 108.859 51.5159C108.986 51.4841 109.116 51.4686 109.247 51.4695H109.635C109.738 51.4685 109.84 51.4842 109.938 51.5159C110.11 51.5719 110.27 51.659 110.41 51.7729C110.54 51.8716 110.657 51.9879 110.755 52.1184C110.871 52.2776 110.954 52.458 111 52.6493C111.089 52.8995 111.147 53.1599 111.172 53.4246C111.201 53.6241 111.215 53.8255 111.215 54.0271C111.215 54.3136 111.215 54.6718 111.172 55.1058C111.143 55.4218 111.113 55.7673 111.084 56.1381C111.025 56.6563 110.941 57.3178 110.827 58.1226C110.709 58.7799 110.612 59.4288 110.524 60.0608C110.439 60.4358 110.321 61.0468 110.178 61.8937C110.035 62.7406 109.921 63.3937 109.833 63.853C109.744 64.3123 109.732 64.6156 109.706 64.7589C109.677 65.0749 109.664 65.3488 109.664 65.5763C109.659 65.6654 109.673 65.7546 109.706 65.8376V65.9218H109.618V65.964H109.748C109.865 65.9912 109.987 65.9763 110.094 65.9218C110.984 65.36 112.032 63.9373 113.237 61.6535C114.345 59.6038 115.338 57.4938 116.211 55.3333C116.338 55.0763 116.397 54.9499 116.397 54.9499ZM102.995 53.7869C103.596 52.9236 104.13 52.015 104.591 51.0692C105.052 50.1226 105.209 49.4906 105.063 49.1732C105.034 49.0889 104.933 49.0425 104.76 49.0425C104.512 49.0686 104.276 49.1586 104.073 49.3038C103.879 49.4694 103.705 49.6575 103.555 49.8642C103.265 50.3527 103.074 50.8941 102.995 51.4569C102.881 52.0239 102.852 52.6048 102.91 53.1802C102.909 53.3854 102.938 53.5897 102.995 53.7869Z" fill="black"/>
<path opacity="0.82" d="M128.636 54.7771L129.003 55.0341C129.247 55.2069 129.268 55.4217 129.066 55.683C128.952 55.8515 128.788 56.0706 128.573 56.3277C128.189 56.7285 127.765 57.0898 127.309 57.4063C126.766 57.8292 126.142 58.1374 125.476 58.3122C125.222 58.3673 124.962 58.3955 124.701 58.3965C124.628 58.3945 124.555 58.3802 124.486 58.3543C123.509 61.3122 122.446 63.2659 121.297 64.2153C121.276 64.2405 121.249 64.261 121.219 64.2755C121.19 64.29 121.157 64.2982 121.124 64.2996C120.945 64.5128 120.726 64.6888 120.48 64.8179C120.333 64.9039 120.171 64.9625 120.004 64.9906C119.903 64.9957 119.803 65.0098 119.704 65.0327C119.616 65.0248 119.529 65.0107 119.443 64.9906C119.071 64.9524 118.716 64.8189 118.411 64.603C118.132 64.4126 117.884 64.1794 117.678 63.912C117.332 63.4599 117.042 62.9675 116.814 62.4457C116.601 61.983 116.414 61.509 116.254 61.0257C115.949 60.1147 115.733 59.1763 115.609 58.2237C115.462 57.3872 115.361 56.5432 115.306 55.6956C115.222 54.4175 115.222 53.1352 115.306 51.8571L115.394 50.3908C115.449 50.1338 115.668 49.9695 116.039 49.8346C116.449 49.7142 116.877 49.6699 117.303 49.704C117.714 49.7183 118.118 49.8203 118.487 50.0032C118.803 50.1759 118.963 50.3782 118.963 50.6099C118.935 50.7145 118.921 50.8221 118.921 50.9301C118.919 51.0398 118.903 51.1488 118.874 51.2546C118.82 51.8276 118.761 52.3922 118.702 52.94C118.558 54.8361 118.487 56.5313 118.487 58.0257C118.479 58.9332 118.537 59.84 118.66 60.7392C118.726 61.4934 118.9 62.2342 119.178 62.9386C119.182 62.9847 119.197 63.0293 119.22 63.0693C119.232 63.0796 119.243 63.0925 119.25 63.107C119.257 63.1215 119.261 63.1373 119.262 63.1535C119.3 63.2148 119.344 63.2726 119.393 63.3263L119.565 63.5833C119.64 63.6216 119.712 63.6652 119.78 63.7139C119.849 63.7398 119.922 63.754 119.995 63.7561C120.115 63.7502 120.232 63.7216 120.341 63.6718C120.433 63.6694 120.523 63.6385 120.598 63.5833L120.686 63.499L120.728 63.5412C121.734 62.6985 122.717 60.86 123.677 58.0257C122.784 57.3347 122.339 55.9302 122.342 53.8122C122.315 52.4473 122.534 51.0888 122.986 49.8009C123.53 48.3936 124.25 47.6942 125.139 47.6942C125.346 47.6913 125.547 47.7579 125.712 47.8832C125.876 48.0085 125.993 48.1852 126.045 48.3852C126.247 49.4997 126.247 50.6415 126.045 51.756C125.834 53.2966 125.524 54.8222 125.118 56.3234L124.777 57.5285C124.952 57.529 125.126 57.5005 125.291 57.4442C125.849 57.2946 126.37 57.0306 126.82 56.6689C127.208 56.3939 127.569 56.0836 127.899 55.742C128.061 55.5567 128.213 55.3626 128.354 55.1605C128.548 54.8908 128.636 54.7771 128.636 54.7771ZM123.981 57.0608C124.843 54.1872 125.288 51.7995 125.316 49.8978C125.361 49.4453 125.302 48.9886 125.144 48.5622C124.655 48.5931 124.224 49.0959 123.85 50.0706C123.428 51.2603 123.224 52.5163 123.248 53.7785C123.248 55.3347 123.492 56.4288 123.981 57.0608Z" fill="black"/>
<path opacity="0.82" d="M143.546 54.2588L143.968 54.4737C144.026 54.4931 144.08 54.526 144.123 54.5698C144.166 54.6136 144.199 54.667 144.218 54.7257C144.237 54.7844 144.241 54.8468 144.232 54.9077C144.222 54.9686 144.198 55.0263 144.162 55.0762C143.381 56.5066 142.473 57.8632 141.448 59.1296C139.201 61.9751 137.032 63.6409 134.939 64.1268C134.559 64.2357 134.17 64.3077 133.776 64.3417L132.613 64.5145C132.327 64.5145 132.023 64.5145 131.708 64.4723C131.37 64.3986 131.039 64.2986 130.717 64.1732C130.418 64.0631 130.14 63.902 129.896 63.6971C129.482 63.3977 129.119 63.0334 128.821 62.6184C128.339 61.9439 127.988 61.185 127.785 60.381C127.583 59.5765 127.483 58.7498 127.486 57.9203C127.49 57.0927 127.59 56.2683 127.785 55.4639C127.958 54.6678 128.203 53.8892 128.518 53.138C128.812 52.4082 129.188 51.7142 129.639 51.0692C130.046 50.454 130.524 49.8884 131.063 49.3838C131.404 49.0973 131.737 48.8234 132.053 48.5664C132.282 48.4006 132.528 48.2593 132.786 48.145C133.056 47.9935 133.338 47.8639 133.629 47.7574C133.902 47.6575 134.184 47.5841 134.471 47.5383C134.9 47.483 135.333 47.4689 135.765 47.4961L135.891 47.5383H136.064C136.162 47.5699 136.264 47.5856 136.367 47.5846C136.557 47.6115 136.745 47.6538 136.928 47.711C137.305 47.8102 137.66 47.9835 137.97 48.2207C138.28 48.458 138.54 48.7545 138.735 49.093C139.15 49.8404 139.288 50.7106 139.123 51.5495C138.875 53.2509 138.019 54.8047 136.713 55.9231C135.219 57.2693 133.327 58.0931 131.324 58.2701C131.27 58.7852 131.242 59.3027 131.24 59.8206C131.244 60.2725 131.302 60.7223 131.413 61.1605C131.462 61.4014 131.549 61.6331 131.67 61.8473C131.734 61.9894 131.821 62.1203 131.927 62.235C132.052 62.3893 132.194 62.5304 132.348 62.6563C132.496 62.7823 132.654 62.8964 132.82 62.9976C133.098 63.1594 133.406 63.2627 133.726 63.301C134.041 63.3592 134.365 63.3448 134.674 63.2588C135.64 63.0035 136.543 62.5485 137.324 61.9232C138.163 61.2956 138.942 60.5902 139.649 59.8164C140.335 59.0504 140.977 58.2457 141.571 57.4063C142.202 56.513 142.624 55.881 142.834 55.5102C143.049 55.1352 143.201 54.8487 143.289 54.6464L143.546 54.2588ZM131.695 56.3276C131.611 56.6731 131.535 57.0186 131.48 57.3599C132.781 57.1915 134.026 56.7273 135.12 56.0032C136.037 55.4331 136.817 54.6677 137.404 53.7616C137.847 53.059 138.148 52.2758 138.288 51.4568C138.39 50.8177 138.292 50.1626 138.006 49.5818C137.875 49.3362 137.696 49.1199 137.478 48.946C137.261 48.7721 137.011 48.6444 136.742 48.5706L136.915 47.8374L136.742 48.5706C136.447 48.4822 136.132 48.4822 135.836 48.5706C135.548 48.6285 135.28 48.7623 135.061 48.9582C134.907 49.0838 134.765 49.225 134.64 49.3796C134.467 49.5818 134.32 49.7546 134.219 49.8978C134.117 50.0411 134.004 50.2728 133.919 50.4161C133.743 50.6781 133.584 50.9512 133.443 51.2335C133.359 51.4063 133.144 51.9245 132.799 52.7841C132.655 53.1591 132.453 53.7321 132.192 54.5074C131.931 55.2827 131.779 55.8979 131.695 56.3276Z" fill="black"/>
</g>
<path d="M146.281 65.6266C145.118 65.6266 144.275 65.0452 143.753 63.8822C143.208 62.482 142.959 60.9845 143.02 59.4833C143.026 58.3388 143.108 57.1959 143.264 56.062C143.43 54.8485 143.593 53.6842 143.753 52.569C143.913 51.4538 144.076 50.4412 144.242 49.531C144.38 48.8522 144.462 48.163 144.486 47.4706C144.486 47.1926 144.44 47.0493 144.347 46.9819C144.254 46.9145 144.208 46.8218 144.208 46.7754C144.208 46.59 144.499 46.4257 145.08 46.2867C145.733 46.137 146.402 46.0663 147.073 46.076C147.603 46.071 148.13 46.142 148.64 46.2867C149.129 46.4271 149.373 46.708 149.373 47.1294C149.281 47.9689 149.117 48.7992 148.884 49.6111C148.561 50.9398 148.189 52.4285 147.768 54.0774C147.347 55.7263 146.974 57.3331 146.651 58.8977C146.375 60.0775 146.211 61.281 146.163 62.4918C146.163 63.2376 146.302 63.6084 146.584 63.6084C146.866 63.6084 147.355 63.1112 147.911 62.2474C148.524 61.2944 149.087 60.3099 149.596 59.2979C150.157 58.2066 150.654 57.1448 151.096 56.121C151.539 55.0971 151.829 54.4019 151.973 54.0142C152.044 53.8604 152.151 53.7256 152.284 53.6205C152.418 53.5154 152.574 53.4429 152.74 53.4089C152.906 53.3749 153.078 53.3803 153.242 53.4247C153.406 53.4691 153.557 53.5512 153.683 53.6645C153.788 53.7619 153.87 53.881 153.924 54.0135C153.978 54.1459 154.002 54.2885 153.995 54.4314C153.925 54.795 153.808 55.1478 153.645 55.4805C153.414 56.0409 153.157 56.6224 152.879 57.2249L152.074 58.9735C151.921 59.3321 151.746 59.681 151.551 60.0185C151.034 61.0382 150.452 62.0234 149.807 62.9679C149.397 63.5739 148.928 64.1384 148.408 64.6533C148.084 64.9888 147.692 65.2516 147.258 65.4244C146.945 65.5441 146.615 65.6124 146.281 65.6266ZM144.886 40.8512C144.872 40.4644 144.936 40.0787 145.073 39.7169C145.211 39.355 145.419 39.0244 145.687 38.7445C145.963 38.4621 146.295 38.2411 146.663 38.0959C147.03 37.9507 147.424 37.8845 147.819 37.9018C148.437 37.8693 149.043 38.0829 149.504 38.4959C149.718 38.7095 149.884 38.9659 149.993 39.2484C150.101 39.5308 150.148 39.8329 150.132 40.1349C150.135 40.5279 150.059 40.9175 149.909 41.2806C149.759 41.6436 149.537 41.9726 149.256 42.248C148.976 42.5233 148.643 42.7392 148.277 42.8829C147.911 43.0266 147.52 43.0952 147.128 43.0844C145.628 43.0717 144.886 42.3302 144.886 40.8512Z" fill="#F2F2F2"/>
<path d="M146.281 66.09C145.64 66.1018 145.011 65.9133 144.483 65.5507C143.954 65.1882 143.552 64.6697 143.332 64.0676C142.753 62.6105 142.479 61.0503 142.527 59.4833C142.533 58.3176 142.616 57.1535 142.775 55.9987C142.94 54.7852 143.1 53.6181 143.264 52.5015C143.428 51.3849 143.593 50.3526 143.757 49.4467C143.888 48.7953 143.967 48.1345 143.993 47.4706C143.997 47.4159 143.997 47.361 143.993 47.3063C143.915 47.2405 143.85 47.1596 143.804 47.0684C143.758 46.9771 143.73 46.8775 143.723 46.7754C143.723 46.1265 144.566 45.9327 144.949 45.8315C145.64 45.6753 146.347 45.6003 147.056 45.6082C147.626 45.6059 148.193 45.6825 148.741 45.8358C149.039 45.888 149.31 46.0431 149.505 46.274C149.701 46.505 149.809 46.7972 149.811 47.0998C149.811 47.3315 149.757 47.854 149.31 49.6911C148.981 51.0198 148.608 52.5099 148.189 54.1616C147.768 55.8175 147.397 57.4355 147.077 58.9608C146.809 60.1104 146.649 61.2827 146.601 62.4622C146.597 62.6499 146.611 62.8376 146.643 63.0226C146.974 62.7132 147.258 62.3569 147.486 61.965C148.085 61.03 148.636 60.0653 149.137 59.0746C149.681 58.0086 150.182 56.9678 150.625 55.9229C151.067 54.8779 151.353 54.2375 151.488 53.8498L151.518 53.7866C151.623 53.5716 151.777 53.3839 151.967 53.2383C152.157 53.0927 152.379 52.9931 152.614 52.9474C152.849 52.9017 153.091 52.911 153.322 52.9748C153.553 53.0385 153.766 53.1549 153.944 53.3147C154.099 53.4561 154.221 53.629 154.302 53.8216C154.383 54.0143 154.422 54.2222 154.416 54.4313C154.36 54.8596 154.229 55.2746 154.029 55.6574C153.784 56.2515 153.523 56.8414 153.254 57.4229L153.186 57.5661L152.453 59.1673C152.293 59.5399 152.112 59.9029 151.91 60.2544C151.387 61.2937 150.795 62.2973 150.14 63.2586C149.71 63.8847 149.222 64.4688 148.682 65.003C148.311 65.3862 147.859 65.6826 147.359 65.8709C147.014 66.0026 146.65 66.0766 146.281 66.09ZM144.81 46.8386C144.901 47.0363 144.943 47.2532 144.933 47.4706C144.907 48.1912 144.822 48.9085 144.68 49.6153C144.52 50.5085 144.355 51.524 144.195 52.6363C144.035 53.7487 143.871 54.9158 143.707 56.1209C143.552 57.2379 143.471 58.364 143.466 59.4917C143.419 60.9313 143.667 62.3653 144.195 63.7052C144.617 64.708 145.299 65.1757 146.281 65.1757C146.553 65.1683 146.822 65.1171 147.077 65.024C147.446 64.8741 147.78 64.6471 148.055 64.3583C148.551 63.8666 148.999 63.3291 149.394 62.753C150.028 61.8195 150.599 60.8455 151.105 59.8372L151.13 59.7951C151.314 59.4786 151.477 59.1507 151.619 58.8133C151.855 58.2993 152.099 57.7642 152.356 57.2122L152.424 57.0647C152.685 56.4959 152.942 55.9144 153.182 55.333C153.315 55.0516 153.421 54.7581 153.498 54.4566C153.506 54.3787 153.496 54.2999 153.468 54.2267C153.441 54.1535 153.396 54.0879 153.338 54.0352C153.266 53.9692 153.18 53.9211 153.086 53.8948C152.993 53.8686 152.894 53.865 152.798 53.8843C152.703 53.9037 152.614 53.9454 152.537 54.006C152.461 54.0667 152.401 54.1446 152.36 54.2333C152.213 54.6251 151.939 55.3035 151.492 56.3147C151.046 57.326 150.532 58.4215 149.976 59.517C149.467 60.5377 148.904 61.5307 148.29 62.4917C147.633 63.5114 147.123 63.9959 146.639 64.0634H146.571C145.986 64.0634 145.691 63.5282 145.691 62.4791C145.737 61.2356 145.904 59.9995 146.188 58.7881C146.508 57.2459 146.887 55.6195 147.309 53.951C147.73 52.2824 148.101 50.8119 148.425 49.4846C148.65 48.71 148.809 47.9179 148.901 47.1167C148.901 47.0071 148.901 46.8428 148.505 46.729C148.036 46.5984 147.551 46.5332 147.064 46.5352C146.431 46.5276 145.799 46.5941 145.181 46.7332C145.013 46.7754 144.895 46.8091 144.81 46.8386ZM147.119 43.5394C145.379 43.5394 144.419 42.5787 144.419 40.8385C144.407 40.3936 144.484 39.9508 144.644 39.5357C144.805 39.1206 145.046 38.7414 145.354 38.42C145.673 38.0932 146.058 37.837 146.482 37.6679C146.907 37.4988 147.362 37.4205 147.819 37.4382C148.552 37.4082 149.267 37.6669 149.811 38.1588C150.072 38.416 150.276 38.7253 150.41 39.0665C150.543 39.4076 150.603 39.7731 150.587 40.1391C150.591 40.5925 150.503 41.0421 150.33 41.461C150.156 41.8798 149.9 42.2593 149.576 42.5768C149.252 42.8942 148.868 43.1431 148.446 43.3085C148.024 43.4739 147.572 43.5524 147.119 43.5394ZM147.819 38.3694C147.487 38.3516 147.156 38.4043 146.846 38.5242C146.537 38.644 146.257 38.8283 146.024 39.0647C145.799 39.3006 145.624 39.579 145.508 39.8836C145.392 40.1882 145.338 40.5129 145.35 40.8385C145.35 42.0773 145.881 42.6082 147.119 42.6082C147.449 42.6178 147.777 42.561 148.084 42.4411C148.391 42.3211 148.671 42.1406 148.907 41.9102C149.143 41.6797 149.33 41.4042 149.457 41.0999C149.584 40.7956 149.649 40.4689 149.647 40.1391C149.664 39.9004 149.63 39.6609 149.547 39.4364C149.464 39.2119 149.335 39.0076 149.167 38.8371C148.795 38.5116 148.312 38.3438 147.819 38.3694Z" fill="#FBB03B"/>
<path d="M155.356 40.139C155.08 40.1336 154.818 40.0218 154.623 39.827C154.428 39.6322 154.316 39.3695 154.311 39.0941C154.317 38.8185 154.429 38.556 154.624 38.3607C154.818 38.1655 155.08 38.0524 155.356 38.0449H157.593C157.778 36.7893 157.929 35.719 158.044 34.8342C158.133 34.2548 158.192 33.6711 158.221 33.0856C158.221 32.8539 158.149 32.7148 158.01 32.6642C157.871 32.6137 157.871 32.4999 157.871 32.4536C157.871 32.2682 158.174 32.1039 158.777 31.9648C159.443 31.8202 160.122 31.751 160.804 31.7583C161.321 31.7543 161.837 31.8123 162.341 31.9311C162.805 32.0491 163.036 32.2935 163.036 32.6642C163.049 33.265 162.979 33.8646 162.83 34.4466C162.64 35.3988 162.409 36.5997 162.131 38.0407H163.525C163.669 38.0333 163.813 38.0578 163.946 38.1124C164.079 38.167 164.199 38.2505 164.296 38.3567C164.479 38.5566 164.579 38.8189 164.574 39.0898C164.577 39.3605 164.478 39.6224 164.296 39.823C164.198 39.9278 164.078 40.0099 163.945 40.0638C163.812 40.1176 163.669 40.1418 163.525 40.1348H161.714C161.34 41.9972 160.944 44.0337 160.525 46.2444C160.107 48.4551 159.722 50.6081 159.371 52.7037C159.023 54.7964 158.732 56.6938 158.499 58.3961C158.299 59.702 158.183 61.0193 158.149 62.3399C158.149 63.1826 158.267 63.5745 158.499 63.5282C158.822 63.5282 159.264 63.097 159.826 62.2346C160.439 61.2816 161.001 60.2971 161.511 59.2852C162.067 58.1939 162.581 57.1321 163.045 56.1082C163.508 55.0843 163.816 54.3891 163.955 54.0014C164.027 53.8476 164.133 53.7128 164.267 53.6077C164.4 53.5026 164.556 53.4301 164.722 53.3961C164.888 53.3621 165.06 53.3675 165.224 53.4119C165.388 53.4563 165.539 53.5384 165.665 53.6517C165.771 53.7486 165.853 53.8676 165.907 54.0002C165.961 54.1328 165.985 54.2756 165.977 54.4186C165.91 54.7823 165.794 55.1352 165.632 55.4677C165.396 56.0281 165.143 56.6096 164.861 57.2121C164.578 57.8146 164.313 58.4003 164.06 58.9607C163.905 59.3188 163.729 59.6677 163.534 60.0057C163.018 61.0263 162.435 62.0116 161.789 62.9551C161.379 63.5599 160.912 64.1243 160.395 64.6405C160.068 64.9754 159.675 65.2381 159.24 65.4116C158.938 65.5177 158.621 65.576 158.301 65.5843C157.752 65.6112 157.209 65.4622 156.75 65.1591C156.292 64.856 155.942 64.4145 155.752 63.8989C155.228 62.5916 154.978 61.1903 155.019 59.7823C155.019 58.8048 155.088 57.5239 155.225 55.9396C155.363 54.3554 155.55 52.67 155.786 50.8834C156.019 49.0885 156.274 47.2486 156.552 45.3637C156.831 43.4789 157.086 41.7219 157.319 40.0927L155.356 40.139Z" fill="#F2F2F2"/>
<path d="M158.293 66.0904C157.655 66.1168 157.025 65.9429 156.491 65.5931C155.956 65.2432 155.545 64.7349 155.314 64.1395C154.764 62.7649 154.502 61.2922 154.543 59.8122C154.543 58.8305 154.615 57.5243 154.754 55.9316C154.893 54.3389 155.087 52.624 155.314 50.8501C155.542 49.0762 155.803 47.2181 156.085 45.3262C156.335 43.6408 156.566 42.0622 156.776 40.5902H155.356C155.057 40.5921 154.764 40.5044 154.514 40.3384C154.265 40.1725 154.071 39.9358 153.957 39.6588C153.842 39.3818 153.814 39.077 153.874 38.7835C153.934 38.49 154.081 38.2213 154.295 38.0116C154.433 37.8699 154.598 37.7571 154.78 37.6797C154.963 37.6023 155.158 37.5619 155.356 37.5607H157.189C157.349 36.4765 157.481 35.5411 157.585 34.7546C157.67 34.1959 157.726 33.6334 157.754 33.0691L157.682 32.9975C157.603 32.9304 157.538 32.8481 157.491 32.7555C157.444 32.6629 157.416 32.5618 157.408 32.4582C157.408 31.8093 158.297 31.6155 158.672 31.5186C159.364 31.3657 160.07 31.2908 160.779 31.2953C161.334 31.2908 161.887 31.3544 162.426 31.4849C162.709 31.5188 162.97 31.6523 163.163 31.8616C163.356 32.0709 163.468 32.3422 163.479 32.6267C163.509 33.2677 163.444 33.9095 163.286 34.5312C163.126 35.3739 162.929 36.3866 162.696 37.5692H163.538C163.748 37.5623 163.956 37.6009 164.149 37.6824C164.341 37.7639 164.514 37.8863 164.655 38.0411C164.916 38.3299 165.06 38.7053 165.06 39.0945C165.06 39.4836 164.916 39.859 164.655 40.1478C164.514 40.3027 164.341 40.425 164.149 40.5065C163.956 40.588 163.748 40.6266 163.538 40.6197H162.106C161.765 42.3304 161.398 44.2139 160.994 46.3501C160.572 48.5496 160.189 50.7195 159.843 52.7968C159.498 54.874 159.207 56.7869 158.976 58.4766C158.771 59.7553 158.649 61.0459 158.609 62.3403C158.607 62.5487 158.618 62.757 158.643 62.9639C158.95 62.6761 159.214 62.3455 159.426 61.9822C160.028 61.049 160.58 60.0841 161.078 59.0917C161.63 58.0131 162.144 56.9513 162.607 55.9316C163.071 54.9119 163.37 54.2209 163.5 53.867L163.53 53.8038C163.635 53.5887 163.789 53.401 163.979 53.2554C164.17 53.1098 164.391 53.0102 164.626 52.9645C164.861 52.9188 165.104 52.9282 165.335 52.9919C165.565 53.0557 165.778 53.172 165.957 53.3319C166.111 53.4732 166.233 53.6461 166.314 53.8388C166.396 54.0315 166.435 54.2394 166.429 54.4485C166.373 54.8762 166.243 55.2911 166.045 55.6746C165.801 56.256 165.54 56.8502 165.27 57.44L165.127 57.7476L164.465 59.1802C164.306 59.5545 164.125 59.9189 163.922 60.2715C163.4 61.3101 162.809 62.3124 162.152 63.2715C161.725 63.9009 161.237 64.4865 160.695 65.0201C160.323 65.4034 159.871 65.6998 159.372 65.8881C159.026 66.014 158.661 66.0823 158.293 66.0904ZM155.344 38.5088C155.268 38.5089 155.193 38.5252 155.124 38.5564C155.055 38.5876 154.994 38.6332 154.944 38.69C154.884 38.7427 154.838 38.8078 154.806 38.8806C154.775 38.9534 154.76 39.0321 154.762 39.1113C154.772 39.2623 154.837 39.4045 154.944 39.5115C155.051 39.6184 155.193 39.6829 155.344 39.6928H157.838L157.766 40.2068C157.53 41.8389 157.275 43.5973 157 45.4821C156.717 47.3656 156.46 49.2195 156.229 50.9892C155.997 52.7588 155.807 54.4442 155.672 56.0454C155.538 57.6465 155.466 58.8853 155.466 59.8375C155.426 61.1831 155.662 62.5226 156.161 63.7729C156.314 64.2027 156.601 64.5714 156.981 64.8236C157.361 65.0759 157.813 65.1981 158.268 65.1718C158.538 65.164 158.806 65.1128 159.06 65.0201C159.43 64.8695 159.765 64.6426 160.041 64.3544C160.536 63.8625 160.983 63.325 161.377 62.7491C162.01 61.8156 162.582 60.8416 163.088 59.8333L163.113 59.7912C163.297 59.4747 163.46 59.1468 163.602 58.8094C163.812 58.3459 164.023 57.8656 164.263 57.3726L164.406 57.0608C164.672 56.4836 164.929 55.9021 165.169 55.3291C165.304 55.0476 165.409 54.7523 165.481 54.4485C165.489 54.3705 165.479 54.2917 165.452 54.2184C165.424 54.1451 165.379 54.0795 165.321 54.0271C165.249 53.9611 165.163 53.9129 165.069 53.8867C164.975 53.8605 164.877 53.8569 164.781 53.8762C164.686 53.8956 164.596 53.9373 164.52 53.9979C164.444 54.0586 164.383 54.1365 164.343 54.2251C164.196 54.6128 163.901 55.2954 163.437 56.3319C162.974 57.3684 162.447 58.4386 161.891 59.5257C161.381 60.5456 160.818 61.5385 160.206 62.5005C159.549 63.5159 159.03 63.9794 158.521 64.0047C158.437 64.016 158.351 64.0095 158.27 63.9855C158.188 63.9615 158.113 63.9207 158.049 63.8656C157.775 63.6465 157.665 63.2041 157.665 62.353C157.698 61.0111 157.816 59.6727 158.019 58.3459C158.251 56.6605 158.546 54.7265 158.891 52.6409C159.237 50.5552 159.629 48.381 160.046 46.1731C160.467 43.8768 160.888 41.8754 161.234 40.0551L161.31 39.6843H163.505C163.583 39.6921 163.661 39.6816 163.734 39.6538C163.807 39.6261 163.873 39.5817 163.926 39.5242C164.033 39.4104 164.092 39.2593 164.09 39.1029C164.091 38.9466 164.033 38.7958 163.926 38.6815C163.873 38.6241 163.807 38.5797 163.734 38.5519C163.661 38.5241 163.583 38.5137 163.505 38.5214H161.558L161.668 37.9695L162.363 34.3711C162.504 33.8491 162.574 33.3107 162.574 32.77V32.6815C162.574 32.6015 162.574 32.4877 162.228 32.3992C161.762 32.2892 161.283 32.2355 160.804 32.2391C160.158 32.233 159.514 32.2995 158.883 32.4371C158.735 32.4708 158.622 32.5045 158.537 32.5298C158.641 32.7009 158.693 32.8987 158.685 33.0986C158.658 33.7039 158.599 34.3073 158.508 34.9062C158.39 35.7953 158.238 36.8655 158.053 38.1254L157.994 38.5214L155.344 38.5088Z" fill="#FBB03B"/>
<path d="M57.9564 56.2686L58.3777 56.4414C58.6642 56.5552 58.7527 56.7448 58.6389 57.0018C56.7121 61.513 54.8443 64.5299 53.0354 66.0524C52.7777 66.2853 52.5047 66.5007 52.2181 66.697C51.9176 66.9575 51.5831 67.1758 51.2238 67.3459C51.0552 67.4049 50.9078 67.4471 50.8025 67.4765L50.7182 67.5187H50.2969C50.2287 67.5186 50.1612 67.5043 50.0989 67.4765C49.9655 67.4568 49.8352 67.42 49.7113 67.367C49.6493 67.3402 49.5924 67.3031 49.5427 67.2574C49.4779 67.2263 49.4193 67.1834 49.37 67.131L49.2394 67.0004L49.1088 66.8698C49.0434 66.7791 48.9716 66.6932 48.8939 66.6128C48.7207 66.3495 48.5793 66.0666 48.4726 65.7701C48.3121 65.408 48.1824 65.0331 48.085 64.6493C47.9122 63.933 47.7816 63.3305 47.6974 62.8417C47.6679 62.5552 47.63 62.2434 47.5878 61.9147C47.5457 61.5861 47.5078 61.2827 47.4825 61.0088C47.4572 60.7349 47.4151 60.4274 47.373 60.0819C47.3308 59.7363 47.2929 59.4372 47.2634 59.1759C47.2381 58.8052 47.1623 58.2448 47.0485 57.4905C46.9938 57.2925 46.9348 57.0692 46.8758 56.7616C46.8168 56.454 46.762 56.256 46.7031 56.0285C46.505 55.4807 46.3449 55.0931 46.2312 54.8613C46.0347 54.4871 45.7721 54.1517 45.456 53.8712C45.3127 53.7279 45.1526 53.5846 44.9799 53.4498C44.596 53.6613 44.1925 53.8349 43.7749 53.9681C43.1901 54.1743 42.5812 54.3046 41.9633 54.3557C41.8049 54.3582 41.6468 54.3441 41.4914 54.3136C41.3285 54.315 41.1668 54.285 41.0153 54.2251C40.8629 54.2028 40.7182 54.1434 40.594 54.0523C40.4634 53.9593 40.3718 53.8212 40.337 53.6647C40.278 53.6197 40.2313 53.5607 40.2011 53.4929C40.1709 53.4252 40.1582 53.351 40.1642 53.277C40.1825 53.0381 40.2665 52.8088 40.4071 52.6147C40.5477 52.4206 40.7392 52.2692 40.9605 52.1773C41.5356 51.8663 42.1818 51.7109 42.8354 51.7265C43.1514 51.7265 43.5516 51.7265 44.0403 51.6843C44.1836 51.5116 44.3437 51.322 44.5164 51.1239C45.0613 50.4638 45.5781 49.7742 46.0669 49.0551C46.2396 48.8234 46.7115 48.0607 47.4909 46.7714C48.5275 45.0379 49.448 43.2376 50.2463 41.3823C50.6632 40.4858 51.0234 39.5641 51.3249 38.6225C51.3605 38.5541 51.3888 38.482 51.4092 38.4076L51.4976 38.1506C51.5229 38.0621 51.5482 37.9905 51.5608 37.9357C51.5735 37.8809 51.5987 37.8051 51.624 37.7208C51.6493 37.6365 51.6746 37.5523 51.6914 37.4806C51.6984 37.4021 51.6984 37.3232 51.6914 37.2447C51.821 36.8234 51.9071 36.39 51.9484 35.9511C52.0945 35.2409 52.0945 34.5083 51.9484 33.798C51.8798 33.4275 51.7364 33.0748 51.5271 32.7615L51.485 32.6772L51.3965 32.5888C51.3581 32.5286 51.3159 32.4709 51.2701 32.416C51.2302 32.3827 51.1863 32.3544 51.1395 32.3317L51.0552 32.2011C50.538 31.7997 49.9529 31.4943 49.3279 31.2994C48.9824 31.1814 48.7549 31.1098 48.6411 31.0803C48.5129 31.0583 48.3834 31.0442 48.2535 31.0382C48.1545 31.0087 48.0491 31.0087 47.9502 31.0382C47.4752 31.0563 47.0139 31.2019 46.6146 31.4595C45.4673 32.2335 44.4311 33.1606 43.5348 34.2152C42.3234 35.5778 41.2204 37.0331 40.2359 38.5677C39.2944 40.0606 38.4757 41.6276 37.788 43.2531C37.5858 44.4877 37.3667 45.6801 37.1855 46.8304C36.5255 50.94 36.0662 54.2447 35.8078 56.7448C35.6604 58.2068 35.5761 59.374 35.5466 60.2335C35.5427 60.5937 35.5582 60.9537 35.593 61.3122C35.5847 61.4707 35.5989 61.6296 35.6351 61.7841L35.5466 61.8726C35.5304 61.8734 35.5146 61.8776 35.5001 61.8849C35.4856 61.8921 35.4728 61.9023 35.4624 61.9147C35.4501 61.9253 35.4401 61.9382 35.4328 61.9526C35.4256 61.9671 35.4213 61.9829 35.4202 61.999V62.5594H35.2475C35.1991 62.5396 35.1548 62.5111 35.1169 62.4751C35.0526 62.4413 34.9942 62.3972 34.9441 62.3445C34.846 62.212 34.76 62.071 34.6871 61.9231C34.6567 61.8035 34.6128 61.6876 34.5565 61.5776C34.491 61.3377 34.4473 61.0923 34.4259 60.8445C34.3303 60.4035 34.2586 59.9576 34.211 59.5088C34.1268 58.704 34.0552 57.8023 33.9962 56.7953C33.9372 55.1858 33.9512 53.4035 34.0383 51.4484C34.1282 48.4624 34.3726 45.2602 34.7714 41.8416C35.0298 39.482 35.3458 37.1688 35.7194 34.902L36.1407 32.2727C36.1908 31.9861 36.3268 31.7214 36.5307 31.5137C36.7346 31.3061 36.9968 31.1652 37.2824 31.1098C37.5765 31.0357 37.883 31.026 38.1811 31.0812C38.4792 31.1365 38.7619 31.2555 39.0098 31.43C39.2573 31.5805 39.4509 31.8054 39.5629 32.0726C39.6749 32.3397 39.6995 32.6354 39.6334 32.9174C39.6334 33.0073 39.375 34.4581 38.8582 37.27C38.6854 38.218 38.5127 39.1408 38.3399 40.0298C39.4289 38.0492 40.6983 36.1733 42.1318 34.4258C43.5671 32.673 44.9181 31.4385 46.1848 30.7222C46.6824 30.3925 47.2282 30.1423 47.8027 29.9806C47.9561 29.9197 48.1158 29.8759 48.2788 29.85L48.7001 29.8078H49.1509C49.3658 29.8078 49.5048 29.7868 49.5722 29.7868C50.4682 29.7169 51.3679 29.8614 52.197 30.2081C52.3788 30.2555 52.5532 30.3279 52.7152 30.423C52.8243 30.5041 52.9398 30.5759 53.0607 30.6379C53.145 30.7264 53.204 30.7685 53.2334 30.7685C53.2649 30.8009 53.3003 30.8292 53.3388 30.8528C53.3851 30.8823 53.4062 30.9118 53.4062 30.9413C53.5199 31.0255 53.5831 31.0761 53.6 31.093L53.7938 31.2868L53.9665 31.4595C54.0139 31.5388 54.072 31.6112 54.1393 31.6744L54.312 31.8893C54.3445 31.9284 54.3727 31.9708 54.3963 32.0157C54.4186 32.0637 54.4485 32.1078 54.4848 32.1463C54.5395 32.2348 54.6406 32.4034 54.7839 32.6646C55.11 33.2999 55.3292 33.9847 55.4327 34.6913C55.513 35.1604 55.5552 35.6353 55.5591 36.1112C55.5866 36.7165 55.5584 37.323 55.4749 37.9231C55.4454 38.0958 55.3864 38.3823 55.3021 38.7658C55.2178 39.1492 55.1589 39.4989 55.1294 39.6717C54.8326 40.8082 54.4437 41.9186 53.9665 42.9919C53.0576 45.0686 51.8683 47.0109 50.4317 48.7644C49.7861 49.5629 49.082 50.3121 48.3251 51.006C47.9038 51.381 47.5078 51.7096 47.1623 51.9961C47.209 52.0184 47.2517 52.0483 47.2887 52.0846C47.6879 52.2704 48.0641 52.5023 48.4094 52.7756C49.007 53.2247 49.5181 53.7787 49.9177 54.4105C50.1138 54.7438 50.287 55.0901 50.4359 55.447C50.5965 55.7969 50.7372 56.1556 50.8572 56.5214C51.0519 57.2289 51.1927 57.9501 51.2785 58.6788C51.4222 60.0247 51.4222 61.382 51.2785 62.7279C51.273 62.8581 51.2575 62.9877 51.2322 63.1156C51.2069 63.2883 51.1774 63.499 51.1479 63.7434C51.1184 63.9878 51.089 64.1942 51.0637 64.367C51.0342 64.683 51.0131 64.9569 50.9963 65.1844C50.9794 65.4119 50.9963 65.5468 50.9963 65.572L50.9541 65.6184L50.912 65.6605L50.8235 65.7448H50.7519L50.9246 65.8333C51.1823 65.8875 51.4496 65.873 51.6999 65.7911C51.9799 65.6948 52.2419 65.5524 52.4751 65.3698C54.1603 63.9653 55.9271 61.0636 57.7752 56.6647L57.9564 56.2686ZM43.0882 52.6071H42.8312C42.4175 52.5931 42.0055 52.6663 41.622 52.822C41.3074 52.9653 41.122 53.1057 41.0659 53.2433C41.1177 53.271 41.1756 53.2855 41.2344 53.2855C41.4513 53.3148 41.6719 53.3005 41.8832 53.2433C42.3265 53.1219 42.7379 52.9047 43.0882 52.6071Z" fill="#FBB03B"/>
<path d="M72.5211 55.451L72.9424 55.6659C73.001 55.6853 73.0542 55.7182 73.0976 55.762C73.141 55.8058 73.1735 55.8592 73.1924 55.9179C73.2113 55.9766 73.216 56.039 73.2063 56.0999C73.1965 56.1608 73.1725 56.2185 73.1363 56.2684C72.3575 57.6983 71.4493 59.0537 70.423 60.3176C68.176 63.1659 66.0076 64.8331 63.9179 65.319C63.5356 65.4235 63.1452 65.4954 62.7508 65.5339L61.588 65.7067C61.3015 65.7067 60.9982 65.7067 60.6822 65.6645C60.3448 65.5889 60.0138 65.4875 59.6921 65.3612C59.3942 65.2527 59.1176 65.093 58.8747 64.8892C58.4596 64.59 58.0954 64.2258 57.7961 63.8106C57.3136 63.1353 56.9634 62.3747 56.7639 61.569C56.5582 60.7665 56.4563 59.941 56.4606 59.1125C56.4635 58.2846 56.5653 57.4599 56.7639 56.6561C56.9336 55.8611 57.1776 55.0838 57.4928 54.3344C57.7877 53.605 58.1636 52.911 58.6135 52.2656C59.0213 51.6506 59.4992 51.085 60.0375 50.5802L61.0276 49.7628C61.2577 49.5989 61.5033 49.4578 61.7607 49.3414C62.0385 49.1908 62.3272 49.0612 62.6244 48.9538C62.8983 48.8572 63.1803 48.7853 63.4671 48.7389C63.8959 48.6837 64.329 48.6696 64.7605 48.6968L64.8911 48.7389H65.0765C65.1732 48.7694 65.2743 48.7837 65.3756 48.781C65.566 48.8072 65.7536 48.8509 65.936 48.9116C66.3141 49.0098 66.669 49.1822 66.9801 49.4187C67.2911 49.6553 67.552 49.9512 67.7476 50.2895C68.1584 51.0383 68.2955 51.9069 68.1352 52.7459C67.8824 54.4478 67.0254 56.0018 65.7211 57.1238C64.2281 58.4691 62.3384 59.2928 60.3367 59.4707C60.281 59.9857 60.2514 60.5032 60.2482 61.0213C60.2572 61.4714 60.3151 61.9193 60.4209 62.3569C60.4724 62.5986 60.559 62.8314 60.6779 63.0479C60.7448 63.1897 60.8328 63.3204 60.9392 63.4356C61.0647 63.5902 61.2059 63.7314 61.3605 63.8569C61.5092 63.9853 61.6684 64.1009 61.8366 64.2024C62.114 64.3625 62.4205 64.4656 62.7382 64.5058C63.0536 64.5627 63.3778 64.5468 63.6861 64.4595C64.6549 64.2091 65.5586 63.7536 66.3362 63.1238C67.1773 62.4964 67.9574 61.791 68.6661 61.017C69.3516 60.2503 69.9916 59.4441 70.5831 58.6027C71.2151 57.7123 71.6364 57.0802 71.847 56.7066C72.0136 56.4347 72.1641 56.1534 72.2978 55.8639L72.5211 55.451ZM60.6695 57.5198C60.5853 57.8653 60.5136 58.2066 60.4546 58.5521C61.7567 58.3824 63.003 57.9184 64.099 57.1954C65.0139 56.6229 65.7932 55.858 66.3826 54.9538C66.8229 54.25 67.1219 53.4672 67.2631 52.649C67.3687 52.0103 67.2714 51.3546 66.985 50.774C66.8537 50.5287 66.674 50.3126 66.4568 50.1388C66.2395 49.965 65.9892 49.837 65.7211 49.7628L65.8938 49.0296L65.7211 49.7628C65.4256 49.6744 65.1107 49.6744 64.8153 49.7628C64.5266 49.8197 64.2587 49.9536 64.04 50.1504C63.8855 50.276 63.7443 50.4172 63.6187 50.5718C63.4446 50.774 63.3041 50.9468 63.1974 51.09C63.0794 51.2881 62.9825 51.4608 62.8941 51.6041C62.7204 51.8682 62.5628 52.1426 62.4222 52.4257C62.3337 52.5985 62.1188 53.1125 61.7734 53.9763C61.6301 54.3513 61.4279 54.9243 61.1709 55.6996C60.9139 56.4749 60.758 57.0858 60.6695 57.5198Z" fill="#FBB03B"/>
<path d="M87.4067 56.9173C86.9374 57.3767 86.4173 57.781 85.8563 58.1223C85.3606 58.4405 84.8424 58.7222 84.3058 58.965C83.8845 59.1547 83.2567 59.3864 82.452 59.6771C81.7906 59.9342 81.3018 60.1364 80.9858 60.2797C81.1071 60.4272 81.2365 60.5679 81.3735 60.701C81.601 60.958 81.7948 61.2024 81.9759 61.4299C82.163 61.6945 82.336 61.9688 82.4942 62.2516C82.6291 62.5744 82.7444 62.9051 82.8396 63.2418C82.8982 63.483 82.9404 63.728 82.966 63.9749C82.9983 64.3053 82.9841 64.6386 82.9239 64.9651C82.8139 65.6868 82.5241 66.3693 82.0813 66.9496C81.74 67.4347 81.333 67.87 80.8721 68.2432L80.6151 68.5002L80.4002 68.673C80.2742 68.7255 80.1575 68.798 80.0547 68.8878C79.4487 69.315 78.799 69.6765 78.1167 69.9665C77.6405 70.1845 77.1507 70.3717 76.6505 70.5269C76.1156 70.6633 75.5611 70.7061 75.0116 70.6533C74.5718 70.5655 74.1669 70.352 73.8461 70.0386C73.5253 69.7252 73.3023 69.3255 73.2041 68.8878C72.9127 67.9407 72.9127 66.9277 73.2041 65.9805C73.4429 64.9889 73.9318 64.075 74.624 63.326C75.2144 62.7639 75.8331 62.2323 76.4778 61.7333C76.2474 61.5592 76.107 61.458 76.0565 61.4299C75.2179 60.8272 74.412 60.1802 73.6423 59.4917C73.2357 59.0903 72.861 58.6578 72.5216 58.1982C72.1358 57.7121 71.817 57.1764 71.5736 56.6055C71.4014 56.1196 71.2992 55.6117 71.2703 55.097C71.2419 54.9255 71.2419 54.7504 71.2703 54.5788V54.3344C71.2713 54.2454 71.287 54.1571 71.3166 54.0732C71.3114 53.9854 71.3258 53.8976 71.3588 53.8161C71.3584 53.7287 71.3726 53.6418 71.4009 53.5591C71.4268 53.3961 71.4706 53.2364 71.5315 53.083C71.7124 52.4887 71.9732 51.9217 72.3067 51.3976C72.3863 51.3039 72.4582 51.2038 72.5216 51.0984C72.6006 51.0177 72.6725 50.9303 72.7365 50.8372C72.7955 50.7824 72.8924 50.6644 73.0398 50.4917C73.6059 49.9122 74.2979 49.471 75.0621 49.2024L75.2812 49.1139L75.4498 49.0717L75.8374 48.9411L76.2292 48.8569H76.3135C76.3534 48.8335 76.398 48.8192 76.4441 48.8147H76.6168C76.6847 48.7817 76.7571 48.759 76.8317 48.7473H77.0044H77.392C77.4268 48.7541 77.4626 48.7541 77.4974 48.7473C77.5337 48.7428 77.5705 48.7428 77.6069 48.7473H78.1378C79.7472 48.8316 81.2695 49.5928 82.7048 51.031C82.7518 51.0706 82.7896 51.1199 82.8155 51.1756C82.8414 51.2313 82.8548 51.2919 82.8548 51.3534C82.8548 51.4148 82.8414 51.4754 82.8155 51.5311C82.7896 51.5868 82.7518 51.6361 82.7048 51.6757C82.6184 51.7594 82.5028 51.8061 82.3825 51.8061C82.2622 51.8061 82.1466 51.7594 82.0602 51.6757C80.7963 50.3864 79.4733 49.708 78.0956 49.6532H77.7923L77.6195 49.6953H77.4889L77.1477 49.7796C77.0441 49.7999 76.9425 49.8295 76.8443 49.8681L76.7137 49.9524L76.5873 49.9945L76.3261 50.1673C76.2369 50.2194 76.151 50.2771 76.0691 50.34L75.9385 50.4706L75.8542 50.5549C75.4446 50.969 75.1097 51.4508 74.8641 51.9791C74.8342 52.071 74.7901 52.1577 74.7335 52.2361C74.7079 52.3064 74.6937 52.3804 74.6914 52.4552C74.6505 52.5216 74.6206 52.5941 74.6029 52.6701C74.4836 53.0155 74.4251 53.3791 74.4302 53.7445V54.1322C74.437 54.1777 74.4512 54.2218 74.4723 54.2628V54.5198C74.5018 54.5198 74.5187 54.5493 74.5187 54.6083C74.5418 54.6308 74.5566 54.6605 74.5608 54.6926C74.6155 54.8105 74.704 54.9833 74.8178 55.2108C75.2163 55.756 75.6967 56.2364 76.2418 56.635C76.7586 57.0648 77.4763 57.5957 78.3948 58.2277C79.1981 58.8288 79.816 59.3035 80.2485 59.6518L82.1023 58.9187C82.9085 58.6041 83.5109 58.3597 83.9098 58.1855C84.4006 57.9659 84.8764 57.714 85.3338 57.4313C85.8431 57.128 86.3203 56.7736 86.7579 56.3737C86.7921 56.3225 86.8385 56.2804 86.8929 56.2514C86.9473 56.2223 87.008 56.2071 87.0697 56.2071C87.1313 56.2071 87.192 56.2223 87.2464 56.2514C87.3008 56.2804 87.3472 56.3225 87.3814 56.3737C87.4552 56.4434 87.4991 56.539 87.5038 56.6404C87.5085 56.7418 87.4737 56.841 87.4067 56.9173ZM79.4775 65.4918C79.582 65.2326 79.6266 64.9532 79.6082 64.6743C79.5619 64.5538 79.504 64.4381 79.4354 64.3288C79.3977 64.2301 79.3387 64.141 79.2627 64.0676C79.2037 63.9833 79.1194 63.8696 79.0015 63.7263L78.6602 63.3808C78.5121 63.2753 78.3714 63.1598 78.2389 63.0353C77.9819 62.833 77.649 62.5887 77.2488 62.3021C76.5479 62.7972 75.8859 63.3451 75.2686 63.9412C74.6416 64.6022 74.2049 65.4204 74.0046 66.3092C73.7703 67.0682 73.7703 67.8802 74.0046 68.6392C74.0663 68.9129 74.2044 69.1635 74.4027 69.3619C74.6011 69.5603 74.8517 69.6984 75.1253 69.76C75.5127 69.8076 75.9051 69.7309 76.246 69.5409C76.6163 69.3213 76.9503 69.0455 77.2361 68.7235C77.6647 68.2575 78.0669 67.7679 78.4411 67.2572C78.502 67.1492 78.5756 67.0487 78.6602 66.9581C78.8329 66.6968 78.9298 66.5367 78.9593 66.5367C79.1629 66.2071 79.331 65.8568 79.4607 65.4918H79.4775Z" fill="#FBB03B"/>
<path d="M101.651 55.4509L102.073 55.6658C102.131 55.6852 102.184 55.7181 102.228 55.7619C102.271 55.8057 102.304 55.8592 102.323 55.9179C102.341 55.9766 102.346 56.0389 102.336 56.0998C102.327 56.1607 102.303 56.2185 102.266 56.2684C101.485 57.6973 100.575 59.0526 99.549 60.3175C97.3019 63.1659 95.1336 64.833 93.0438 65.319C92.6629 65.4231 92.274 65.495 91.881 65.5339L90.714 65.7066C90.4275 65.7066 90.1283 65.7066 89.8124 65.6645C89.4735 65.5894 89.1411 65.488 88.818 65.3611C88.5202 65.2526 88.2436 65.0929 88.0007 64.8892C87.5855 64.59 87.2213 64.2257 86.9221 63.8105C86.4413 63.1343 86.0912 62.374 85.8899 61.569C85.6842 60.7665 85.5823 59.9409 85.5866 59.1125C85.5895 58.2845 85.6913 57.4598 85.8899 56.656C86.0626 55.8599 86.308 55.0814 86.623 54.3302C86.9145 53.5992 87.2906 52.9048 87.7437 52.2613C88.1487 51.6453 88.6253 51.0796 89.1635 50.5759L90.1536 49.7585C90.3843 49.5955 90.6297 49.4544 90.8867 49.3372C91.1581 49.1882 91.4397 49.0587 91.7293 48.9495C92.0032 48.8529 92.2852 48.781 92.572 48.7346C93.0008 48.6794 93.4339 48.6653 93.8654 48.6925L93.996 48.7346H94.1688C94.2654 48.7652 94.3665 48.7794 94.4679 48.7768C94.6584 48.8025 94.846 48.8462 95.0282 48.9074C95.4064 49.0056 95.7613 49.1779 96.0723 49.4145C96.3833 49.651 96.6442 49.947 96.8399 50.2852C97.2527 51.0334 97.3899 51.9027 97.2275 52.7417C96.9746 54.4435 96.1177 55.9975 94.8134 57.1195C93.3204 58.4649 91.4307 59.2885 89.429 59.4664C89.3732 59.9814 89.3437 60.499 89.3405 61.017C89.3494 61.4672 89.4074 61.915 89.5132 62.3527C89.5642 62.5951 89.6523 62.8282 89.7744 63.0437C89.84 63.1852 89.9266 63.3159 90.0314 63.4313C90.1581 63.5849 90.2992 63.726 90.4527 63.8527C90.6023 63.98 90.7614 64.0955 90.9288 64.1982C91.2075 64.3588 91.5155 64.462 91.8347 64.5016C92.1501 64.5584 92.4743 64.5426 92.7826 64.4552C93.7507 64.2031 94.6541 63.7478 95.4327 63.1195C96.2716 62.491 97.0502 61.7857 97.7584 61.0128C98.4438 60.246 99.0839 59.4399 99.6753 58.5984C100.307 57.708 100.729 57.076 100.939 56.7024C101.106 56.4305 101.256 56.1491 101.39 55.8597L101.651 55.4509ZM89.8039 57.5198C89.7154 57.8653 89.6438 58.2066 89.5848 58.5521C90.8869 58.3823 92.1331 57.9184 93.2292 57.1953C94.145 56.624 94.9245 55.8589 95.5127 54.9538C95.9531 54.2499 96.2521 53.4671 96.3933 52.649C96.4988 52.0103 96.4016 51.3545 96.1152 50.774C95.9845 50.5282 95.805 50.3117 95.5876 50.1378C95.3703 49.9639 95.1197 49.8363 94.8513 49.7627L95.024 49.0296L94.8513 49.7627C94.5573 49.6742 94.2437 49.6742 93.9497 49.7627C93.6595 49.8187 93.39 49.9527 93.1702 50.1504C93.0157 50.2759 92.8745 50.4171 92.7489 50.5717C92.5748 50.774 92.4343 50.9467 92.3276 51.09C92.2138 51.288 92.1127 51.4608 92.0243 51.604C91.8506 51.8681 91.693 52.1425 91.5524 52.4257C91.4639 52.5984 91.249 53.1125 90.9036 53.9762C90.7603 54.3512 90.5581 54.9243 90.3011 55.6995C90.0441 56.4748 89.8882 57.0858 89.8039 57.5198Z" fill="#FBB03B"/>
<path d="M115.744 56.1382L116.165 56.311C116.223 56.3243 116.277 56.3512 116.323 56.3894C116.368 56.4277 116.404 56.4761 116.427 56.5308C116.45 56.5855 116.459 56.6449 116.455 56.7041C116.451 56.7633 116.432 56.8206 116.401 56.8713C116.233 57.3306 115.98 57.9163 115.672 58.62C115.365 59.3236 114.859 60.377 114.185 61.7843C113.557 63.1059 112.836 64.3816 112.028 65.6017C111.482 66.4993 110.767 67.2821 109.922 67.9065C109.772 68.0529 109.596 68.17 109.403 68.252C109.297 68.3056 109.181 68.3344 109.062 68.3363C109.044 68.3519 109.024 68.3636 109.001 68.3709C108.979 68.3781 108.955 68.3807 108.931 68.3784H108.843C108.755 68.3837 108.667 68.3693 108.586 68.3363C108.389 68.3105 108.207 68.2201 108.068 68.0793C107.983 67.9908 107.882 67.877 107.769 67.7338C107.645 67.5451 107.543 67.3429 107.465 67.1312C107.371 66.7624 107.299 66.3881 107.25 66.0104C107.196 65.6534 107.168 65.2929 107.166 64.9318C107.151 63.5915 107.237 62.2521 107.423 60.9247C107.453 60.5497 107.503 60.1284 107.575 59.6607C107.646 59.193 107.718 58.7211 107.79 58.2618C107.861 57.8025 107.912 57.4191 107.941 57.0525C108.026 56.3067 108.085 55.7337 108.114 55.3292C107.872 55.4704 107.641 55.6295 107.423 55.8053L106.972 56.1466C106.783 56.2941 106.589 56.4374 106.387 56.568C106.184 56.6986 105.999 56.8545 105.826 56.9893C105.524 57.1977 105.207 57.3849 104.878 57.5497C104.493 57.7334 104.089 57.8746 103.673 57.9711C103.444 57.9998 103.213 58.0139 102.982 58.0132H102.595C102.433 57.9907 102.274 57.9482 102.123 57.8868C101.831 57.7704 101.567 57.5938 101.348 57.3685C101.17 57.1802 101.028 56.962 100.926 56.7239C100.746 56.3427 100.63 55.934 100.585 55.5146C100.524 55.1442 100.494 54.7692 100.497 54.3938C100.524 53.6615 100.655 52.9367 100.884 52.2407C101.103 51.5119 101.47 50.8362 101.963 50.2562C102.23 49.9548 102.552 49.7061 102.911 49.523C103.29 49.3563 103.703 49.2826 104.116 49.3081C104.353 49.2819 104.592 49.3357 104.795 49.4609C104.998 49.5861 105.153 49.7755 105.236 49.9991C105.498 50.6017 105.329 51.4949 104.744 52.6705C104.179 53.809 103.508 54.8911 102.738 55.9022C102.739 55.9191 102.743 55.9357 102.75 55.9509C102.757 55.9661 102.767 55.9797 102.78 55.9907H102.911C103.025 55.9612 103.126 55.9317 103.21 55.9022C103.709 55.7681 104.168 55.5168 104.55 55.1691L105.304 54.5244C105.633 54.2379 105.868 54.0357 106.012 53.9219C106.357 53.6354 106.661 53.4036 106.918 53.2309C107.317 52.9867 107.754 52.8115 108.211 52.7126C108.338 52.6845 108.468 52.6704 108.599 52.6705H108.986C109.089 52.6703 109.191 52.6845 109.29 52.7126C109.461 52.7719 109.62 52.8602 109.761 52.9739C109.891 53.0738 110.007 53.1899 110.107 53.3194C110.226 53.4724 110.315 53.6469 110.368 53.8334C110.456 54.0839 110.513 54.3443 110.537 54.6087C110.569 54.8093 110.585 55.0123 110.583 55.2154C110.583 55.502 110.583 55.8601 110.537 56.2899C110.507 56.6059 110.482 56.9514 110.452 57.3264C110.393 57.8447 110.309 58.502 110.195 59.3068C110.077 59.9683 109.976 60.6172 109.892 61.2492C109.804 61.62 109.69 62.2309 109.547 63.0778C109.403 63.9248 109.29 64.5821 109.201 65.0413C109.113 65.5006 109.1 65.7998 109.075 65.943C109.045 66.2632 109.028 66.5329 109.028 66.7857C109.024 66.8738 109.04 66.9618 109.075 67.0427V67.1312H108.986V67.1734H109.117C109.233 67.1982 109.355 67.1834 109.462 67.1312C110.353 66.5526 111.4 65.1298 112.605 62.863C113.713 60.8128 114.706 58.7028 115.58 56.5427L115.744 56.1382ZM102.342 54.9753C102.945 54.1148 103.477 53.2074 103.935 52.2618C104.395 51.3151 104.554 50.6831 104.411 50.3657C104.381 50.2772 104.28 50.2351 104.107 50.2351C103.86 50.2597 103.623 50.3483 103.421 50.4921C103.228 50.6599 103.055 50.8477 102.902 51.0525C102.613 51.5429 102.422 52.0855 102.342 52.6494C102.228 53.2164 102.2 53.7973 102.258 54.3727C102.257 54.5766 102.285 54.7796 102.342 54.9753Z" fill="#FBB03B"/>
<path d="M127.983 55.9648L128.35 56.226C128.405 56.2573 128.452 56.3015 128.487 56.3547C128.521 56.4079 128.542 56.4687 128.549 56.5319C128.555 56.5951 128.546 56.6589 128.522 56.7179C128.499 56.7768 128.461 56.8292 128.413 56.8707C128.259 57.096 128.093 57.3126 127.916 57.5195C127.533 57.9202 127.109 58.2803 126.652 58.594C126.11 59.0185 125.486 59.3269 124.819 59.4999C124.565 59.5584 124.305 59.5881 124.044 59.5884C123.97 59.5846 123.898 59.569 123.829 59.542C122.852 62.5027 121.789 64.4564 120.64 65.403C120.618 65.4286 120.592 65.4496 120.562 65.4648C120.533 65.48 120.5 65.4891 120.467 65.4915C120.287 65.7035 120.068 65.8794 119.822 66.0098C119.675 66.0952 119.514 66.1537 119.346 66.1825C119.244 66.1876 119.143 66.2017 119.043 66.2246L118.786 66.1825C118.415 66.143 118.059 66.0096 117.754 65.7949C117.475 65.6045 117.227 65.3713 117.021 65.1039C116.674 64.6522 116.384 64.1597 116.157 63.6376C115.943 63.1754 115.756 62.7013 115.597 62.2176C115.292 61.3064 115.077 60.3681 114.952 59.4156C114.805 58.5791 114.704 57.7351 114.649 56.8875C114.564 55.6108 114.564 54.3299 114.649 53.0532L114.737 51.5869C114.792 51.3299 115.007 51.1403 115.382 51.0265C115.792 50.9097 116.22 50.8669 116.646 50.9001C117.058 50.9103 117.462 51.0126 117.83 51.1993C118.146 51.3721 118.306 51.5743 118.306 51.8018C118.277 51.9077 118.261 52.0166 118.259 52.1263C118.259 52.2358 118.245 52.3448 118.217 52.4507C118.158 53.0237 118.103 53.5841 118.044 54.1361C117.901 56.0322 117.83 57.7274 117.83 59.2218C117.822 60.1293 117.88 61.0361 118.002 61.9353C118.069 62.6895 118.243 63.4303 118.521 64.1347C118.525 64.1796 118.539 64.2228 118.563 64.2612C118.575 64.2722 118.586 64.2858 118.593 64.301C118.6 64.3162 118.604 64.3328 118.605 64.3496C118.644 64.4102 118.688 64.4679 118.735 64.5224L118.908 64.7794C118.963 64.8089 119.035 64.851 119.123 64.91C119.192 64.9359 119.264 64.9502 119.338 64.9522C119.457 64.9438 119.574 64.9153 119.683 64.8679C119.776 64.8655 119.866 64.8346 119.94 64.7794L120.029 64.6951L120.071 64.7373C121.079 63.8946 122.062 62.0561 123.02 59.2218C122.13 58.5308 121.685 57.1263 121.685 55.0083C121.658 53.6444 121.878 52.2869 122.333 51.0013C122.877 49.594 123.597 48.8945 124.486 48.8945C124.692 48.8914 124.893 48.9574 125.058 49.0818C125.222 49.2063 125.34 49.3821 125.392 49.5813C125.599 50.6948 125.606 51.8362 125.413 52.9521C125.2 54.4925 124.89 56.0179 124.486 57.5195C124.373 57.9409 124.259 58.3243 124.141 58.7288C124.317 58.7282 124.492 58.6983 124.659 58.6403C125.218 58.4925 125.739 58.2283 126.188 57.8651C126.577 57.5915 126.938 57.281 127.267 56.9381C127.429 56.7539 127.58 56.5597 127.718 56.3566L127.983 55.9648ZM123.328 58.2527C124.193 55.3791 124.638 52.9914 124.663 51.0897C124.706 50.6372 124.647 50.1808 124.491 49.7541C124.002 49.7793 123.572 50.285 123.197 51.2625C122.775 52.4507 122.571 53.7054 122.595 54.9662C122.595 56.5252 122.839 57.6207 123.328 58.2527Z" fill="#FBB03B"/>
<path d="M142.894 55.4511L143.315 55.6659C143.373 55.6853 143.427 55.7182 143.47 55.762C143.513 55.8058 143.546 55.8593 143.565 55.918C143.584 55.9767 143.588 56.039 143.579 56.0999C143.569 56.1609 143.545 56.2186 143.509 56.2685C142.727 57.6965 141.819 59.0516 140.795 60.3176C138.548 63.166 136.379 64.8331 134.286 65.3191C133.905 65.4239 133.516 65.4958 133.123 65.534L131.96 65.7067C131.67 65.7067 131.371 65.7067 131.055 65.6646C130.717 65.5896 130.386 65.4881 130.065 65.3612C129.757 65.2561 129.472 65.0962 129.222 64.8893C128.809 64.5888 128.446 64.2247 128.148 63.8106C127.665 63.1346 127.314 62.3743 127.111 61.5691C126.905 60.7666 126.803 59.941 126.808 59.1126C126.811 58.2846 126.913 57.4599 127.111 56.6561C127.287 55.8612 127.535 55.084 127.853 54.3345C128.146 53.6043 128.522 52.9101 128.973 52.2656C129.378 51.6497 129.855 51.0839 130.393 50.5802L131.387 49.7628C131.618 49.5989 131.863 49.4578 132.121 49.3415C132.391 49.1916 132.673 49.0621 132.963 48.9538C133.244 48.8557 133.533 48.7837 133.827 48.7389C134.256 48.6837 134.689 48.6696 135.12 48.6968L135.247 48.7389H135.436C135.534 48.7694 135.637 48.7836 135.74 48.7811C135.93 48.8077 136.117 48.8515 136.3 48.9117C136.677 49.0104 137.031 49.183 137.342 49.4195C137.652 49.656 137.912 49.9517 138.107 50.2895C138.52 51.0377 138.657 51.907 138.495 52.746C138.247 54.4484 137.391 56.0034 136.085 57.1238C134.59 58.4685 132.699 59.292 130.696 59.4707C130.642 59.9858 130.614 60.5033 130.612 61.0213C130.624 61.4668 130.687 61.9094 130.802 62.3401C130.851 62.5823 130.938 62.8154 131.059 63.0311C131.124 63.1726 131.211 63.3033 131.316 63.4188C131.444 63.5714 131.585 63.7124 131.737 63.8401C131.887 63.9675 132.046 64.083 132.213 64.1856C132.492 64.3457 132.8 64.4488 133.119 64.489C133.434 64.5459 133.759 64.53 134.067 64.4427C135.035 64.1906 135.939 63.7353 136.717 63.107C137.558 62.4805 138.337 61.7751 139.043 61.0002C139.729 60.2345 140.37 59.4283 140.96 58.5859C141.592 57.6954 142.013 57.0634 142.224 56.6898C142.39 56.4169 142.542 56.1356 142.679 55.8471L142.894 55.4511ZM131.042 57.5199C130.953 57.8654 130.882 58.2067 130.827 58.5522C132.128 58.3817 133.372 57.9177 134.467 57.1954C135.384 56.6253 136.164 55.8599 136.751 54.9539C137.192 54.2502 137.493 53.4674 137.636 52.6491C137.738 52.0099 137.639 51.3548 137.353 50.7741C137.222 50.5285 137.043 50.3121 136.825 50.1382C136.608 49.9644 136.358 49.8366 136.089 49.7628L136.262 49.0297L136.089 49.7628C135.794 49.6742 135.479 49.6742 135.183 49.7628C134.895 49.8189 134.627 49.953 134.408 50.1505C134.253 50.2749 134.111 50.4162 133.987 50.5718C133.816 50.7741 133.675 50.9468 133.566 51.0901L133.267 51.6041C133.091 51.8682 132.932 52.1426 132.79 52.4258C132.706 52.5985 132.487 53.1126 132.146 53.9763C131.998 54.3513 131.8 54.9244 131.539 55.6997C131.278 56.4749 131.126 57.0859 131.042 57.5199Z" fill="#FBB03B"/>
<path d="M19.2417 61.7122L18.4707 60.4692C17.8429 59.4495 3 35.3736 3 26.7401C3.00106 23.5236 3.95553 20.3796 5.74278 17.7054C7.53003 15.0312 10.0698 12.9468 13.0412 11.7158C16.0126 10.4848 19.2822 10.1623 22.4369 10.789C25.5915 11.4158 28.4895 12.9638 30.7647 15.2373L29.446 16.5561C27.432 14.5418 24.866 13.17 22.0724 12.6142C19.2789 12.0585 16.3833 12.3437 13.7518 13.4338C11.1203 14.5239 8.8712 16.3699 7.28886 18.7385C5.70651 21.107 4.86203 23.8916 4.86222 26.7401C4.86222 33.7767 16.1872 53.0787 19.2838 58.2192C21.7865 54.2501 29.4586 41.7191 32.1382 33.0983L33.8993 33.6503C30.6299 44.2219 20.4762 59.8119 20.0422 60.4903L19.2417 61.7122Z" fill="#FBB03B"/>
<g opacity="0.91">
<path opacity="0.91" d="M20.1855 37.7841C17.9957 37.7842 15.8453 37.2024 13.9543 36.0983C12.0632 34.9941 10.4995 33.4073 9.42325 31.5001C8.34695 29.593 7.79672 27.4341 7.82888 25.2444C7.86103 23.0547 8.47442 20.9129 9.60625 19.0382C8.54411 20.3581 7.76481 21.8824 7.31677 23.5164C6.86874 25.1503 6.76155 26.859 7.00188 28.5361C7.2422 30.2132 7.8249 31.823 8.71375 33.2653C9.6026 34.7076 10.7786 35.9517 12.1687 36.9202C13.5587 37.8887 15.1331 38.5609 16.794 38.895C18.4548 39.2291 20.1666 39.218 21.823 38.8623C23.4794 38.5067 25.0449 37.8141 26.4223 36.8276C27.7996 35.8412 28.9594 34.5819 29.8294 33.1282C28.6721 34.5774 27.2027 35.7468 25.5308 36.5492C23.8588 37.3517 22.0274 37.7666 20.1728 37.763" fill="white"/>
<path opacity="0.91" d="M19.2628 39.3304C15.9251 39.3271 12.725 37.9996 10.3648 35.6392C8.00466 33.2789 6.67726 30.0785 6.67392 26.7405C6.66322 23.8864 7.63297 21.1153 9.42089 18.8907L9.80429 19.1562C8.21903 21.7922 7.69466 24.9321 8.33738 27.9402C8.9801 30.9483 10.7419 33.5997 13.2659 35.3576C15.79 37.1154 18.8877 37.8482 21.9317 37.4077C24.9758 36.9672 27.7387 35.3862 29.6609 32.9849L30.0443 33.2504C28.9289 35.112 27.3485 36.6515 25.4582 37.7175C23.568 38.7835 21.4329 39.3393 19.2628 39.3304ZM8.00949 22.2068C6.98909 24.7511 6.85988 27.566 7.64288 30.1931C8.42588 32.8202 10.075 35.105 12.3218 36.6754C14.5685 38.2458 17.2807 39.0095 20.0167 38.842C22.7527 38.6746 25.3515 37.5859 27.39 35.7532C25.5018 37.0697 23.2891 37.8436 20.9921 37.991C18.695 38.1384 16.4015 37.6536 14.3606 36.5892C12.3197 35.5248 10.6094 33.9215 9.41544 31.9534C8.22149 29.9854 7.58952 27.7278 7.58817 25.4259C7.59036 24.3392 7.73196 23.2574 8.00949 22.2068Z" fill="#FBB03B"/>
</g>
<g opacity="0.91">
<path opacity="0.91" d="M13.8701 28.2107C13.8701 28.2107 15.7829 22.2276 21.3527 22.2276C21.3527 22.2276 23.2107 27.802 25.688 28.4214C25.688 28.4214 34.3587 10.1517 45.8143 7.66992C45.8143 7.66992 42.0983 14.4832 44.5756 18.5113C41.3192 18.4922 38.137 19.4829 35.4668 21.3469C31.3716 24.1826 27.3691 30.2838 26.9267 33.3765C26.9267 33.3765 19.7559 28.2107 13.8701 28.2107Z" fill="#F2F2F2"/>
<path opacity="0.91" d="M27.2805 34.2024L26.6527 33.7515C26.5853 33.6883 19.5325 28.6616 13.87 28.6616H13.2549L13.4487 28.0549C13.4698 27.9917 15.53 21.7599 21.3736 21.7599H21.6812L21.7865 22.0801C22.25 23.4664 23.7541 27.0183 25.4435 27.84C26.796 25.118 34.9484 9.54495 45.7088 7.21489L46.7031 7L46.2144 7.89326C46.1807 7.96068 42.6585 14.5211 44.9504 18.2669L45.4223 19.0295L44.5249 18.9748C41.3745 18.9718 38.2987 19.9335 35.711 21.7304C31.7211 24.4945 27.7903 30.4818 27.3689 33.4397L27.2805 34.2024ZM14.5399 27.7515C19.4272 28.0422 24.8453 31.4088 26.6148 32.5928C27.4869 29.2852 31.2156 23.7444 35.2012 20.9635C37.7405 19.2037 40.7228 18.192 43.8087 18.0436C42.3762 14.7444 44.0741 10.2865 44.9504 8.35253C34.3207 11.5548 26.1935 28.4467 26.1092 28.6321L25.9449 28.9776L25.5741 28.8849C23.2021 28.2782 21.4958 23.9973 21.0239 22.6995C17.0467 22.8807 15.1508 26.3358 14.5399 27.7515Z" fill="#FBB03B"/>
</g>
</svg>
