<svg width="45" height="45" viewBox="0 0 45 45" fill="none" xmlns="http://www.w3.org/2000/svg">
<path fill-rule="evenodd" clip-rule="evenodd" d="M24.0577 29.1149L19.3477 24.2209L10.2737 29.2381L20.2198 18.6849L24.9297 23.5788L34.0001 18.5616L24.0558 29.1149H24.0577ZM22.1387 6.2771C12.0804 6.2771 3.92627 13.9013 3.92627 23.3084C3.92627 28.6586 6.56458 33.4329 10.6932 36.5551C10.6932 36.5551 9.45139 42.3161 10.6932 43.0736C11.9349 43.8312 16.9081 39.6258 16.9081 39.6258C18.5639 40.0894 20.321 40.3397 22.1387 40.3397C32.1989 40.3397 40.353 32.7136 40.353 23.3084C40.353 13.9013 32.1989 6.2771 22.1387 6.2771Z" fill="#313131"/>
</svg>
